<?xml version="1.0" encoding="utf-8"?>
<!-- Generator: Adobe Illustrator 27.0.1, SVG Export Plug-In . SVG Version: 6.00 Build 0)  -->
<svg version="1.1" id="Layer_1" xmlns="http://www.w3.org/2000/svg" xmlns:xlink="http://www.w3.org/1999/xlink" x="0px" y="0px"
	 viewBox="0 0 1200 1498" style="enable-background:new 0 0 1200 1498;" xml:space="preserve">
<g>
	<path d="M125.1,1269.2c0.1,0,0.1,0,0.2,0C125.3,1269.2,125.3,1269.2,125.1,1269.2z"/>
	<path d="M178.8,1069.6c-1-0.1-2.1-0.5-2.8-0.1c-5.2,2.9-10.7,5.4-15.2,9.2c-5.8,4.9-10.8,10.7-16.3,16.4c-0.8,1-1.3,1.7-1.8,2.4
		c0.1,0.1,0.3,0.2,0.4,0.3c12.2-9,24.4-18,36.6-27C179.3,1070.5,179,1070.1,178.8,1069.6z"/>
	<path d="M118.2,1123c8.5-5.2,14-12.5,20.5-20.8c-2.3,0.4-3.5,0.3-4,0.8c-5.9,5.6-11.6,11.3-17.3,17c-0.4,0.4-0.5,1.2-0.6,1.9
		l-0.3,1c0,0-0.1,0-0.1,0c-3.7,3.2-7.7,6-7,11.9c2.2-2.8,4.3-5.6,6.3-8.4v0l0,0c0.8-1.1,1.5-2.2,2.2-3.3c-0.1,0-0.2,0-0.3-0.1
		l0.1-0.1C117.8,1123,118,1123,118.2,1123z"/>
	<path d="M264.2,1243.6c-0.3-1.1-0.6-2-1.1-2.6C263.3,1242.1,263.8,1243,264.2,1243.6z"/>
	<path d="M265,1245c0.1,0.8,0.5,1.4,1,1.7C265.8,1245.9,265.5,1245.4,265,1245z"/>
	<path d="M128.4,894.9c10.3,2.3,20.7,4.6,31.1,6.9c2-9.3,1.2-11.4-6.6-16.7c1.9-0.2,3.8-0.4,6.9-0.8c-1.8-1.1-2.5-1.6-3.5-1.9
		c-0.9,0-1.6-0.1-2.2-0.3c-2.9-0.9-6.2-3.2-8.5-2.5c-2.8,0.9-4.1,0.5-5.9-1.2c-0.6-0.6-2.1-0.2-3.3-0.3c0.3,1.2,0.2,2.9,1,3.4
		c4.7,3.3,9.6,6.3,14.6,9.5C144.8,895.6,136.1,891.2,128.4,894.9z"/>
	<path d="M183,1355.7c0-0.5,0-0.6-0.5-0.9c-0.8-1.4-1.4-2.7-1.4-4.1c-0.1-5.3-0.1-10.5-0.5-15.8c-1.5,1.3-2.7,2.6-3.6,4
		c-1.2,2-2,4.2-3,6.3c-0.7,1.4-1.4,2.7-2,4.1c-0.8,1.6-1.2,3.5-2.3,4.8c-0.8,0.9-2.6,1.5-3.7,1.3c-0.8-0.1-1.5-1.9-1.8-3
		c-0.4-1.6-0.3-3.4-0.4-4.4c-2.3,2.3-4.4,4.5-6.5,6.7l-0.2-0.1l-0.1-2.2c0.4-2.5-0.7-5.1,0.2-7.3l2.3-2.1c2.5,1.2,4.9,2.9,6.3-0.7
		c1.4-3.4,1.6-6.7-3-8.1c-1.2,1-2.4,1.9-3.6,3.2l0,0c0-0.1,0-0.2,0-0.3c0-1.3,0-1.7,0-2.2c0,0,0,0,0,0l0.2-0.3
		c2.6-2.9,4.4-5.5,0.7-8.5c-1.2,2.7-2.1,5.2-2.9,8c0.1,0.4,0.1,0.6,0.3,0.8l0,0l-0.5,0.3c-0.5,0.2-0.8,0.4-1.1,0.6l-0.9,0.4
		c-2.1,3.1-3.9,6.1-5.6,9.5c-0.3,1.7-0.6,3.1-1,4.8c-0.1,1-0.1,1.7,0,2.6l-0.1,0.3c-0.1,0-0.1-0.1-0.2-0.1c-0.9,0.9-1.3,1.8-1.9,3.1
		c-1.1,2.4-2.1,4.5-3,7c-0.7,2.9-1.4,5.3-1.9,8.2c0.5,2.8,0.9,5.2,1.5,7.7c1.6,1.5,3.3,2.7,4.3,4.3c3.6,5.6,8,9.5,15.2,8.5
		c0,0,0-0.1,0-0.1l0.4,0.1c9.8,0,12.1-1.6,15.4-11l0.3-0.4c0,0.1,0.1,0.2,0.1,0.3c1.9-2.3,3.1-4.7,4.5-7.6c0.2-6,0.2-11.7,0.3-17.3
		L183,1355.7C182.9,1355.8,183,1355.7,183,1355.7z"/>
	<path d="M597,963C597,963,597,963,597,963C597,963,597,963,597,963z"/>
	<path d="M141.1,1381.5c0,2.8,0.1,5.1,0.5,7.5c3.8,4.6,5.3,11.3,13.1,11.8c0.1-1.3,0.7-2.8,0.2-3.5
		C150.4,1391.8,145.7,1386.4,141.1,1381.5z"/>
	<path d="M263.6,1072.1c0,0.4,0.1,0.7,0.3,0.7C263.8,1072.3,263.8,1072.1,263.6,1072.1z"/>
	<path d="M196.7,1300c-0.4,0.4-0.6,0.7-0.5,0.9C196.6,1300.5,196.7,1300.2,196.7,1300z"/>
	<path d="M597.9,1111.9C598,1111.9,598,1111.8,597.9,1111.9l0.4-1l0.1-0.2c1.7-4.1,3.2-8,4.6-12c0.7-1.9,1.3-3.8,1.9-5.7l1.9-5.3
		c2.4-5.9,5.1-11.5,0.7-17.4l-0.7-1.8c-0.6-2.2-1.1-4.2-2-6.1c-0.9-2-2.4-3.7-4-5.5c0,0,0,0,0,0v-0.8l-0.1-0.2
		c-0.8-3.9-2.1-7.4-2.8-11c-1-5.5-0.2-10.8,1.6-16.2c2.7-8.4,4.4-17.2,6.5-25.8c0.2-0.9,0.2-2-0.2-2.7c-4.1-9-8.4-17.9-12.8-26.7
		l0,0l-1.3-2.7c0,0,0.1-0.1,0.1-0.1c1.9-2.2,3.6-4,5.2-6.1c0-0.8,0-1.3-0.1-1.7c0,0,0,0-0.3,0.1c-2.1-1.4-4.1,5-6.1,0l0.2-0.1
		c0,0,0,0,0.1,0l0,0l0,0c0,0,0,0,0,0l0.3-0.2c0.4-0.7,0.4-1.3,0.3-1.7l0,0c0-0.1,0.1-0.1,0.1-0.2c0.3-0.4,0.5-0.8,0.4-1.2
		c-0.1-1.7-0.1-2.9-0.2-3.8c-2.3-0.3-4.1-0.5-5.9-0.8c-1.2,0.5-2.5,1-4,1.6l-1.1,0c-2.9-0.1-5.4,0.1-7.6,0.6
		c-1.3-0.5-2.4-0.8-3.7-1.2c-0.1,0-0.1,0-0.2-0.1l-0.2-0.4c-0.8-0.4-1.4-0.5-1.9-0.3c-0.5-0.4-0.7-0.6-1.5-1
		c-1.9-1.5-3.3-2.9-4.7-4.2c-2-2.3-4-4.6-6.4-7l-0.6-1.3c0.1-0.7,0.1-1.1,0-1.8l0.2-0.1c0,0,0.1,0,0.1,0c0.9,0.1,1.4,0,1.8-0.5
		c0,0.3,0.5,0.5,0.7,0.5l0.3,0.2c0,0,0,0,0,0c0.3,0.5,0.5,0.7,1.1,0.9c0.6-0.2,1-0.5,1.3-0.7l0.8-0.5c4.5,0.6,8.4,0.9,12.2,1.2
		c0.2-0.6,0.3-1.2,0.5-1.8c-7.4-2.5-15.2-4.4-18.3-13c-0.6-0.1-1-0.2-1.4-0.2l-0.1-0.5c0.3-6.5,0.6-12.5,1-18.6l0-0.4c0,0,0,0,0.1,0
		c-0.5-4.3-0.9-8.3-1.4-12.3l0,0l0,0c-0.2-1.6-0.4-3.3-0.6-4.9c-0.4-3.1-0.7-6.1-1.1-9.2c-1-1.7-1.9-3.4-3-5.5c-0.1,0-0.3,0-0.4,0
		l0.8-0.5c1.1-1.1,1.9-2.2,2.6-3.5c-0.1-0.4-0.1-0.8-0.1-1.1l0.3-0.5c1,0.1,1.7,0.1,2.2-0.3c-1.7-4.6-0.7-8.3,1.6-11.9
		c2-3,4-5.9,6-9.1l0.4,0c0.7,0.2,1.1,0.1,1.5,0.1c0,0,0,0,0,0l0.3,0c1.1-0.9,1.9-1.8,2.3-2.7c0.1-0.1,0.2-0.1,0.3-0.2
		c2-0.8,3.4-1.5,4.8-2.3l0.6,0c5.5-2.4,10.8-5.1,15.9-8.1c2.5-1.5,4.5-3.7,6.8-5.5l0.3,0c0,0,0,0,0,0.1c0.5,0.1,0.6,0.2,1,0
		c-0.1,0.6-0.3,1.2-0.4,1.8l-0.6,3.1l-0.6,0.3c-2.2,2.3-4,4.5-5.4,6.8c-3.5,2.1-6.8,4.3-10.1,6.8l0,0l-3.5,2.3
		c-5.6,0.3-9.7,2.7-12.9,6.7c0.5,2,1,4.1,1.8,6.2c0.9-0.2,1.4-0.6,2.2-0.9c0.7-0.3,1.1-0.6,1.8-1c0.3-0.1,0.3-0.1,0.4-0.4
		c2.2-1.1,4.2-2.2,5.5-3.7l2.9-1.4c3.7-2.4,6.6-4.3,9.6-6.6c1.7-2.1,3.3-3.8,4.9-5.9l0.4-0.2c1.8-1.4,3.4-3.1,4.9-5
		c2.3-7.1,4.5-13.8,6.8-20.9c0.2-4.4,0.5-8.4,0.4-12.7c-0.3-1.1-0.4-2.1-0.6-3l0.2-1c1-2,1.5-3.9,1.7-6.1
		c-0.7-7.5-1.2-14.6-1.7-22.2c-1.2-6-2.2-11.7-7.2-15.3l-4-14.5c-0.5-0.9-1-1.6-1.6-2.1l-0.6-0.8c0.2-0.9,0.2-1.3,0.2-1.7l0.1-0.6
		c0.3-11.7-3-21.4-10.2-29l0,0l-0.1-0.1c-1.9-2-4-3.8-6.4-5.4l-0.1,0c0-0.1-0.1-0.1-0.1-0.2c-2.5-2-4.8-3.7-7.3-4.7
		c-6.9-2.8-13.8-5.6-20.9-7.8c-4.7-1.5-9.6-2.6-14.5-2.9c-6.1-0.4-12.4-2.2-18.3,1.9l-0.6,0c-16.4-0.5-32.5-0.2-48.2-4.6
		c-0.1,0-0.2,0-0.3,0l0.1-0.3c-1.2-0.5-2.3-0.6-3.2-0.5l-3.8-1.3c-0.4-0.4-0.7-0.5-0.9-0.3l-0.2,0c-0.1,0-0.1-0.1-0.2-0.1
		c-2.9-0.8-5.3-1.3-7.7-1.8l-0.1-0.3c-5.5-3.6-11.4-6.2-14.7-11.7c0-0.1-0.1-0.2-0.1-0.4c0-0.7-0.1-1.1-0.3-1.4l-0.3-1
		c-0.2-3.5-1.4-6.7-1.1-9.7c0.3-2.8-4.4-5.3-0.4-8.3l0.1-1.4c2.4-3.8,4.6-7.4,7.4-12.1c-4.2,0.9-7.3,1.5-10.5,2.6c0,0,0,0,0,0.1
		l-0.3-0.1l0,0c0-0.1,0-0.1-0.1-0.2c-1.5-1.1-2.7-1.7-3.8-1.9l0-0.1c0-0.1,0-0.2,0-0.3c0-1.9,0.1-3-0.2-4l0,0c0.1,0,0.2,0,0.4-0.1
		c1.8-0.7,2.9-1.5,4.1-2c6.9-3.1,13.9-5.9,20.7-9.3c3.8-1.9,7.2-4.4,10.6-6.9c8.3-6.3,18.7-10.2,21.5-22.3
		c1.5-6.4-1.5-18.1-7.3-21.2c-7.7-4.1-14.5-9.9-23.4-11.6c0,0-0.1,0-0.1,0l0-0.3c-1.7-0.7-3.3-1-4.9-1.1c-0.2-0.1-0.3-0.1-0.5-0.2
		c-4.1-1.5-7.8-2.4-11.5-3.3l-0.2-0.4c0,0,0,0,0,0c-6.9-1.8-13.6-3.6-20.5-4.4c-8.6-1-17.3-1.4-25.9-1.7c-1.9-0.1-3.9,1.4-5.8,2.2
		c6.1,1.7,11.5,2.6,16.9,3.3c7,0.8,14,1.2,21,2c6.6,0.7,12.7,2.8,18.1,7c4.2,3.3,8.9,6,13.3,8.6c-0.3-0.5-0.6-1.1-1-1.6
		c0.4,0.6,0.8,1.2,1.2,1.8c1.2,2.1,2.1,3.7,3.1,5.2c3.6,4.8,3.4,11.5-0.8,15.6c-2.9,2.8-6.3,5.3-9.4,7.9l-0.3,0
		c-1.2,0.5-2.1,1-2.6,1.6l-0.3,0.2c-4.4,1.7-8.1,3.2-11.9,4.7l-0.5,0.1c-1.9,0.6-3.3,1.2-4.4,1.8l-0.3,0.2c-2.7,0.4-4.8,0.6-6.8,0.9
		l0.1-0.3c2-1.6,3.9-2.9,5.5-3.9c-0.6-0.9-1.1-1.8-2-2.5c0,0,0,0,0-0.1c0.1,0,0.2-0.1,0.3-0.1c3.9-2.5,7.1-4.6,11.2-7.3
		c-2.4-1.3-3.8-1.6-4.6-2.5c-5.3-5.8-12-9.5-19.2-11.9c-4.2-1.4-8.9-5.6-13.7-0.9l-0.3-0.1c-1.4-0.9-2.5-1.6-3.9-2.3
		c-0.2,0.1-0.4,0.5-0.4,0.5l-0.3-0.2c-8.2-5.1-16.2-10-24.1-15c-1.8-1.2-3.4-2.7-4.8-4.4c-4.1-5.1-8.6-9.5-15.7-9.6l0-0.4l-0.1-0.3
		c-1.2-0.6-2.2-0.8-3.2-0.8l-0.3-0.1c-1.5-0.9-2.5-1.3-3.5-1.8l-0.1-0.4l0,0c0,0,0,0,0,0c-3.4-0.1-6.7,0.1-9.6,0.3l-0.2,0.3
		c-1.8,0.5-3,0.7-4.2,0.9l-0.2-0.2c-1.3-0.3-2.4-0.4-3.6-0.2c-0.2,0.9-0.3,1.5,0,2.2l0,0.1l-0.1,0.1c-0.5,0.1-0.8,0.4-0.8,0.4
		l-0.4,0c0,0,0,0,0,0c-1.2,0-2,0-3.1,0.1l-0.1-0.3c0,0,0,0,0.1-0.1c-0.6-3.4-1.4-6.5-2.5-9.6l-0.6-2.4c-0.4-2.1-1.2-3.9-2-5.7
		c-1.9,1.2-3.7,2.4-5.6,3.6c0,0-0.1,0-0.1,0.1h-0.2c-1.8,0.8-3.2,1.5-4.2,2.2c-0.4,0-0.4,0-0.4,0.2l-0.4,0c-1.2-0.3-2.2-0.4-2.8,0
		c-5.1,3.8-10.1,7.7-15.1,11.5c-1.5,1.1-3.2,2.1-5,3.2c-3.8,3.7-7.2,7.3-10.4,11.1c0,1.4,0.1,2.8-0.6,3.7
		c-3.6,4.8-7.9,9.3-10.9,14.4c-3,5.2-8.7,9-8.7,16.2c0,0.1,0,0.2,0,0.3h0c0-0.1,0-0.2,0-0.3c-2,0.4-3.9,1.1-5.9,1.9
		c-0.3-0.5-0.6-1.1-0.9-1.7c-2.4-0.6-4.4-1-6.2-1l-0.3-0.2c-6-3.8-12-5.8-18.5-5.1c0,0,0,0,0,0l-0.2,0c-0.1,0-0.1-0.1-0.2-0.1
		c-4.3-0.3-8-0.3-11.6-0.2l-0.4-0.1c-0.8,0-1.3,0.1-1.6,0.5l-0.3,0.1c0,0,0,0-0.1,0c-3.6,0.9-6.6,1.9-9.7,2.9l-0.4,0
		c-1.8,1-3.3,2-4.6,3.1c-0.2,0.1-0.4,0.2-0.6,0.3c-1-0.1-1.3,0-1.5,0.2l-0.3,0.2c0-0.1,0-0.1,0-0.2c-0.3,0.2-0.5,0.4-0.6,0.6l0,0
		l-0.3,0.4c0,0,0,0,0,0.1l0,0l-0.3,0.3c-1.6,0.4-2.8,1.2-4,1.9c-2.3,1.3-4.3,3.2-6.4,4.9l-3.9,2.6c-1.3,0.6-2.7,1.1-4.3,1.2
		c-0.5,0.8-0.8,1.3-0.7,1.9l-0.3,0.2c-1.1,0.5-1.8,0.9-2.4,1.6l-0.3-0.1c0,0,0,0,0,0c-1.2-2.6-2.1-4.8-3.7-6.3
		c-4.2-3.9-8.7-7.5-13-11.3c-1-0.9-2.1-2.4-2.3-3.7c-0.9-7.7-1.3-15.3-2.2-23c-0.2-1.7-1.2-3.3-1.8-5l-5.4,3.1
		c-6.2,5.9-11.3,12.1-13.4,20.2l-0.4,0.7c-2.4,4.2-5,8.1-5.6,12.3c-1.1,7.8-1,15.7-1.2,23.5c0,0.8,1.2,1.7,1.9,2.2
		c0,0.1,0,0.3-0.1,0.4c0,2.6-0.4,4.6,0.2,6.2c3.8,10.1,7.9,20.2,11.8,30.2c0,0,0.1,0.1,0.1,0.1l-0.4-0.1c-0.5,0-0.7,0-1.1,0.1
		c-0.2,0.4-0.4,0.7-0.6,0.9l0,0.4c-0.8,2-1.7,3.6-2.3,5.3c-2.7,7.4-5.4,14.8-7.9,22.6l-0.4,0.2c-0.7,4.9-1.6,10.2-1.1,15.3
		c0.3,2.8,2.1,6.4,4.4,7.7c4.9,2.9,10.2,5.2,16.3,4.5c7.1-0.8,14.3-1.4,21.5-1.9c1.6-0.1,4.5,0,4.6,0.6c1.3,5,5.3,2.7,8.2,3.3
		c1.9,0.3,3.8,0.7,6.1,1.1c3.5,0,6.5,0,9.5-0.1l-0.2,7.7l0,0.4c-0.1-0.2-0.2-0.4-0.3-0.6c-3-3.4-6.4-4.3-10.2-3.7
		c-3,0.5-6,1.2-9.1,1.6c-5.8,0.7-11.7,1.1-17.5,2l-0.3,0c-0.6-0.4-1-0.4-1.6-0.4c-0.4,0-0.6,0.1-0.8,0.5l-1-0.1
		c-5-0.7-9.6-1.1-14.2-1.5l-0.3,0.1c-0.7,0.8-1.1,1.4-1.4,2.1l-0.3,0.2c0.2,2,0.7,3.7,1.1,5.1l0,0l0,0c0,0,0,0.1,0,0.1c0,0,0,0,0,0
		l0.2,0.4c2,5.5,2.1,11.2,7.7,14l0.3,0.4c4,6.9,11.2,9.2,17.9,12c5.6,2.3,11.3,4.4,17.4,6.6c0,0,0.1,0,0.1,0l0,0.4c0,0,0,0,0,0
		c-0.3,0.9-0.2,1.3-0.1,1.8l0.1,0.1c-0.1,0-0.3,0-0.4,0c-4.3,1.7-8.3,3.2-11.9,4.9l-0.2,0.3c0.1,7.9,4.1,14.3,8.6,20.2
		c4.6,6.1,11.6,10.2,14.2,18c0.2,0.6,1.6,0.9,2.4,1.4l0,0.3l0,0.7l0.1,0.2l0,0c0,0-0.1,0-0.1,0c0.3,0.4,0.6,0.6,0.8,0.5l0.2,0
		c0,0,0,0,0.1,0.1c0.5,0.4,0.6,0.4,0.8,0.5l0.1,0.1c-0.1,0-0.1,0-0.2,0c-0.3,0.5-0.5,0.8-0.4,1.4c-0.4,1.7-0.7,3.4-1.6,4.5
		c-4.2,4.5-4.3,5.2-0.4,8.5l0.2,0.4c-0.1,0-0.1,0-0.2,0c2.6,6.7,4.2,13.5,10.2,17.8c0.1-0.1,0.1-0.2,0.2-0.3l0.3,0.4
		c-0.2,0-0.3,0-0.4,0c0,0,0,0-0.1,0c0,0,0,0,0,0c0,0,0,0,0.1,0c-0.1,0-0.1,0.1-0.2,0.1c-0.2,0.2-0.5,0.5-0.5,0.9
		c-1.8,2.8-3.5,5.4-5.6,7.6c-3.6,3.7-7.5,7-10.9,10.4l-2.9,8c0,0,0-0.1,0-0.1c0,0.1,0,0.2,0,0.3l0,0.1l0,0.1
		c-0.3,1.5-0.3,2.9-0.2,4.1l-0.1,1.6c-0.2,1.9-0.2,3.3-0.2,4.8l0,0.5c0,0,0,0-0.1-0.1c0,5.3,0,10.2,0,15c-0.3,0-0.5,0.1-0.8,0.1
		c-1-5.7-2-11.3-3-17c-0.4,0-0.9,0-1.3,0c-2,8-0.6,16.2,0.1,24.3l-0.3,0.6l0,0c-2.9,4.9-5.5,9.7-8.1,14.4c0.4,0.2,0.8,0.5,1.2,0.7
		c3.6-2.6,7.2-5.2,10.9-8l0.1,0.1c0,0.1,0,0.2,0.1,0.3c0.1,1.2,0.2,1.7,0.6,2.2l-0.3,0.2c-3.9,5.7-7.1,11.2-10.2,17
		c1.8,1.8,3.4,3.4,5.1,4.9l0,0.4l-0.1,6.6l-0.4-0.1l-8.3-1.8l-0.1,0l0,0c0,0,0.1,0,0.1,0c-0.1,0-0.1,0-0.2,0l0,0l-0.1,0
		c-3.7-0.2-7.2-0.2-10.4,0.1l-0.7,0c-4.1,0.6-7.6,1.6-11.1,2.6l-0.4,0c0,0,0,0,0,0c0,0-0.1,0-0.1,0l-0.1,0l0,0c-8.5,1-15.6,4-20,11
		c-0.1,0-0.2,0.1-0.4,0.1c-1.7,1.7-2.7,3.4-3.8,5c0,0,0,0,0.3,0c7-3.7,13-8.6,20.9-9.6c8.2-1.1,15.9-0.5,23.1,4.6
		c2.8,0.6,5.3,1.3,7.7,1.5l1.9,0.8c0.3,0.8,0.5,1.3,0.7,1.8c-0.1,0-0.2,0-0.3,0c-1,0.3-1.8,0.6-2.4,1.2l-0.4,0
		c-6.5,2-12.6,4.3-18.7,6.9h-0.9l0,0c-0.9,0-1.6,0.1-2.1,0.5c-10.9,8.4-20.8,17.7-27.2,30.5c-2,4.4-4,8.6-5.8,13.1
		c-0.6,2.7-1.7,5.1-1.8,7.4c-0.3,7.4-0.2,14.8-0.2,22.6c1.1,3.5,2.1,6.5,3.3,9.7c0.7,0.4,1.2,0.7,1.6,1l0.4,0.3
		c2.8,3.7,5.3,7.1,8.1,10.7c9,4.9,17.4,10.3,27.9,11.7c0.7-0.1,1.2-0.3,1.6-0.7l0.4-0.1c1.8-0.3,3.3-1,3.6-1.1l-17-15.2l-0.5-1.2
		c-0.8,0.1-1.7,0.2-2.5,0.4c-2-4.8-3.9-9.5-5.8-14.6c0.6-4.8,1.3-9.1,1.9-13.9l1.9-6.4c0.4-1.4,0.9-2.8,1.3-4.2
		c0.6,0.4,1.6,0.7,1.8,1.3c2.1,5.8,6,9.9,11.8,12.6c0.3-0.7,0.3-1.4,0-2.7c-1-1.2-1.7-1.9-2.3-2.7c-4-5.4-1.8-11.5-2.2-17.3l0,0
		l0.2-0.6c0,0,0,0,0,0.1c0-0.1,0-0.1,0-0.2l0,0l0,0c0.3-1.3,0.3-2.3,0.2-3.3c0-0.2,0.1-0.4,0.1-0.6c0.8-1.8,1-3.2,1.3-4.6l0,0
		c0,0,0,0,0,0c0,0,0,0,0,0l0.4,0c4.3-2.3,8.1-5.2,12.3-6.6c7-2.3,14.5-3.3,21.6-5.6c10.1-3.2,20-6.9,29.8-10.8
		c3.1-1.3,4.6-1.2,5.3,2.2c0.5-0.8,1-1.7,1.7-2.9l0.6-0.3c0.7,0,1.3-0.1,1.8-0.1l0.7,0.1c0,0,0,0.1,0,0.1c1.8,3.1,3,6.2,5.2,8.6
		c7.4,8.2,16,14.1,27.8,13.4c4.2-0.3,6.3,1.5,5.7,5.9l-0.3,0.2c-1.6-0.8-2.8-1.2-3.9-1.8c-5.6-2.8-11.4-3.3-17.5-0.8
		c-1.6,5.6-3.1,10.9-4.5,16.1c0,0,0,0,0,0l-0.3,0.2c0-0.1,0-0.1,0-0.2c-0.7,0.1-1.1,0.2-1.6,0.7c0,0,0,0,0,0c0.1-0.4,0-0.4-0.3-0.4
		c-1.1,1.1-1.9,2.1-2.6,3.5l-2,2.3c0,0,0,0-0.3,0.1c-3.7,0.3-4.8,2.4-4.7,5.5c0.1,2.8-0.1,5.6,0.1,8.7l-0.3,0.1l-3.6,0.4
		c0.7-4,1.4-7.7,2.1-11.4c-0.7-0.2-1.5-0.4-2.2-0.6c-4.6,6.2-9.4,12.3-8.5,21.1c1.6,2.2,2.9,4.4,4.1,6.5l0.4,1.5
		c0,1.1,0,2.1-0.1,3.4l-0.3,0.1c-1.1-0.5-2-0.5-2.9-0.5c0,0.1,0.1,0.2,0.1,0.5c-0.1-0.2,0.1,0.6,0.1,0.7c-0.3,2.4-0.6,4.2-1,6.3
		c-0.3,3.5-0.6,6.5-0.7,9.8c1.3,9.7,5.2,16.9,15.1,19.9c0.2,0,0.6-0.1,0.6-0.1c0,0,0,0,0-0.1l0.4,0.1c2.5-0.7,4.5-1.4,6.7-2.4
		c1.3-3.4,2.4-6.6,3.7-10.1c0.1-3.8,0.2-7.3,0.2-10.7c0,0.1-0.1,0.1-0.1,0.2v-0.2c0-0.1,0.1-0.1,0.1-0.2c0-0.2,0-0.7,0-0.7
		c0,0-0.1,0-0.1-0.1v-0.2c0,0,0.1,0,0.1,0c0-0.2,0-0.5-0.1-0.6v-0.1c0.1,0,0.1-0.1,0.1-0.3c0-0.4-0.1-0.6-0.1-0.8v-0.4
		c-0.2-0.6-0.4-1-0.7-1.4l-0.4-0.8c0.2-3.2,0.1-5.9-0.4-8.5h0c0.9-0.9,1.4-1.8,2.2-3.1c1.1-1.3,2-2.3,2.8-3.4l0.9-0.5
		c5.7,1.2,11.1,2.2,16.5,2.1c10.2-0.1,11.9,1.8,14.5,10.4c0.7-0.2,1-0.4,1.4-0.5l0,0.2c0,0,0,0.1,0,0.2c0,1.2,0,1.9,0,2.7
		c0.1,0.2,0.1,0.4,0.2,0.8c0,0.3,0,0.3,0.3,0.3l0.1,0.4c-4.5,13.5-8.7,26.7-12.6,39.8l-0.1,0.2l0,0c-0.1,0.2-0.1,0.4-0.2,0.5
		c0,0,0-0.1,0.1-0.1l-0.1,0.5c-1.5,4.9-2.6,9.3-3.9,13.6c-0.1,0.4-1,0.6-1.6,1.3l0,0.1c0-0.1,0-0.1,0-0.2c-0.1-0.5-0.2-0.6-0.6-0.5
		c-0.8,1.8-1.2,3.5-1.5,5.2l0,0c-0.1,0-0.2,0-0.2,0c-0.2,0-0.4,0.1-0.6,0.2l-2,0.4l0,0c-3.8-0.4-7.2-0.2-10.6-0.6
		c-7.9-1-15.7-3-23.6-3.4c-5.2-0.3-8.8-1-11.5-6.1c-3.9-7.3-8.8-14.2-13.5-21.1c-0.9-1.3-3.2-1.8-5-2.7c0,3.3,0,5.3,0,7.4
		c1.4-0.2,2.7-0.3,2.6-0.3c5.8,8.9,11.1,17.1,16.6,25.6c-0.5,0.3-1.6,0.5-2.1,1.2c-1,1.5-1.9,3.2-2.4,5c-0.1,0.5,1.7,2.1,2.3,2
		c1.6-0.5,3.8-1.2,4.4-2.5c2.5-5,6.9-4.4,11.1-4.1c10.9,0.9,21.8,2,32.8,3.1c0.1,0,0.3,0.1,0.3,0.1c0-0.1,0-0.3,0-0.5l0.3,0.6
		l1.3,0.5c0,0.7,0,1.1,0.3,1.5l-3.4,4.8c-3.3,4.5-6.3,8.9-9.4,13.3l0,0l-1,1.2c-1.8,2-3.4,3.9-5,6l-0.1,0.2l-1,1.1c0,0,0-0.1,0-0.1
		c-1.7,1.6-3.1,3.4-4.6,5.2l-2.2,2.5c-1,1.3-1.7,2.6-2.2,3.9l-0.6,1c-4.1,6.4-7.6,12.6-11,19c-0.3,0.6,0.3,1.8,0.8,2.8l-0.1,0.6
		c-1.8,2.1-3,3.9-4.6,5.9c-1.1,1.7-1.9,3.2-2.6,4.8c0.6,0.8,1.8,1.8,1.7,2.4c-1.8,6.7-3.8,13.3-5.6,20c-0.7,2.4-0.9,5-1.4,7.9
		l-0.1,0.5c-0.1,0-0.1,0-0.2,0c-0.1,0-0.3,0.1-0.4,0.1l-0.4-0.1c-0.4-0.3-0.7-0.6-1.1-0.7c-0.1,0-0.2,0.1-0.4,0.2l0,0l-0.5,0.3
		c-0.3,0.9-0.4,1.6-0.2,2.2l0,0.2c0,0.1,0,0.1,0,0.2c-0.2,1-0.1,1.5,0.1,2l0,0l0,0.3c0,0-0.1,0.1-0.1,0.1c-0.4,0.6-0.4,1.1,0.1,1.6
		l-0.3,0.1c-0.9-0.1-1.1,0-1.3,0c0,0,0,0,0,0.1l-0.1,0c0-0.1-0.1-0.1-0.2-0.1c-0.4,0-0.5,0.1-0.6,0.2l-0.5,0
		c-10.3,0-20,0.2-29.7,0.5c0,0,0.1,0,0.1,0.1l-0.1,0c-0.1,0-0.1-0.1-0.2-0.1c0,0-0.1,0-0.2,0l-0.9-0.2c-0.3-0.7-0.8-1.3-1.4-1.4
		c-5.6-1.4-11.2-2.5-16.7-4.1c-0.6-0.2-1.3-0.4-1.9-0.6l-12.1-4.5l-0.3-0.2c0.1,0,0.1-0.1,0.2-0.1c-4-2.6-7.9-5.1-11.8-7.2l-2.5-1.6
		c-5-5.6-10.3-10.3-14.7-15.6c-6.6-8.1-8.7-17.9-9.4-28.1c-0.1-1.9,0-3.8,0-5.6c-0.5,0-1,0-1.5-0.1c-14.5,27.2-16.3,56.2-13,85.8
		c4.4,1.2,7.6,2,10.7,2.9c0,0,0,0,0.1,0l0.1,0.4c1,0.7,1.9,1.3,2.8,1.3c13.1,0.1,26.2,0.1,39.3,0c0.9,0,1.9-0.9,2.3-1.4l0.1,0
		c0.1,0,0.2,0,0.3,0c-0.1,0-0.1,0-0.2,0l0.5-0.1c0.1,0,0.2,0,0.3,0c4.6-0.3,8.8-0.1,12.8-0.7c5.9-0.8,11.7-2.3,17.5-3.3
		c3.8-0.7,7.7-1,11.4-1.7c5.7-1.1,11.3-2.5,17.1-4l0,1.1c-0.3,1.8-0.7,3.2-0.9,4.5c-0.4,2.4-0.7,4.9-1,7.4c0,0.1,0.1,0.1,0.1,0.2
		c-0.6,1.9-1.2,3.8-1.9,6c-1.7,4.1-3.2,7.8-4.9,11.8c-0.1,0.8-0.1,1.2,0,2l-0.2,1.6c-0.2,0-0.6,0-0.8,0.3c-1.4,2.4-2.6,4.5-3.7,7
		c-0.1,0-0.2-0.1-0.3-0.1c-0.7,0.8-1.2,2.2-1.7,3.6l-0.2,0.2c-0.1,0-0.1,0-0.2-0.1c-1.9,1.8-3.5,3.5-5,5.5l-0.1,0.1
		c-0.1-0.3-0.1-0.4-0.4-0.3c-1.4,1.3-2.4,2.5-3.4,4.2c0,2.8,0,5.2,0.3,7.7c2.1,1.6,4,3.1,5.9,4.5l0,0.3c-3.4,3.1-2.9,4.8,2.3,7.8
		c1.1-1.6,2.2-3.1,3.3-5h5.6c1.9,0.1,3.7,0.1,5.5,0l0.4-0.7c0.8-0.1,1.2-0.2,1.8-0.6c1.4-1.9,2.6-3.4,3.7-5.1c0-0.2,0-0.5,0-0.8
		c-0.6-0.9-1.2-1.5-2.2-1.8l0.5-1.1c0.6-1.2,1.1-2,1.5-2.9c2.1-4.8,4.1-9.7,5.8-14.5l0-0.1l0.2-0.4c0.5-0.2,0.8-0.3,1.1-0.7
		c0.3-0.5,0.5-0.7,0.9-1.2c0.4-0.4,0.6-0.7,1-1.2c1.5-3,2.8-5.9,4.2-9.1l0.3-0.5c0.2,0,0.6-0.1,0.8-0.4c1.1-1.2,1.9-2.1,2.9-3.4
		c0-1.4,0-2.3-0.4-3.4l0.2-0.4c2.2-2.1,3.8-4,5.4-6.2c1.3-2.4,2.6-4.4,3.9-6.8c4.1-5.5,8.1-10.6,12.1-16.1
		c5.7-9.5,11.3-18.6,17-27.7l0.5-0.8c0,0,0,0.1,0,0.1c0.3-0.4,0.4-0.7,0.5-0.9l0.2-0.4c0,0,0,0,0,0c0.2-0.2,0.3-0.4,0.3-0.6l0.7-1.1
		c0.6,0.5,1,0.6,1.6,0.4c0.6-1.4,0.9-2.5,1.3-3.6c0,0-0.1-0.1-0.2-0.1l0.1,0c0.1,0.1,0.2,0.1,0.3,0.1c0.4-0.2,0.7-0.4,1-0.7l0.9-0.4
		c1.6,1.5,3.7,2,4.2,3.3c2.9,6.8,5.3,13.7,8,20.5c0.2,0.8,0.5,1.6,1,2.9c0.5,0.6,0.7,0.9,0.8,1.2c0.2,0.5,0.5,1,0.9,2.1
		c2,3.3,3.8,6,5.6,8.7c14.2,0.2,28.4,0.3,42.5,0.6c3.6,0.1,5.4,1.8,5.8,5.9c0.5,6.3,1.9,12.5,3,19.3c0,0.5,0,0.4,0,0.4
		c3.9,1.7,2.5,5.3,2.9,8.7c0,0.4,0,0.4,0,0.4c12.2,0.2,24.5,0.4,36.7,0.6c2.2,0,4.4-0.2,5.1,3.1c0.1,0,0.2,0,0.2,0l0.1,0.7
		c-0.1,1.5-0.1,2.6-0.2,4.1c0,5.1,0.1,9.7,0.1,14.3c0,3.3,1.4,5.1,4.7,5.2l1.6,1.3c0.1,0.1,0.2,0.2,0.3,0.3l0.6,0.8
		c0.9,0.2,1.9,0.3,2.7,0.3h0l0,0c0.3,0,0.5,0,0.8-0.1c0.2,0.1,0.4,0.1,0.6,0.2c1.1,0.8,1.6,1.5,2.2,1.6c6.5,0.1,13.1,0.9,19.3-0.3
		c3.6-0.7,8.6,1.6,11.1-3.3c0.1-0.3,0.2-0.6,0.3-1.1c0-0.1,0-0.1,0-0.2l0,0c0.7-0.5,1.4-1,2.6-2c1.1-1,1.7-1.7,2.5-2.6
		c0-0.5,0-0.9,0-1.2l1.5-1.7c1,0,1.8-0.4,2.7-1c0.9-1.3,1.5-2.3,2.2-3.3l0.2-0.1c0,0,0,0,0,0c0.1-0.1,0.2-0.2,0.3-0.3l0,0l0,0
		c0.1-0.1,0.1-0.2,0.1-0.3l0.3-0.6c1.7-1.1,2.9-2.4,4-3.7l0.1-0.1c0,0,0.1,0,0.1,0c0.4-0.2,0.5-0.4,0.5-0.8l0.3-0.4
		c2.2-1.4,3.9-3,5.5-4.6c6.3-6.7,13.5-11.4,23.2-11.1c5.3,0.2,10.7,0.5,16-0.2c3-0.4,6.1-2.3,8.6-4.3c3.1-2.5,5.8-5.6,8.3-8.7
		c6-7.7,11.7-15.7,17.8-23.4c1.3-1.7,3.6-3.3,5.6-3.5c6.5-0.9,13.2-0.9,19.7-1.9c2.5-0.4,5.1-2.3,7.1-4c1.8-1.5,3.1-3.8,4.4-5.9
		c2.1-3.7,4-7.4,6-11.2l1-1.4c0,0,0,0,0,0c0-0.1,0.1-0.2,0.1-0.3l0,0l0,0c1.9-3.6,3.6-7.1,5.1-10.8c0,0,0,0,0-0.1l0.3-0.1
		c0,0,0.1,0,0.1,0.1c0.1-0.1,0.2-0.2,0.2-0.3l0,0l0,0c1.2-1.3,2.1-2.8,3.2-3.9c1.8-1.9,3.6-4.4,5.9-5.2c4.1-1.3,8.7-1.2,12.9-2.3
		c3.6-1,8.6-0.2,9.9-5.3l0,0l0.4-0.8c0.8-1.1,1.6-2,2.1-3c2.7-6.6,5.3-13.3,7.6-19.9c0,0,0,0,0,0l0.3-0.7v0c4.4-6.9,7.2-14,5.3-21.7
		c-1.8-7.1-4.3-14-6.6-21l-0.5-2.4c-0.4-3.4-0.9-6.6-1.4-9.6L597.9,1111.9C597.9,1111.9,597.9,1111.9,597.9,1111.9z M223,1024.2
		C223,1024.2,223,1024.2,223,1024.2C223,1024.2,223,1024.2,223,1024.2L223,1024.2z M556.9,973.6c0,0,0,0.1,0,0.1
		c0.5,0.3,0.8,0.2,1.2-0.2c0-0.1,0.1-0.2,0.1-0.3l0.1,0c0,0,0,0,0,0c2.1,0.5,4.1,1.1,6.5,1.6l0.6,0c0.2,0,0.6-0.1,0.5-0.2
		c0.6,0.4,1.2,0.6,2,1c3.8,0.2,7.5,0.2,11.5,0.2c0.4,0,0.5,0,0.5,0l0.4,0c1.8-0.3,3.2-0.6,4.7-1.1c0-0.2,0-0.6-0.4-0.7
		c1.9-0.8,3.4-1.6,5.2-2.3c0,0,0.1,0,0.1,0l0.4,0.8h0c2.6,6.2,5.2,12.5,7.7,18.7c1.4,3.3,3.1,6.5,4,10c0.5,1.7-0.3,3.8-0.7,5.7
		c-1.4,6.7-2.7,13.4-4.3,20c-1,4.2-2.7,8.2-4.1,12.5c-5.1,0.7-10,1.5-15.4,2.2l-1-1.9c-0.2-1-0.3-1.8-0.5-2.7c0-0.7-0.1-1.5-0.1-2.6
		c-0.3-3.3-0.8-6.1-1.1-9c-0.2-1.9-0.2-3.8-0.6-6.1l-0.3-0.8c0,0,0,0,0,0c-1-6.5-2-12.5-3-18.5c-0.4-2.3-1.5-2.8-3-0.1l-0.4,0.2
		c-1.7,0.3-3,1-4.4,1.9c-0.1-0.4-0.2-0.5-1-0.6c-3.6,2.9-6.7,5.8-9.8,8.8c-4.2-5.4,0.3-10.2,0.9-15.1c0.8-5.5,2.9-10.9,4.2-16.4
		c0.3-1.2-0.3-2.5-0.6-4.5C556.9,974,556.9,973.8,556.9,973.6L556.9,973.6z M543.3,1019.5c-3,3.3-6.1,3.9-9.6,0.6
		c-1-1-2.4-1.6-3.7-2l-0.1-0.1c0-0.1,0-0.1,0-0.2c-0.6-0.6-1.1-0.9-1.6-0.9l-0.8-0.5l-0.2-0.2c-0.9-0.9-1.8-1.7-2.9-2.7
		c0.8-0.4,1.4-0.6,1.9-1.2c0,0,0,0,0,0l0.3-0.2c7.8-0.4,15.3-0.9,23.2-1.3c0.8,0.1,1.2,0.1,1.9,0.1c0.1,0,0.1,0,0.1-0.1l-0.2,0.3
		c-0.7-0.2-1.3,1.2-1.2,1.6l-2.5,3.2c-0.4,0.4-0.6,0.7-0.8,1l-0.3,0.3c0,0,0-0.1,0-0.1C545.3,1018,544.1,1018.6,543.3,1019.5z
		 M548.1,968.2c-0.1,0.4-0.1,0.6,0,1.1c1.4,0.7,2.7,1.1,3.9,1.1c3,1.2,3.8,3,3,6c-2.7,9.9-5.1,19.8-7.9,30.5
		c-7.5,0.4-15.6,0.9-23.8,1.4c-3,0.2-4.7-0.9-6.1-3.8c-1.8-3.8-4.5-7.1-7.2-10.7l-9.1-16.2c-1-5.4-2.8-10.5-2.9-15.5
		c-0.1-5.9,1.1-11.9,2-17.8c0.2-1.3,1.6-2.4,2.4-3.5c0.5-0.4,1.1-0.7,2.1-1.4c2.1-1.2,3.7-2.2,5.3-3.2l1-0.3
		c1.2-0.4,2.1-0.9,2.5-1.4l0.5-0.4l0.3,0c0,0,0,0,0.1,0c0.8,0,1.2,0,1.8-0.2l0.1,0.2c0,0.1,0,0.1,0,0.2c0.4,1.2,0.9,1.8,1.5,2.1
		c0-0.1,0-0.2,0-0.3l0,0l0.1,0.1c0,0.1,0,0.3,0,0.4c0.2,1,0.2,1.3,0.2,1.9c0.2,1.1,0.1,1.9,0.1,2.7c4.9,6.1,9.9,12.1,14.9,18.5
		c0.8,0.3,1.5,0.4,2.5,0c0,0,0,0,0,0l0.4,0c3.1,2.5,6.1,4.6,9.1,7c0.8,0.6,1.5,0.9,2.4,1.2L548.1,968.2z M459.6,999.8
		c-0.1,0.4-0.3,0.8-0.4,1.2h0C459.3,1000.6,459.5,1000.2,459.6,999.8c0.4-0.3,0.5-0.6,0.5-1.1l0.3-0.3c0.4-0.1,0.5-0.2,0.6-0.6
		c-0.3-0.7-0.6-1.2-0.9-1.3c1.3-6.2,2.2-12.1,3.8-17.9c0.4-1.3,2.9-2.7,4.5-2.8c8.8-0.3,17.6-0.3,26.4,0c1.4,0,2.8,2,4.8,3.1
		l0.9,1.4c1.2,2.6,2.6,5.1,4.2,8.1c1.3,1.9,2.4,3.2,3.7,4.6c0.5,1.4,1,2.7,1.6,4.1l0.1,0.3l0,0c0.9,2.3,1.9,4.7,2.9,7.3
		c0.1,0.1,0.1,0.2,0.2,0.3l-1.1,0c-0.1,0-0.2,0-0.3,0l0,0l-1.8,0c-1,0.1-2.1,0.2-3.6,0.3c0,0,0,0,0,0l-0.5,0
		c-3.4-1.2-6.7-3.1-10.2-3.5c-9.3-1-18.6-1.3-28.4-1.8l-0.9,0.1c0,0,0,0,0-0.1c-1.8-0.1-3.2-0.1-4.6,0.4l-0.4,0.1c0-0.1,0-0.1,0-0.2
		C460.9,999.8,460.4,999.8,459.6,999.8z M440.5,928.6c3.4,7.1,6.7,14.2,13.2,19.2c1,0.8,2.5,1.5,3.8,1.4c2.5-0.1,5-0.8,7.5-1.6
		c0,0.1,0.1,0.2,0.1,0.3c2.6,2.1,4.8,4.3,7.5,4.9c7.5,1.7,11.5-3.1,14.5-8.7c0.5,0,0.5,0,0.4,0c0,0,0.1,0,0.1,0l0.4,0
		c3-0.5,5.6-1,7.8-1.5c0,0,0,0,0,0c0.9,0.8,2,1.6,1.9,2.2c-0.3,3.2-0.9,6.4-1.4,9.6c-0.7,4.7-0.8,9.5-2.2,14
		c-0.6,1.7-4.1,3.3-6.4,3.5c-7.6,0.4-15.3,0.4-23,0c-1.9-0.1-3.8-1.8-6.1-2.8l-5.9-8.5c-3.8-6.7-7.9-12.9-11.9-19.2
		c-3.7-5.8-9.5-11.1-5.4-18.9l0.4-0.8l0.4,0.2c1,0.6,1.7,1,2.5,1.4c0.1-0.1,0.2-0.3,0.2-0.3l0.1,0.1c-0.1,0.1-0.2,0.2-0.3,0.5
		C439.4,925.6,439.9,927.1,440.5,928.6z M462.2,1178.1c1.9,0,3.3,0.1,5.2,0.2c1.1-0.2,1.8-0.3,2.6-0.4c0-0.4,0.1-0.7,0.2-1.4
		c-0.1,0-0.1-0.1-0.2-0.1l0.7-0.2c4.1-0.1,7.7-0.2,11.4-0.6c6.9-0.7,13.8-1.8,20.7-2.7c1.5-0.2,3-0.1,4.9,0l0,0
		c0.4,0.2,0.4,0.1,0.4,0.1l0.4-0.1c0,0.1,0,0.2,0,0.3c4.8-1.6,9.1-3.5,13.6-5.5c-0.9,3.1-1.8,6.1-2.6,9.3l0,0l-0.8,2.2
		c-2.4,3.7-4.5,7.3-6.7,11.3c-0.2,0.6-0.4,1.3-0.5,1.8l0,0l-3.8,7.5c-1.6,1.5-3.1,3.2-4.1,5.2c-1.5,3.1-3.2,4-6.4,4.2
		c-5.9,0.3-11.8,0.8-17.5,1.8c-6.2,1.1-9.7-1.6-12-6.9l-0.6-1.5c-0.3-2.3-0.5-4.2-0.9-6.1c-1.4-6.1-2.9-12.1-4.3-18.2c0,0,0,0-0.1,0
		L462.2,1178.1z M564.5,845.9L564.5,845.9c0.1-0.1,0.1-0.1,0.1-0.1C564.6,845.8,564.6,845.8,564.5,845.9z M390.5,759.6
		c6.2-5.5,9.6-12,11.9-19.2l0.5-0.8c0-0.1,0.1-0.1,0.1-0.1l0.3-0.3c0.4-1.3,0.6-2.3,0.5-3l0-0.3c-0.2-1-0.7-1.5-1.4-1.8l0-0.4
		c0.1-0.3,0.2-0.5,0.2-0.8l0.4-1.4c5.2,0.5,3.6-3.2,4-5.8c-1.3-0.7-2.6-1.1-3.9-1.5l0-0.1l0-0.1c0,0,0-0.1,0-0.2
		c2.3-1.8,4.6-3.3,6.5-4.5c1.1,1.2,2.3,2.8,2.5,2.7c3.5-2.2,8-4,10.1-7.2c2.5-3.9,1.2-8.7-2.8-12.3c-0.5,3.1-0.5,6.1-0.6,9.2
		c-0.1,3.9-1.3,5.3-4.1,6.2c0.1-2.9,0.3-6.2,0.4-9.5l0.3-0.3c1.5-4.3-0.2-7.4-2.9-10.1l0-0.3c-0.1-0.7-0.2-1.2-0.3-1.6l-0.1-0.2
		c-0.4-0.4-0.7-0.6-0.9-0.5c0,0,0,0,0.1,0.1l-0.1,0l-0.1-0.3l-0.1-0.3c-0.7-0.8-1.3-1.2-1.9-1.4c0,0,0.1,0.1,0.1,0.1l-0.1-0.1l0-0.3
		c0,0,0,0,0,0c0,0,0,0,0,0l0-0.3c-0.3-0.7-0.6-1.1-0.9-1.3c0-0.1-0.1-0.2-0.1-0.3c0-0.3-0.1-0.5-0.1-0.7l0,0l0.3-0.4
		c2.5,1.6,4.7,3.2,6.8,4.5c5,1.4,9.7,7.3,10.1,13.4c0.2,3.8,0.7,7.7-3.2,10.7l-0.2,0.3c-2.2,1.5-4.5,2.7-6.4,4.5
		c-1.1,1.1-2.5,3.6-2,4.4c3.1,5.2,5.1,10.9,11,14.6c6.4,4.1,12.6,8.6,20,10.1c5.6,1.1,11.6,0.8,17.4,0.1c5.8-0.7,11.4-2.6,17.1-3.8
		c4.1-0.9,8.3-1.4,12.8-2.5l0.6,0.1c0.2,0.2,0.5,0.4,0.6,0.4c6.5,1.6,12.7,3.4,19.1,4.4c8.2,1.3,16.5,2.2,24.8,2.5
		c4.3,0.2,8.6-1.2,13-1.8c1-0.1,2.1,0.5,3.4,1.1c3.2,2.5,6.3,4.6,9.7,6.8c0,0,0,0,0,0l0.2,0.4c0.3,1.6,0.8,3,1.3,4.3l0.2,0.7
		c0,0-0.1,0-0.1,0c0.1,0.4,0.3,0.7,0.4,1.1l0,0.1l0,0c1.1,3,2.3,5.7,3.4,8.4c0.8,4.3,1.8,8.5,2.4,12.8c0.2,1.7-0.4,3.5-0.7,5.7
		c0,1.5,0,2.9,0,4.3l-0.1,3.4c0,0,0,0-0.1,0c-0.3,0.3-0.3,0.5,0.1,0.5c-0.1,0.2,0.1,0.3,0.3,0.3c0,0,0,0,0-0.1l0.1,0.1
		c-0.2,0.8-0.4,1.7-0.7,2.8c-3.9,8.5-10.3,13-20,13.8c-1.5,0.7-2.4,1.3-3.3,1.4c-6,1.1-11.2,3.4-14.7,8.7l-1.1,0.5
		c-5.6-5.8-10.9-11.6-16.1-17.5c-2.5-2.8-4.7-5.9-7-8.9c-4-5.4-7.7-11-12-16.2c-2.9-3.6-6.6-6.6-9.8-10c-1.1-1.2-1.6-3.1-2.7-4.7
		c-1.4-0.7-2.6-1.3-3.7-1.9l-0.2-0.3c0.1,0,0.1,0,0.2-0.1c-0.2-1.5-0.5-2.7-0.8-3.9c-0.1,0-0.2,0-0.4,0l0.1-0.2
		c-3-1.3-4.7-5.3-8.6-2.7c0,0,0,0-0.1,0.1l-0.3-0.2c-5.6-0.7-10.9-0.9-15.9-0.8l-0.7,0c-1.4,0-2.5,0.1-3.5,0.2l-0.9,0.1
		c-0.2,0-0.4-1-0.6-1.6c-0.8,0.5-1.6,0.9-2.1,1.7l0.2,0.3c-0.2-0.1-0.4-0.1-0.6-0.2c-1.1-0.7-2-1.3-2.9-1.9l-2.2-1.6
		c-6.2-3.8-13-0.7-19.7-1.1c-0.5,0-1.2,1.6-1.7,2.8l-0.5,0.1c-4.2-1-7.9-1.6-12.1-2.2c-5.2,0.7-9.9,1.4-14.6,2.1l-0.1-0.2
		c0,0,0-0.1,0.1-0.1c-0.1-0.5-0.1-0.7-0.5-0.9l-0.1-0.2C390.4,759.7,390.5,759.7,390.5,759.6z M386.9,884.9l1.2-0.4
		c1.7,0.7,3.5,1.1,5.6,1.4l2.4,0.2c4.3,2.2,8.5,4.1,12.7,5.7c-0.4-0.3-0.8-0.5-1.2-0.8l0.4,0.2c0.4,0.2,0.7,0.5,1.1,0.7
		c0.5,0.3,0.7,0.2,0.8,0.1l0.3,0c0,0-0.1,0.1-0.1,0.1c0.3,0.2,0.5,0.3,1,0.2c1.5,1.6,3.5,3,5.3,4.7c4.5,4.3,9,8.8,13.5,13.6
		c1.2,2.3,2.3,4.3,3.8,6.4l0.3,0.1c0,0-0.1,0.2-0.1,0.4l-0.2,0.6c-1.6,3.5-3.1,7.3-5,11.9c-8.8,0-18.3-0.2-27.8,0.1
		c-4.5,0.2-8.3-0.8-11.6-4.1l-1.2-3.5l0-0.2c0,0,0-0.1,0-0.1c0.3-0.1,0.7-0.4,0.7-0.6c-0.3-2.4-0.8-4.6-0.9-6.9
		c-0.4-7.7-0.6-15.3-1.1-23.3c-0.1-0.1-0.2-0.3-0.2-0.4C386.8,889.1,386.8,887,386.9,884.9z M383.2,948.6c0.5-5.2,0.9-9.7,1-14.2
		l0.7-0.4c1.2-1.7,2.2-3.4,3-5.3l0.8-1.4c0,0.1,0,0.2,0.1,0.3c1.9,3,3.4,5.3,4.2,6.5c-1.4,7.4-2.5,13.9-3.7,20.4
		c0.8,0.3,1.7,0.5,2.5,0.8c0.7-1.5,1.7-2.9,2.1-4.5c0.9-4.3,1.3-8.7,2.3-13c1-3.9,9-5.2,14.7-3.6c3.5,1,7.5,0.6,11.2,0.1
		c6.3-0.8,10.2-1,13.5,4.8c3.1,5.5,7,10.6,10.9,15.6l0,0l4.7,6.3l0.2,0.2c-0.1,0-0.1,0.1-0.2,0.1c1,1.3,2.1,2.5,3.1,3.6l0.1,0.1
		l1.8,2.2c-0.1,0-0.2,0-0.3,0.1c0.2,0.3,0.4,0.4,0.7,0.4l0.4,0.5c0,0-0.1,0-0.1,0c0.1,0.2,0.3,0.3,0.4,0.4l1.1,1.4
		c0.2,4.4,1,8.8,0.7,13.1c-0.3,4.5-2.1,8.9-3.2,13.8l-1.9,0.8c-2.1,0.6-4,1.3-6,2c-1.2,0.6-2.3,1.2-3.7,2c-0.3,0.2-0.3,0.7-0.2,1
		c0-0.2,0-0.7-0.4-0.7c-4.2,2.8-6.5-0.6-9.6-1.9c-8.6-3.7-17.4-6.8-26.1-9.8c0,0.1,0,0.1,0,0.2l-0.4-0.3c-1.4-1.2-4.9,1.3-3.9-3
		c-3.3-0.7-6.3-1.1-9.2-1.6l-0.5-0.4c-0.2-1-0.1-1.8-0.5-2.2c-3.8-3.8-5.5-7.8-3.4-13.3c1-2.7,0.2-6.1,0.2-9.2c-0.7,0-1.4,0-2.1-0.1
		c-0.7,3.2-1.3,6.5-2,10.2c0,0.1,0,0.2,0,0.2l-0.2-0.2c0,0,0-0.1,0-0.1c-0.2-0.4-0.6-0.4-0.6-0.4l-0.1-2.1c-0.3-6.8,1.6-13.3-2-18.9
		C383.2,948.9,383.2,948.8,383.2,948.6z M388.1,1195.2c-8.3,4.3-16.9,8.1-25.4,12.1c-3.5,1.7-7.1,3.2-10.8,5.1c-1-2.1-2.3-4-3.4-5.9
		c-3.5-6.7-6.7-13.6-10.5-20.1c-2.5-4.3-2.2-7.6,1.7-10.7c1.4-1.1,2.6-2.6,4.1-4.1c0.1-0.1,0.1-0.2,0.2-0.3l0.4,0.3
		c2.4,2.3,4.5,4.3,6.7,6.2c0.8-0.6,1.5-1.1,2.5-2.1l0.3-0.1c0,0,0,0,0,0.1c1.4,1.5,2.7,2.6,4,3.7c0.4-0.2,0.9-0.4,1.3-0.6
		c-0.5-2.1-1.3-4.3-1.4-6.5c-0.1-1.6,0.6-3.2,1.3-4.8l0.6,0c0.1,0,0.1,0.1,0.2,0.1c2.4,0.6,4.6,0.9,6.6,1.6c2.6,1,5,3.1,7.7,3.6
		c7.7,1.3,15.5,2.1,23.3,3.1c0.3,0,0.4,1.2,0.8,2.2c2.8,0.8,5.3,1.3,7.9,1.8c0,0,0-0.1,0-0.1l0.2,0.2c1,0.4,1.8,0.7,3,0.9
		c0,0,0.1-0.1,0.1-0.1l0.2,0.1c-0.1,0.1-0.2,0.2-0.4,0.3c-1.4,1.4-2.4,2.5-3.2,3.9l-0.3,0c0,0,0,0-0.1,0c-0.1,0-0.1,0.1-0.2,0.1l0,0
		l0,0C399.4,1188.5,393.9,1192.2,388.1,1195.2z M404.9,1198.7c-2.3,3.9-5,7.7-6.6,11.9c-3.4,8.7-10.6,7.4-17.3,7.1
		c-9.3-0.4-18.6-1.1-28.4-1.8l-0.5-1.3l0-0.2c17.9-4.2,35.7-7.8,52.5-15.8L404.9,1198.7z M388.7,1071c0.1,0,0.1,0,0.1,0l0.2,0.2l0,0
		c0,0.1,0,0.2,0,0.3c0.1,0.4,0.2,0.7,0.3,1l0,1c-0.2,9-0.6,17.6-0.2,26.2c0.2,4.6,1.4,9.3,2.7,13.8c2,6.7,4.5,13.2,7,19.8
		c-0.4,0.2-0.5,0.4-0.7,1.3c0.7,2.7,1.5,4.6,2.6,6.7l0.1,0.1c-0.2,0-0.3,0-0.6,0c-9.1,0.1-17.4,0.2-25.8,0.5v0l-1.4-0.1
		c-1.8-0.8-3.6-1.9-5.4-1.8c-5.9,0.4-8.7-3.4-11.1-7.7c-5.3-9.8-10.7-19.5-15.4-29.6c-0.9-2,0.9-5.7,2.1-8.3
		c4.4-9.2,9.3-18.1,13.6-27.3c1.3-2.8,2.2-4.1,5.7-3.3c3.4,0.8,7.1,0.4,11.1,0.4l1.4,0.1c4.1,0.3,8.2,0.6,12.7,0.9
		c0.2,0,0.4-0.1,0.5-0.1l-0.1,0.4c-0.6,1.4-1.3,2.5-1.9,3.6C387,1069.6,387.7,1070.2,388.7,1071z M407,1162.7
		c-0.2,0.3-0.3,0.8-0.3,1l-1.1,0.3c-0.6,0-1.3,0.2-2.1,0.5c0,0,0,0,0,0l-0.4,0.1c-5.7-0.4-11.4-0.1-17-0.7c-2.9-0.3-5.7-0.8-8.5-1.3
		l-16.5-3.3c-0.1-0.4,0-0.3,0-0.3c0,0-0.1,0-0.1,0l0,0c0,0,0.1,0,0.1,0c2-2.8,4-5.6,5.8-8.7l0.2-0.4c1.7-1.3,3-2.6,4.1-4.2l0,0
		l0.5-0.6c0.3-0.1,0.6-0.2,0.9-0.3l1-0.3c0,0,0,0,0,0.1c10,0.1,19.6,0.1,29.2-0.2l0.2,0.2c0,0,0,0,0,0.1c1.1,1.2,1.9,1.9,3.2,2.5
		c1.3,4.4,3.1,8.8,4.8,13.5l-1.1,0.8C409,1161.7,408.1,1162.1,407,1162.7z M375.9,1002.9C375.9,1002.8,375.9,1002.8,375.9,1002.9
		c0.1-0.5,0.2-0.7,0-1.2l0.2-0.1c0,0,0,0,0,0c0.9-0.1,1.4-0.3,1.7-0.9l0,0c1.3,7.1,3.4,13.9,3.4,20.7c0,9.8,6.1,17.6,6.9,27.6
		c1.3,3.5,2.5,6.5,1.8,9.6l-1,2.5c-0.8-0.1-1.1-0.1-1.8-0.2c-0.3-0.1-0.6,0-0.8,0c0.2,0-5.2-0.2-9-0.4l-1.9-0.3l0,0
		c-2.3-0.5-4.8-0.7-7.4-1c-3.5-0.3-7-0.5-10.8-1l-0.9-2.5c1.3-2.7,2.5-5.2,3.7-7.6c0-0.5-0.1-0.9-0.1-1.7l0.3-0.5c0,0,0,0,0,0
		c0.2-0.2,0.3-0.5,0.4-0.7l0,0l0,0c2.3-3.7,4.5-7.2,6.3-10.9c4.8-9.8,11-19.2,8.7-31V1002.9z M331,675l0.4,0.1
		c6.2-1.3,8.4-4.2,7.9-11l0-0.3c0.4-0.8,0.5-1.2,0.5-2.1c1.1-1.1,2.6-2.6,3.1-4.3c0.5-2,0.1-4.3-0.1-7.2c0-0.1-0.1-0.2-0.1-0.2
		l0.1-0.2c0.9,1.4,1.5,2.5,2.1,4c9.6-2.4,16.8,2.9,24.4,7.2c1.4,0.8,2.8,1.4,4.7,2.1l0.4,0c-1.4,1.4-2.8,2.9-4.3,4.6
		c0.2,0.4,0.5,0.5,0.8,1l0,0.6c-0.8,2.3-1.4,4.2-2,6.2l-0.3,0.5c-0.6,1.4-1.1,2.5-1.5,3.7l-0.3,0.2c-0.8,0.6-1.3,1-1.9,1.5l-0.2-0.2
		c0.2-1.7,0.3-2.8,0-3.8l0,0c0.1-0.1,0.2-0.1,0.3-0.2c1.1-1.1,1.5-1.8,1.9-2.6c-0.6-0.1-1.3-0.3-1.9-0.4l-0.3-0.3
		c-7.2-4.3-14.3-5.6-21.8-1.3l-0.4,0c-0.6-0.3-1-0.3-1.4-0.2l0,0h-0.4c-0.6,0.1-0.8,0.4-0.5,0.7l0,0.1c-0.1,0-0.1,0.1-0.2,0.1
		c-4,4.1-7.5,8-11,11.8c-0.1,0.1-0.2,0.2-0.3,0.2l-0.2-0.1c0.1-0.1,0.1-0.1,0.2-0.2c-0.2,0-0.3,0-0.5,0l-0.8-0.4
		C328.9,681.1,329.9,678,331,675z M324.2,1100.6c0.1-0.1,0.2-0.2,0.3-0.3c4.9-5.7,9.8-10.9,14.2-16.5c1.8-2.3,2.8-5.3,3.8-8l0.9-0.8
		c0,0,0,0,0,0c0.1-0.1,0.2-0.2,0.3-0.3l0,0l0,0c4.1-3.8,7.2-7.8,8.2-13.2l0.3-0.5c0.3-0.1,0.5-0.1,0.6-0.3l0.3-0.2l0.8,0.7
		c-0.1,2,0,4.1-0.8,5.7c-4.9,10.2-10,20.3-15.4,30.3c-0.9,1.7-3.2,3.1-5.1,3.5c-2.3,0.6-5,0.1-7.9-0.1c-0.2,0-0.4,0-0.6,0
		L324.2,1100.6L324.2,1100.6z M279,1161.7l0.3-0.7c1.1-0.8,2-1.5,2.8-2.1c2.6-7.9,4-16.2,8.6-23.5l0.9-1.1c0.6-0.5,1-1.1,1.5-1.8
		c0,0,0-0.1,0-0.1l0.3-0.4c0,0,0,0,0,0.1c0-0.1,0.1-0.1,0.1-0.2l0,0l2-3.2l0.5-1.6c3.6-3.5,7.2-6.9,10.8-10.4
		c1.6-1.5,3.1-3.1,5.1-4.7c2.6-2.5,4.9-4.9,7.3-7.7l0.2-0.3l2.6-0.9c2.4,0.6,4.8,2,7,1.7c6.5-0.9,10.3,1.2,12.6,7.7
		c2.2,6.1,5.5,11.9,8.7,17.6c1.7,3,4.2,5.6,6.5,8.7c0,0.1,0,0.2,0,0.4c-0.1,0.1-0.3,0.1-0.6,0.2c-0.2,0-0.4,0-0.6,0.1l-0.1,0
		c-3.2-0.6-6-1-8.9-1.2c-1.6,0.7-3.1,1.2-4.2,1.7l-0.3,0c0,0-0.1,0-0.1,0c-6.9-0.7-13-1.3-19.1-1.5c-1.3-0.2-2.5,0-5.2,0.4
		c5.1,6.4,9.5,12,13.9,17.5c0.9,1.1,1.6,2.4,2.5,4.3c2.2,2.8,4.4,5,6.5,7.1l0,0.1c0,0,0,0,0,0c0,0-0.1,0-0.1,0c0,0,0,0,0.1,0l0,0
		c0,0,0,0,0.2,0.1c0.1,0,0.1,0,0.2,0.1l1.1,0.7c-2.9,2.7-5.4,5.6-8.1,8.2c-1.2,1.1-3,2.5-4.4,2.4c-12.6-0.8-25.1-2.7-37.7-2.7
		c-7.4,0-9.6-4.2-12.4-9.3l0,0l-0.5-1.6C278.9,1164.1,278.9,1162.9,279,1161.7z M238.9,908.2c-10.1,7.1-18.2,15.6-23.3,26.8
		c-1.2,2.6-1.5,5.5-1.9,8.2c0,0,0,0,0,0l0,0.3c0,0,0,0,0,0c-0.6,1.1-0.8,1.7-1,2.3c-0.2,1.1-0.4,2.1-1,3.7c-0.6,1.1-0.7,1.7-0.9,2.3
		c0,0.3,0.1,0.6,0,1.7c-0.1,3.4-0.1,5.9,0.1,8.8c0,0,0,0.2,0,0.6c-0.1-0.1-0.1-0.2-0.2-0.3c-0.7,3.3-0.8,6.4-0.8,9.9
		c0,0-0.1,0-0.1,0c-0.3-0.2-0.4-0.3-0.5,0c0,0-0.1,0-0.1,0c-0.4-0.4-0.9-0.5-1.7-0.3l-0.6-2.6c0.1-3.5,0.1-6.5-0.3-9.5l0,0
		c0.5-0.5,0.6-1,0.6-1.8l0-0.5c0-0.1,0-0.4-0.2-0.4c0.3-1.1,0.3-2.3,0.2-3.9c-2.4,0.2-4.7,1.3-7,1.4c-6.6,0.1-13.1-0.1-20-0.6
		l-0.3-0.7c0-0.5,0-0.8,0-1.2l0-1.3l9.5-18.4c0.1-0.1,0.1-0.2,0.2-0.3c0,0,0,0,0,0l0.2-0.3c2.8-3.3,5.3-6.6,8-10.1l0.4,0
		c0,0,0,0.1-0.1,0.1c0.3,0.9,0.5,1.6,0.8,2.2c0.4-0.7,0.8-1.4,1.5-2.1c0,0,0-0.1,0-0.1l0.7,0c7.6-0.9,14.1-2.6,19.5-8
		c6.3-6.3,13.3-11.8,19.9-17.8c2-1.8,2.2-5.7,5.8-5.7c0.4,0.1,0.7,0.2,1.1,0.4c0.2,1.2,0.3,1.6,0.7,2c0.7,0,1.3,0,1.8-0.1l0.4,0.1
		c0,0.1-0.1,0.1-0.1,0.2c0.9,0.3,1.7,0.4,2.5,0.6l1.9,0.6C248.9,899.2,244.3,904.4,238.9,908.2z M246.1,1055.6
		c-4.7-0.1-9.3-1.1-14.5-1.7l-0.2-1c2.5-2.1,4.6-4.1,6.8-6.1c-0.5-0.5-1.1-1-1.9-1.6c-0.1,0-0.3,0.1-0.4,0.1l0.1-0.2
		c0.2-0.5,0.5-1,0.5-1.7l0.3-0.3c6.6-2.5,12.8-5,19-7.6c2.1-0.9,4.2-1.7,6.7-2.5c0.1,0,0.1,0,0.2,0l0.2,0l0.4,0.1c0,0-0.1,0-0.1,0
		c1.4,0.3,2.5,0.6,3.6,0.8c0,0,0,0,0,0l0,0l0,0c0,0,0,0,0,0c-3.9,6.6-7.3,13.6-11.9,19.7C253.7,1055.6,249.1,1055.7,246.1,1055.6z
		 M264.1,1062.5l-1.3,0.2c-1.4-2.5-2.8-4.8-4.4-7.2c2.8-4,5.8-8.4,9.2-12.9l0.8-0.7c-1,4.2-2.2,8.3-3.1,12.5
		C264.8,1057,264.6,1059.6,264.1,1062.5z M256,1208c-0.1,0.2-0.2,0.5-0.3,0.7v-0.6l0,0c0.3-0.1,0.3,0,0.3-0.4
		c5.7-11.4,11.4-22.5,17.2-33.5c0.8-1.6,1.8-3,2.7-4.8c6.9,10.4,6.7,10.2-1.7,19.1c-4.9,5.2-9.1,11.2-13.7,16.7
		c-1,1.2-2.5,2.1-4.2,2.9C256,1208,256,1208,256,1208z M321.3,1251.7L321.3,1251.7l-0.3,0.3c-2,0.1-3.6,0.3-5.2,0.3
		c-12.3,0.2-24.6,0.3-36.9,0.6c-3.5,0.1-5.9-0.8-7.4-4.4c-4.4-10.5-9.4-20.9-13.5-31.5c-0.7-2,1.3-5.7,3.1-7.8
		c7.2-8.4,15.6-16,22.1-25c4.1-5.6,7.5-5,12.5-2.8c1.3,0.6,2.9,0.2,4.4,0.3c9.9,0.5,19.8,0.8,29.7,1.6c1.5,0.1,3.4,1.8,4.3,3.3
		c4.8,8.5,9.4,17.2,14.2,26.2l0,0l0.1,0.7c-0.1,0.2-0.4,0.6-0.4,0.6c0,0,0,0.1,0,0.1l-0.4-0.1c-8.2,1.8-16,3.7-23.7,5.5
		c0.1,0.6,0.1,1.2,0.2,1.8c1.3,0.2,2.7,0.7,3.9,0.4c6.6-1.7,13.2-3.7,19.8-5.9l0,0l0.6-0.1c0.8,0.4,1.2,0.5,1.6,0.5l0.1,0.1
		c0,0-0.1,0.1-0.1,0.1c0,0.2,0.4,0.5,0.6,0.5l0.4-0.1c-0.1,0.1-0.3,0.3-0.5,0.5c-2.7,3.7-4.9,7.2-7.6,10.2
		c-5.4,5.7-11.1,11-16.6,16.6c-0.9,0.9-1.3,2.2-1.7,3.5l-1,1.2c0,0,0,0,0-0.1C322.6,1249.6,321.8,1250.6,321.3,1251.7z
		 M365.4,1287.2c-10.8,0.2-21.7,0-32.5,0.1c-3.6,0-4.7-1.5-5.2-5c-1.1-8.2-2.9-16.3-4.4-24.5c-0.3-1.6-0.2-3.2-0.2-5.2c0,0,0,0,0,0
		l0.2-0.6c0,0,0.1,0,0.1,0c0.1-0.4,0.2-0.8,0.2-1.1l0.6-1.8c9.5-9,18.6-18,27.9-26.8c1.2-1.2,3-2.3,4.6-2.4
		c11.3-0.1,22.6-0.2,33.9,0.2c1.6,0.1,3.8,2.3,4.4,4.1c1.3,3.5,1.9,7.2,2.3,10.9c1,7.8,5.1,15.4,2,23.5l-2.9,1.8l0,0
		c-1,0.5-2,1.1-2.8,1.8c-4,3.7-7.8,7.8-11.7,11.6c-3.7,3.6-7.2,7.4-11.1,10.8C369.5,1286,367.3,1287.2,365.4,1287.2z M501.5,1253
		c-6.4,8.7-13.2,17.1-19.9,25.6c-0.7,0.8-1.9,1.6-3,1.6c-10,0.8-20,1.4-29.6,2.1c-1.3-4.2-2.3-7.8-3.5-11.3c-0.2-0.5-1.6-0.5-3.1-1
		c3.1,7.9,2.6,14.1-4.3,19.2c-3.6,2.6-6.2,6.5-9.4,10.1l-0.2,0.3c0,0,0,0,0,0c-0.3,0.2-0.5,0.4-0.6,1.1l-0.4,0.4
		c-1.4,0.9-2.5,2-3.8,3.3l-0.2,0.3c-0.2,0.1-0.5,0.3-0.5,1l-0.1,0.2c-1.8,1.3-3.3,2.9-4.5,4.9l-0.6,0.3c-0.3,0.2-0.4,0.4-0.5,0.6
		l-0.4,0.5c-1.4,0.9-2.7,1.9-4.4,2.9c-0.3,0.1-0.4,0.6-0.4,1.2c0,0.1,0,0.1,0,0.2l0,0c-9,4.2-18.6,2.6-28,2.1c-3-0.2-6.1-1.1-9.2,0
		l-1.8-1.1c-0.3-6.2-0.7-12.3-1-18.9c-0.1-1.6-0.3-2.8-0.9-4.2c-0.1,0-0.2,0-0.2,0v-0.3c-0.2-4,1.1-7.1,4.3-9.7
		c4.2-3.4,8.6-6.7,12.3-10.5c4-4.1,7.6-8.6,11.4-13.2l2-2.1c3.3-3.4,7.1-4.2,11.5-3.8c3.1,0.3,6.3,0.3,9.5,0c1.7-0.2,3.3-1.3,4.9-2
		c-0.2-0.6-0.4-1.1-0.5-1.7c-5.9,0-11.9-0.1-17.8,0c-2.5,0-3.8-0.4-4.2-3.4c-1.4-8.1-2.4-16.5-5.3-24.1c-2.4-6.4,0.6-9.6,4-13.8
		c2.9-3.5,5.1-7.5,7.3-11.5l0.1,0c0.2,0.1,0.3,0.1,0.3,0.1c0,0,0-0.1,0-0.1l0.3,0c0.6-1,0.9-1.9,1-2.8c0.1-0.2,0.2-0.3,0.4-0.5
		c3.5-1.5,6.2-2.7,9-4l0.4,0c0,0,0,0,0,0c0.5-0.1,0.9-0.1,1.3-0.2l0,0l0,0c1.2-0.1,2.3-0.3,3.5-0.5c0.2-0.1,0.6-0.2,0.7-0.5
		c3.1-2.4,6.1-4.5,9-7c-0.1,0-0.1,0-0.2,0l0.6,0c2.4-0.5,4.6-1.2,6.7-2l2.4-0.7c0,0,0,0,0,0c3.5,0,6.4,0,9.4-0.1
		c2.8-0.1,3.8,1.3,4.5,4.1c1.6,6.4,3.7,12.7,6,19.1c0,1.1,0.2,2.2,0.8,3.1c2.3,4.1,3.3,8.1,0.6,13c4.2-6.8,10.4-3.8,15.8-4.5
		c6.3-0.8,12.6-1.6,19.3-2.5c1.8,9.8,3.5,18.4,4.9,27.1C507.6,1244.7,504.5,1249,501.5,1253z M557.3,1207.3L557.3,1207.3l-0.5,1.4
		c-1.9,3.5-3.8,7.1-5.5,11l-0.3,0.5c-2.8,3.5-5.7,6.9-7.6,10.7c-2.6,5.1-5.9,7.8-12,7.7c-5.2-0.1-10.4,0.9-15.6,1.7
		c-4.9,0.7-6.3-2.4-7-6.3c-1.3-7.8-2.7-15.6-3.8-23.4c-0.2-1.4,0.7-3.1,1.3-4.5c1.2-2.8,2.5-5.4,3.7-8.5l0,0l1.5-2.6l0.2-0.4
		c2.8-4.8,5.3-9.7,7.7-14.6l0.4-0.8c0.9-0.4,1.9-0.8,2.1-1.5c2.4-8,9.2-7.8,15.5-8.5c5-0.5,10-1.2,14.9-1.8
		c2.7,10.4,5.7,20,7.6,29.9C560.7,1200.2,558.4,1203.7,557.3,1207.3z M577.4,1122.4l2-0.3l0,0c2.3-0.3,4.6-0.7,7.2-1.1
		c0.4-0.1,0.8-0.1,1.2-0.2c2.7-0.2,5-0.3,7.1-0.7c0.7,1.5,1.1,2.6,2,3.6l0.3,0.4c1,4.8,1.6,9.7,3.5,14c4.6,10.2,2.7,19.7-1.7,29.6
		l-0.1,0.7c-3,6.5-5.9,13-8.9,19.5c-0.3,0.6-0.5,1.2-0.6,1.9l-0.1,0l-0.3,1c-6.1,1.3-11.7,2.8-17.3,4.1c-0.8,0.2-1.9-0.2-2.4,0.2
		c-4.9,3.5-6.5,0.6-7.4-3.7c-2.1-9.5-4.1-19.1-6.1-29v-0.8l0,0c0,0,0,0,0.1,0c0.1-1.3,0-2.3-0.2-4.5c-1,1.7-1.4,2.3-1.5,3
		c-1.4,5.2-6.6,3.6-9.7,4.5c-6.1,1.7-12.8,1.6-19.6,1.9l0-0.5c2-1.2,3.7-2.2,5.3-3.4c2.7-2.1,5.3-4.4,7.9-6.6l3.3-2.5
		c5.1-2.8,8.5-6.5,8.7-12.2l0.2-0.3c0.5-0.1,0.7-0.3,0.8-0.4l0.3-0.2c0.9-1.7,1.8-3.4,2.6-5.1l4.3-8.6c1-4.3,1.8-8.5,2.3-12.6
		c0.1-0.1,0.2-0.2,0.4-0.4c1.1-1.3,1.7-2.6,2.2-3.8l0.1-0.6c0.1,0.3,0.1,0.6,0.2,0.9c1,3.3,1.7,6.3,2.4,9.3c0.6-0.1,1.3-0.3,1.9-0.4
		c-1.1-5.8-2.3-11.6-3.6-17.5l0.1-0.7c0.4-2.2,0.3-4.1,0.6-5.8c0.4-2.2,1.2-4.4,1.9-7c2.2-6.1,5.5-11.5,3.9-18
		c0.2-0.1,0.3-0.2,0.4-0.3l1.4-1c1.2-2.3,2.1-4.6,3-6.8c0-0.8,0.1-1.5,0.1-3c0-0.3,0-0.6,0-0.8v0v0c0-0.5-0.1-0.8-0.1-1.3
		c-0.6-3.2-1-6-1.8-8.6c0-0.1,0-0.2,0-0.3c0.3-0.7,0.3-0.9-0.1-1c6.2-1.1,12-2.5,17.9-3c1.7-0.1,4.3,2.1,5.2,3.8
		c1.4,2.6,1.8,5.8,2.9,9l0.4,0.5c1.7,4,3.4,8,5.7,12.1l0,0l0.7,1.4c0.6,6.6,0.5,13.1-2,19.6l-1.9,3.7l0,0c-0.8,1.4-1.5,2.7-2,4.1
		c-1.4,4.1-2.4,8.4-3.4,13.2l-0.3,0.8c-2.8,5.5-8.7,4.4-13.3,6.1c-1.7,0.6-3.4,1.1-5.1,1.6l-2.8,1.1c-1.7-0.3-3.3-0.3-4.9,0
		c-1,0.2-1.8,1.9-2.8,3.3c-0.1,1.7-0.2,2.9-0.2,3.2C571,1125.7,574.2,1124,577.4,1122.4z"/>
	<path d="M267,1034C267,1034,267,1034,267,1034C267,1034,267,1034,267,1034C267,1034,267,1034,267,1034z"/>
	<path d="M453.8,1233c-3.1,4.1-5.8,8.4-8.8,12.6l-0.5,0.2c0,0,0,0,0,0c-0.1,0-0.1,0-0.1,0.1l0,0l0,0c-4.2,1.8-8,3.6-11.8,5.3
		c0,0.3,0.1,0.7,0.1,1c2.5,0.3,5,0.7,6.6,0.9c1.7,2.8,3,5,4.3,7.2c0.5-4.9,0.9-8.9,1.3-13.2l0.4-0.4c6.8-7.5,13.3-15.3,19.6-23.2
		c0.5-0.6-0.2-2.2-0.5-3.9C460.5,1224.6,457,1228.7,453.8,1233z"/>
	<path d="M564.2,1133.9c-2.5,7.1-4.9,13.9-7.3,20.7c0.7,0.3,1.3,0.5,2,0.8c1.4-3.8,2.8-7.6,4.4-11.7
		C567.2,1136.7,567.2,1136.7,564.2,1133.9z"/>
</g>
</svg>
