<?xml version="1.0" encoding="utf-8"?>
<!-- Generator: Adobe Illustrator 27.0.1, SVG Export Plug-In . SVG Version: 6.00 Build 0)  -->
<svg version="1.1" id="Layer_1" xmlns="http://www.w3.org/2000/svg" xmlns:xlink="http://www.w3.org/1999/xlink" x="0px" y="0px"
	 viewBox="0 0 1200 1498" style="enable-background:new 0 0 1200 1498;" xml:space="preserve">
<g>
	<path d="M1115.1,741.2c0.3,0.5,0.5,0.7,0.8,0.5C1115.7,741.1,1115.4,741,1115.1,741.2z"/>
	<path d="M904.7,536.1c0,0,0-0.4,0-0.4s-0.2,0.2-0.2,0.3S904.6,536.1,904.7,536.1z"/>
	<path d="M1033.4,619.6c0.3-2.4,0.5-4.8,0.8-7.6c-0.4-2-0.3-4.1-1.3-5.1c-3.8-4.1-6.7-8.2-3.6-14.2
		C1021.2,602.1,1022.4,613,1033.4,619.6z"/>
	<path d="M856.9,734C857,734,857,734,856.9,734C857,734,857,734,856.9,734C857,734,857,734,856.9,734z"/>
	<path d="M1085.8,748.1c0.1,0,0.1,0,0.2,0c0,0,0,0-0.1,0C1085.9,748.1,1085.8,748.1,1085.8,748.1z"/>
	<path d="M853.1,780C853.1,780,853.1,780,853.1,780C853,780.1,853,780.1,853.1,780C853,780.1,853.1,780,853.1,780z"/>
	<path d="M1107.1,761.7c-0.3-1-0.7-1.6-1.1-1.8C1106.4,760.8,1106.8,761.4,1107.1,761.7z"/>
	<path d="M1191,610.9c0-0.4-0.3-0.8-0.5-1.5c-0.8,0.8-1.5,1.4-2.3,2.1c-0.2-0.3-0.4-0.6-0.6-0.9l0,0c-2.7-3.9-5.3-7.7-8.2-11.9
		c-4,4.9-4.1,10.8-5,16.7c-3.1-5.9-9.9-9.7-8.5-17.6c0.1-0.7-0.7-2.2-1.3-2.4c-3.8-1.2-2.2-3.4-1.5-5.8c0.7-2.7,1.6-5.3,2.2-8
		l-3.3-1c-0.3,3.2-2,7.3-4.4,9.1c-3.5,2.7-8.4,3.6-12.8,5c-1.3,0.4-3.2,0.5-4.2-0.2c-4.7-3.4-9.2-7.2-13.7-10.8
		c0.5-0.2,0.9-0.5,1.4-0.7c0.6-2.8,1.2-5.6,1.9-8.4c-0.5-0.2-0.9-0.4-1.4-0.6c-0.9,0.8-1.7,2.1-2.7,2.4c-3.8,1.3-8.8,4.3-11.3,2.9
		c-5.6-3.2-10.8-2.1-16.3-1.4c-4.2,0.5-9.3,2.8-12.5,1.3c-6.8-3.4-15.4-6-16-16.1c-0.2-2.9-2.1-3.9-4.6-2.6
		c-3.9,2.1-7.4,4.7-10.2,7.8l0,0l0,0c-3,3.2-5.2,7.1-6.3,11.6c-2.8,11.3-4.5,22.9-6.6,34.4c-0.3,1.6-0.3,3.4,0,5
		c1.7,8.1-0.5,15.2-5,22.5c0-5.2,0-9.9,0-14.5c-3.1,6.3-7.8,12.2-8.9,18.8c-1,6.2-5.2,9.8-7.4,14.8c-1.3,3-3.8,5.6-6.2,8
		c-4.4,4.5-7.9,9.3-7.7,16c0.1,2.1,0,4.1,0,6.2c-0.4,0-0.8,0-1.2,0c0-3.6-0.9-7.4,0.2-10.6c2.2-6.5,5.5-12.6,8.2-18.9
		c0.6-1.5,1.2-3,1.8-4.5c0,0-0.1,0-0.3,0.1c-1.7,1.1-3.2,2.2-4.6,3.2l-0.2,0.1c0-0.1-0.1-0.1-0.2-0.1c-5.8-3.2,0.2-4.6,1.2-7.2
		c-2.7,0-4.8,0.1-6.9,0c-4.2-0.3-5.7-2.4-3.8-6.3c1-2.1,2.8-4,4.4-5.7c1.3-1.5,3-2.7,4.5-4c-0.4-0.6-0.8-1.1-1.2-1.7
		c-3.2,1.7-6.3,3.5-10.9,6c2-3.3,3.3-5.4,4.6-7.5c-2.7,2.1-5.4,4.2-8.4,6.3c0,0.2,0,0.4,0,0.6l-0.4-0.8l-0.8-1.2
		c-2.3-3.9-4.3-5.5-7.2-5.4l0,0l0,0c-1.1,0-2.4,0.3-3.8,0.8l-0.7-0.6c-0.5-0.5-0.9-0.9-1.4-1.4c-0.2-0.1-0.3-0.2-0.5-0.3l-0.3-0.2
		l0,0c0.2,0.1,0.4,0.2,0.7,0.3c0.3-0.3,0.4-0.5,0.3-1l0.3,0c0,0,0,0,0,0c0.8,0.4,1.1,0.4,1.5,0l0.1-0.1c0,0.1,0.1,0.2,0.1,0.3
		c3.6,1,6.5,0.6,7.1-3.9l0.3-0.2c1.1,0.6,1.9,0.7,2.9,0.9c2.1-2.3,3.8-4.6,5.7-6.9c2.6-3.2,5.3-6.4,7.9-9.6c0.2-0.5,0.4-1,0.5-1.9
		l11.4-15.4l0.3-0.9c0,0.2,0,0.5,0,0.7c0.6-1.1,1-2,0.9-3.1c0,0,0,0.1-0.1,0.1l0-0.1c0.4,0.1,0.4,0.2,0.1-0.2
		c-0.8-5.7-1-11.2-1.9-16.5c-0.2-1.5-2.1-2.8-3.2-4.2l-0.3,0c0-0.1,0-0.2,0-0.4c-3.8-0.3-7.3-0.2-10.8-0.1l-1.2,0.2
		c0.3-0.1,0.5-0.2,0.8-0.4c-7.1,0.2-13.8,0.6-20.7,1.2c-0.9,0.3-1.7,0.5-2.5,0.8l-0.6,0c-1.1-0.9-2-1.2-3.2-1.7
		c-2.3-0.8-4.4-1.5-6.6-2.1l-2-0.8c-5.8-4.4-11.9-7.8-17.3-12.1c-8.8-7.1-18.4-12.1-29.4-14.6l-0.1,0c-0.1-0.1-0.1-0.1-0.2-0.2
		c-5.4-1.4-10.4-2.5-15.4-3.7c0,0,0.1,0-0.4,0c-1,0.1-1.5,0.1-1.8,0.4l0,0c-0.1-0.1-0.2-0.1-0.3-0.2c-3-0.1-5.6-0.3-7.8,0.6
		c-3.3,1.3-6.3,3.4-9.4,5.5c0,0.3,0,0.5-0.1,0.8l-0.1,0c0-0.2,0-0.5,0-0.7c-0.6,0-0.9,0.2-1.3,0.5c0,0.1-0.1,0.3-0.1,0.4
		c0-0.1,0-0.2-0.1-0.2c-0.2,0.3-0.2,0.5-0.2,0.6c-0.1,0.1-0.2,0.2-0.3,0.3c-3.2,4.5-6.7,8.6-8.4,13.3c-2.5,7.4-4.1,15.1-5.5,22.8
		c-1.3,7.6-2.9,15.4-2.5,23.1c0.7,13.7-0.7,17.7-12.4,24l-0.2,0.2c0-0.1-0.1-0.1-0.1-0.2c-2.8,2.1-5.2,4.2-7.3,6.4l-0.1,0.2
		c-0.1,0-0.2,0-0.2,0c-1.4,0.8-2.1,1.6-2.8,2.8c-0.1,1-0.4,1.6-0.5,2.6c0.1,0.8,0.1,1.2,0.1,1.7c0.4,0.5,0.8,0.9,1.4,2
		c2.8,3.9,5.4,7.2,8,10.5c-0.1-0.3-0.3-0.5-0.4-0.8l0,0c0.2,0.4,0.4,0.7,0.6,1.1c2,1.9,3.7,3.5,5.5,5c1,0.4,2.1,0.9,3.1,1.7l0.1,0.4
		l0.5,0.4c-0.1,0-0.2,0-0.3-0.1c0.5,0.5,1.1,0.9,1.7,1.2l0,0l0,0c3,1.3,7.3,0.8,7,6.5c2.4-0.8,4.7-1.5,6.9-2.5l0.3,0.1
		c1.8,0.4,3.3,0.4,4.7,0.3l0.1,0.1c0,0.1,0,0.2,0,0.3c1.4,2.8,2.8,5.2,4.4,7.6l0.2,0.3c-0.1,0-0.1,0.1-0.2,0.1
		c-0.4,1.4-0.4,2.5-0.1,3.6l0,0.4c-0.1-0.1-0.1-0.1-0.2-0.2c-0.9,0.9-1.4,2.3-1.5,2.2c-3.3-1.1-6.7-2.1-9.7-3.6
		c-2.9-1.5-5.4-3.7-8-5.6c-0.3,0.2-0.7,0.4-1,0.7c1.7,3.9,3.5,7.7,5.4,12c-1.9-0.3-3.3-0.4-5.4-0.7c2.7,2.8,4.8,5.1,7.4,7.9
		c-3,0.5-5.3,0.9-8.7,1.5c4.8,2.4,8.6,4.2,13.1,6.4c-4.3,4.5-8.4,8.8-12.5,13c0.6,0.4,1.8,1.2,3.5,2c1.8,0,3.3,0,4.7,0
		c3.2-0.5,6.4-1.1,9.6-1.5c0.6-0.1,1.8,0.6,1.9,1.1c0.2,0.8-0.2,1.8-0.6,2.6c-1.1,1.9-2.4,3.8-3.4,5.9l-0.2,0.6
		c-2.3,1.3-4.3,2.3-6.5,3.6l-0.4,0.1c0.1-0.1,0.3-0.1,0.4-0.2c0.2-0.4,0-0.4-0.4-0.4c-3.3-0.1-6.6-1.6-7.7,2.9c0,0,0,0,0.1,0.1
		l-0.1,0.3c0,0-0.1,0-0.1,0c-0.1,0.3-0.2,0.6-0.2,0.8l0,0.1l0,0.1c-1,3.5-1.7,6.9-2.3,10.6l-0.2-0.3c0,0,0,0,0,0
		c-0.6-3.2-0.8-5.8-1-8.4c-1.6,0.4-3.2,0.8-4.7,1.2l-0.1,0c0.1-0.1,0.1-0.1,0.1-0.4c0.2-0.3,0.4-0.6,0.7-1l-19.5,7.4l-0.4-4.9
		l-0.5-0.2c0.2-0.1,0.3-0.2,0.5-0.3c0.2-0.5,0.5-1.1,0.9-2.1c0.2-1.4,0.2-2.3,0.3-3.3c-1.1,0.1-2.8-0.1-3.2,0.5
		c-3.1,4.5-4.6,1.9-6.5-1.1c-1,1.1-1.6,2.1-2.3,3.1c-0.9,2.2-1.9,4.4-2.8,6.6c-1.4-1-2.4-1.7-3.9-2.1c-1.1,1.3-1.7,2.4-2.3,3.9
		c-0.5,2.2-1.1,3.9-1.5,5c1.9,0.5,3.6,1,5.5,1.3c0.1-0.1,0.2-0.2,0.3-0.4l-0.2,0.7c0.7,2.3,1.5,4.1,2.4,5.9c1.7,3.3,1.4,6.4-1,9.2
		c-2,2-4.1,3.9-6.3,6.2c-0.2,0.3-0.2,0.2,0.1,0.4c0.8,0.3,1.2,0.4,1.7,0.5c2.4-0.7,4.8-1.5,7.9-2.5c4.9-0.7,9-1.1,13.2-1.5l0.7,0.5
		c0.1,0.6,0.2,1,0.2,1.4c0.1,0.1,0.3,0.2,0.4,0.4c-0.1-0.1-0.2-0.2-0.4-0.1c0.1,0.5,0.3,0.8,0.6,0.7c0,0.1,0.1,0.2,0.1,0.4
		c1.3,6.9,4.1,11.5,11.2,11.8c0-0.1,0.1-0.1,0.1-0.2l0.2,0.3c-0.3,0-0.3-0.1-0.3,0.2l-6.8,5l-0.2,0c0.1-0.1,0.3-0.2,0.4-0.3
		c-1-0.6-2.3-1.2-3.5-1.2c-4.8,0-9.5,0.2-14.3,0.3l-2-0.1l-8-1.3c-5.1-5.7-6-5.5-10.6,0.6c-1.3,1.7-3.9,2.5-5.9,4.1
		c-1.3,3.2-2.6,6.1-3.9,9.3l-0.2,0.5c0-0.2-0.1-0.5-0.1-0.8c-0.5-1.5-1-2.6-0.8-3.4c3-10.3,5.9-20.6,9.3-30.8
		c1.3-3.9,3.8-7.5,5.7-11.2c0,0-0.1,0-0.3,0.1c-8.1,8-12.5,17.9-16.2,28.2c-3,8.4-0.9,18.1-6.3,26c-0.4,0.5-0.1,2.1,0.2,2.3
		c4.8,2.2,2.6,6.9,3.6,10.4c0.7,2.5-0.5,5.6,0.2,8.1c3,10.8,6.4,21.4,9.6,32.1l-0.1,0.2c-0.1-0.1-0.1-0.2-0.2-0.3
		c-0.7,0.3-1.1,0.6-1.6,1.2c-3.4,2.5-3.5,5-1.5,8.3c1.8,3,3.4,6.1,4.7,9.3c1.5,3.9,3.9,6.4,8.1,6.8c0.8-0.5,1.6-0.9,2.4-2
		c-0.2-0.5-0.4-0.9-0.7-1.4l0.8,1.1c1.4,2.2,2.7,4,4,6.2c0.1,0.3,0.1,0.3,0.1,0.3c0,0,0,0,0,0l0,0c0,0,0,0,0,0
		c-1.2,0.1-2.4,0.2-3.8,0.6c-2.1,2.1-4,4-6.1,6.1c0,0,0,0,0,0l-0.7,0.4c-2.3-1.2-4.8-3.6-6.1-3.1c-5.3,2.1-10.3,5.2-15.3,7.9l0,0.5
		c-0.1-0.1-0.2-0.3-0.3-0.4c-0.1,1.5-0.1,3,0,4.5l-0.2,2.5c-1.7,2.1-3.1,4-4.1,6c0.1-0.1,0.2-0.1,0.3-0.1c-0.2,0.1-0.4,0.2-0.6,0.3
		c-6.6,5.7-12.4,3.3-18.7,0.1c-2.4-0.6-4.5-1.2-6.5-1.7c-6.6-1.7-11.7,1.4-12.9,7.6l-0.4,0.4c-3.3,3.5-0.9,10.3,4.5,13.2l0.1,0.4
		c0.2,1.3,0.6,2,1.2,2.9c5.2,3.1,10.1,6.3,15.2,8.9c1.3,0.6,4.5,2.2,4.7-1.7l0.4-0.3c3.3,2.7,6.1,5.1,8.9,7.6l0,0.1
		c-1.7-0.2-3-0.2-4.7-0.2c0.6,1.6,1,2.6,1.6,3.7c1,0.9,1.8,1.7,2.8,2.8c3.6,1.8,5.2,1,4.7-2.9c0,0-0.1-0.1-0.1-0.1l0-0.1
		c0,0,0.1,0,0.1,0c0-0.1,0-0.2,0-0.3l0.1-0.3c1,0.3,1.4,0.4,2.1,0.2c3.9-3.5,9.5-4.9,10.5-10l11.1-7.6c0.6-3.5,2-5.2,5.3-5.7
		c0,0,0,0.1-0.1,0.1l-0.1,0.2c-2.4,2.9-2.4,2.9-1.1,3.4l0.1,0.4c1.5,2.7,3.3,2.9,4.9,0.6c3-4.3,6.1-8.6,8.8-13.1
		c0.5-0.8,0-2.6-0.5-3.7c-0.8-1.7-2.1-3.3-3.3-4.7l-0.1-0.3c-0.3-0.6-0.5-1.1-0.8-1.6l-1.6-3.3c3.7,4,7.3,5.9,11.7,1.3
		c0.5-0.5,1.9-0.1,3.1-0.1c0.8-0.5,1.4-0.9,1.9-1.5c4.8,4.3,9.4,8.6,14.3,12.4c10.9,8.4,22.1,16.6,33.1,24.9
		c0.9,0.7,1.7,1.5,2.7,2.6l-0.1,0.6c-2.1,0.2-4,0-6,0.2c-1,1.1-2,1.9-3.1,2.7c-5.8,4.1-11.8,8-11.7,16.3c1.1-0.1,2.1-0.2,3.1-0.4
		l0.7,1.5l0,0c0.6,1.4,1.3,2.6,2.1,3.6c1.8,2,3.9,3.8,6.2,5.7l0.2,0.3c0,0,0,0-0.1,0c-0.1,0.9,0.1,1.4,0.7,3.5
		c-5.3-3.4-9.6-6.1-13.7-8.7c-1,1.8-2.2,4.1-3,6.3l-0.1,0.5c-0.2,0.6-0.2,1-0.2,1.3l-0.3,0c-1.2,0.6-2.1,1.2-2.7,2l-1.3,0.6l0,0
		c-5.1,2.5-9.7,4.8-14.2,7.5c-2.2,1.3-3.9,3.3-5.8,5l-0.3,0.1c0,0,0-0.1-0.1-0.1c-0.1,0.1-0.2,0.2-0.3,0.3l0,0l0,0
		c-4.7,4.8-4.5,9.2,0.3,16.6l0.2,0.2c0,0-0.1,0.1-0.1,0.1c2.1,2.1,4.1,4,6.1,5.8l0.1,0.2c0,0-0.1,0.1-0.1,0.1c0.1,0,0.1,0.1,0.2,0.1
		l0,0l0.1,0c2.8,1.6,5.6,2.9,8.3,3.9l0.7,0.3c0,0,0,0,0,0c0.1,0.1,0.3,0.1,0.4,0.2l0,0l0,0c3.8,1.5,7.4,2.8,9.8-1.2l0.4-0.1l1.1-1.1
		c1.9-1.1,3.5-2,5.1-3c0,0,0,0,0-0.4c4-3.8,8.9-6.7,7.6-13l0-0.3c0,0,0-0.1,0.1-0.1c0.3-1.2,0.3-1.7,0.3-2.2l0.2,0
		c0,0.1,0.1,0.1,0.1,0.2c1.4,0.2,3.1,0.8,3.5,0.3c2.8-3.8,5.4-7.9,8-11.7c1.1,0,2.1,0,3.2,0c-0.2-2.4,4.4-4.1,1.2-7l0-0.1
		c0.1-0.1,0.2-0.1,0.3-0.2c1.1-1.5,1.9-2.7,2.7-3.8l0.1,0.1c0,0.1,0.1,0.2,0.2,0.3c0.4,3.4,1.2,6.5,0.6,9.4
		c-0.6,3.3,2.1,4.8,2.9,7.3c0.8,2.6,2.3,5,3.5,7.6c1.5,3.2,3.6,6.2,4.3,9.5c1,4.6,1,9.5,1.4,14.2c-0.1,0.1-0.1,0.2-0.2,0.4
		c-0.1,2.5,0.1,4.7,0.3,8.2c1.6-2,2.2-2.8,2.8-3.8l0.5-0.1c2.8-1.3,5.4-2.9,7.9-4.5l1.1-0.6c4.9-2,9.4-3.9,14.1-6l1.1,0.1l0,0
		c7.3,3.1,13.9-0.6,20.4-3.2c3.1-1.3,5.4-4.6,8.1-7l0.5-0.1c1.2-1.3,2-2.6,2.6-3.9l0-0.1l0.1-0.2c0-0.1,0.1-0.1,0.1-0.2c0,0,0,0,0,0
		l0.2-0.4c1.4-3.2,2.3-6.1,3.2-9.3l0.4,0c1.5,0.5,2.5,0.6,3.6,0.8l0.3,0.3c0.8-1.1,2-2.5,1.8-3.7c-0.7-5.2-1.9-10.4-3.1-15.6
		l0.1-0.1c0.2,0,0.2,0,0.4-0.3c-0.1-0.6-0.4-0.9-0.8-1.1l0,0l-0.1-0.2l-1.2-0.7c-0.8-0.8-1.5-1.2-2.4-1.7c-1.6,0.3-3,0.7-4.3,1.1
		c-1.3,1.3-2.5,2.7-4,4.3c-0.3,1-0.1,2.2-0.5,2.6c-2.7,1.9-5.5,3.7-7.9,5.3c1,1.9,2.8,3.8,2.9,5.7c0.1,2.3-0.8,5.1-2.3,6.9
		c-5.3,6.4-10.5,11.2-21.1,3.7c1.5-3.6,2.9-7.3,4.4-11l0,0l0.2-0.6c0.8-2,1.6-4,2.4-6l3.6-2.3c2.7-1.5,5.2-3.1,7.8-4.8
		c0-0.9-0.1-1.4-0.1-1.9l-0.1-0.2c0,0,0.1-0.1,0.1-0.1c-0.2-0.7-0.5-1.3-0.8-1.8l-0.3-1c0.3-1.6,0.2-3-0.3-4.4
		c4.5-0.5,7.3,0.4,6,5.4c3.3,0,6.4,0,9.7,0.2c1.6-0.2,3-0.6,4.9-1.2c6.4-1.1,12.4-1.5,18.2-2.8c10.4-2.4,20.9-4.9,31-8.4
		c11.1-3.8,19.8-11.7,28.4-19.4c9.5-8.4,15.5-18.7,17.5-31.3c0.9-5.7,0.4-11.8,5.4-16.3c1.2-1.1,1.1-3.7,1.5-5.6l0.2-0.2
		c0,0.1,0,0.2,0.1,0.3c0.8-0.2,1.3-0.5,1.8-1c-0.1-0.5-0.2-0.7-0.2-0.9c0,0,0,0-0.1,0l0.3-0.3c5.2-1.7,4.9-5.7,4.3-9.6c0,0,0,0,0,0
		l0.2-0.4c0.7-1.2,0.7-2.5,0.9-2.6c5.4-0.9,6.3-5.3,8-9.5c1.2-2.9,3-5.5,4.8-8.2c4.9-7.4,3.9-16.2,5.4-24.2l-0.1-0.2
		c0.1,0,0.1-0.1,0.1-0.1c1.1-1.7,2.1-2.8,2.8-4c2.5-4.3,4.9-8.6,7.4-12.9c-0.1,0-0.1,0-0.2,0l0.1-0.2c0.1,0,0.2,0,0.3-0.1
		c0.5-1.3,0.9-2.6,1.4-3.9l0,0l0,0c2.4-6.7,4.7-13.2,6.8-19.2c0,0.8,0.2,2.8,0.3,5.6c3.4-3.9,5.5-8,6.9-12.3l0,0l0,0
		c2-6.2,2.3-12.7,2.2-19.2c0.1-0.1,0.1-0.2,0.2-0.3c0,0,0,0.1,0.1,0.2c0.5,0.4,0.7,0.5,1,0.3c-0.3-0.4-0.5-0.6-0.9-0.7
		c0,0,0,0,0-0.1c0,0,0,0-0.1,0c0,0-0.1,0-0.1,0c0.1-0.2,0.2-0.3,0.3-0.5c-0.4-2.5-0.9-4.7-1.4-6.8l0.3-0.5c4.7-0.2,5-3.2,5.2-5.2
		c-4.4-2.9-8-5.5-11.7-7.9c-1-0.6-2.3-0.8-3.5-0.8c0,0,0,0,0,0c0-0.4,0-0.3,0-0.3c-0.3-0.2-0.7-0.4-1-0.6l-0.2-0.2
		c0.4,0.2,0.8,0.4,1.2,0.4c-0.7-0.8-1.3-1.2-2.2-1.3c0-0.1,0-0.1,0-0.1l-0.5-2.5c0.4-0.9,1.6-0.9,2.8-0.9c0,0,0,0,0,0c0,0,0,0,0,0
		c0,0,0,0,0,0c0,0,0,0,0,0c0.4,0,0.6,0.2,1.1,0.9c2.5,1.7,4.7,3,7.1,4.2l0.5,0.4c-0.1,0-0.3,0-0.4,0c0.8,0.6,1.6,1,2.3,1.5l0,0l0,0
		c5.1,3.2,6.4,2.3,11-3.1c1.4-1.6,3.5-3.5,5.4-3.7c7-0.5,11.3-2.7,12.6-9.6c1.6-8.8,1.8-17.9,2.6-27.2c-1.6,2.3-3.1,4.6-4.9,7.3
		c-1.3-4.6,0.2-7.2,3.2-9.4c2.5-1.8,4.7-4.1,6.8-6.3c8.8-8.9,13.2-19.5,12.9-32.1c-1.2,1.5-1.9,3.1-2.4,4.9
		c-1.8,7.8-3.9,15.9-10.4,20.9c-8.4,6.4-17.6,11.7-26.5,17.5c-0.1,0-0.2,0.1-0.3,0.2l0.3-0.5c-0.1-0.8-0.2-1.3-0.3-1.8l0.7-0.7
		c9.1-7.3,18.1-14.2,26.5-21.6c3-2.6,4.4-7,6.5-10.6c-0.5-0.3-0.9-0.6-1.4-0.8c-2.3,3.5-4.5,7.1-6.8,10.6c-0.8-1.3-1-2.4-0.6-3.1
		c3.4-5.6,6.6-11.3,10.4-16.6c2.4-3.3,6.4-5.7,8.2-9.2C1186,639.9,1191.8,626.3,1191,610.9z M859.4,628.2L859.4,628.2
		C859.4,628.2,859.4,628.2,859.4,628.2L859.4,628.2z M812,930C812.1,930,812.1,930,812,930L812,930C812.1,930.1,812.1,930,812,930z
		 M985,741c0-0.2,0.1-0.5,0.2-0.7l0.1-0.1c0,0.3,0,0.6,0.1,0.8c0.3-0.5,0.5-1,0.4-1.5l0.5-0.7l0.5-1.2c1.1-2.1,2.7-2.6,4.9-1.5
		c2,1,4,2.2,5.4,3.9c2.6,3.1,4.7,6.6,7.1,9.5c1.4,2.3,2.9,4.2,4.4,6.1c1.8,2.3,3.6,4.5,5.8,7.2c0.8,1,1.2,1.5,1.8,1.7l0.4,0
		c0,0,0,0.1,0,0.1c1.6,0.6,3,0.9,4.6,0.8c0.2,7.7,0.5,15.2,0.8,23.1c1.9-2.9,1.9-2.9,0,0.5c0,0,0,0,0,0c-0.1,0.3-0.2,0.6-0.3,1
		l-0.1,0.3c0.1-0.5,0.2-0.8,0.1-1.1c-0.4,0.8-0.6,1.5-0.5,2l-5.6,12.8c-0.4,0.7-0.6,1.5-0.8,2.3l-1,2.7c-0.1-0.1-0.3-0.1-0.4-0.1
		l-0.7-0.2c-1.7-5.9-3.6-11.5-5.4-17l-3.1-9.7c0.1,0,0.1,0,0.2,0c2.2,1.8,5.4-3.2,6.6,1.2c0,0,0-0.1,0.2-0.2c0.8-1,1.4-1.8,1.7-2.3
		c-2-1.2-4-2.3-6.3-3.5c-0.6-0.1-1.1-0.2-1.5-0.3l0-0.1c0.5,0.1,1.1,0.2,1.8,0.2c4.2,0.7,7.7,1.5,11.8,2.4c0.8-1.5,2.4-3.3-1.5-4.4
		c-1.7-0.5-3.4-1.3-5.2-1.6c-3.4,0-6.6-0.3-9.9-0.6c0,0.2,0,0.2,0,0.2c-0.4,0-0.8,0-1.3,0c0.5,0,0.9-0.1,1.2-0.3
		c-0.8-0.1-1.6,0.1-2,0.3c-0.1,0-0.1,0-0.2,0c-0.5-0.1-0.8,0.1-0.8,0.1c-0.4-0.5-0.8-0.9-1.1-1.7c0.1-0.3,0.1-0.3,0.1-0.3
		c-0.4-0.5-0.8-0.9-1.1-1.7c0.2-0.3,0.1-0.3,0.1-0.3c-0.4-0.5-0.8-0.9-1.1-1.7c0.1-0.3,0.1-0.3,0.1-0.3c-0.4-0.5-0.8-0.9-1.1-1.7
		c0.2-0.3,0.1-0.3,0.1-0.3c-0.4-0.5-0.9-0.9-1.1-1.7c0.2-0.3,0.1-0.3,0.1-0.3c-0.4-0.5-0.9-0.9-1.1-1.7c0.2-0.3,0.1-0.3,0.1-0.3
		c-0.4-0.5-0.8-0.9-1.4-1.7c-0.1-0.3-0.1-0.3-0.1-0.4c0,0,0-0.1,0-0.1c0,0,0-0.1-0.2-0.3l-0.8-2.1l0,0c-1.7-5.2-3.6-10.3-5.8-15.4
		C985.1,741.1,985,741,985,741z M1004.3,781.7L1004.3,781.7C1004.3,781.7,1004.3,781.7,1004.3,781.7
		C1004.3,781.7,1004.3,781.7,1004.3,781.7z M891.5,982.4L891.5,982.4C891.5,982.4,891.5,982.3,891.5,982.4
		C891.5,982.4,891.5,982.4,891.5,982.4z M880.5,932.1c-11.4-8.4-22.5-17.2-33.7-25.9c-1.5-1.2-2.6-2.9-4-4.8l3-2.5c0,0,0,0,0.1,0
		c0,0,0,0,0,0l4-3.4c0.1,0.1,0.3,0.1,0.4,0.1l0.8,0.2c0.3,1.7,0.4,3.2,1.2,3.6c6.6,3.7,13.3,7.4,20.1,10.8c6.7,3.3,10.4,0.7,10-6.6
		c0-0.3,0.5-0.7,0.7-0.9c3.1,4.9,5.7,10,9.2,14.5c2.9,3.6,6.7,6.4,10.1,9.5l0.3,0.7c0.3,0.8,0.7,1.3,1.5,1.5l0,0
		c-3.3,2.6-6.2,5-9.6,7.4c-0.9,0.9-1.4,1.9-1.4,2.8C888.7,936.8,884.3,934.9,880.5,932.1z M892.4,981.8c0.5-0.3,1-0.6,1.6-0.9
		l0.5-0.1C893.8,981.1,893.1,981.4,892.4,981.8z M933.2,967.6c-2.1,2-5.8,2.7-4,6.6l0.3,0.1c0,0.1-0.1,0.2-0.1,0.3
		c0.4,2.1,0.8,3.8,1.3,5.6h0c-0.5,0.4-0.7,1-1.2,1.7c-3.6,4.9-6.9,9.6-10.4,14.7c-0.1,0.1-0.1,0.2-0.2,0.3c-5.3,0.8-6.3-3.8-7.8-7
		c-1.9-4.1,1.7-13.8,5.6-15.9c0.8-0.4,1.2-1.1,1.8-1.3c1.7-0.5,3.4-0.9,5.1-1.3c-1-2.3-1.9-4.5-3.2-7.1c-0.3-0.3-0.4-0.4-0.4-0.4
		l0,0c0.1,0.1,0.1,0.1,0.2,0.1c4.2,1,8.4,2,12.9,3.1c0.1,0,0.2,0,0.3,0.1L933.2,967.6z M1048.9,932.4c-3.8,4.3-8,8.2-12,12.3
		c-8.7,8.8-20.1,11.2-31.5,13.1c-7.7,1.2-16.2-0.4-23.1,2.4c-12.5,5.1-23.6-1.4-35.3-2c-11-0.6-21.4-4.9-31.8-9.6
		c-0.3-0.2-0.3-0.3-0.4-0.4c-0.1,0-0.1,0-0.2-0.1l0.1-0.2c0.2,0.3,0.2,0.5,0.7,0.4c1.6-0.1,2.8-0.1,4-0.1c0.6-1.9,1.2-3.8,1.8-6.1
		l0.2-0.2c0,0,0,0,0,0c0.5,0.8,0.9,1.3,1,1.5c2.4-2.6,4.8-5.1,7.2-7.7c0.1,0,0.2,0.1,0.2,0.1s0,0,0-0.1l0.2,0.1
		c-0.2,0-0.3-0.1-0.1,0.2c2.6,1.2,4.9,2.1,7.7,3c4.1,1,7.9,2,11.9,2.8c-2.3,4.6-4.3,9-6.1,13.7c0.7,0.4,1.2,0.5,1.9,0.3
		c0,0,0,0,0-0.1l0.7,0.3c2,0.6,3.5,0.6,5,0.7c0.7,0.1,1.5,0.3,2.3,0.4c-0.7-0.1-1.4-0.3-2.1-0.4c1.4,0.3,2.6,0.5,3.7,0.7
		c0.3,0.1,0.6,0.1,0.9,0.2c1.1-0.3,1.7-0.7,2.3-1.1c1-2,1.9-4.1,3.3-6.3c0.3-0.2,0.3-0.2,0.3,0.2c4.3,2.4,6.2,0.7,6.2-5.9
		c0.4-1.8,0.8-3.3,1.6-6.2l1.4-4.7c2.1-4.1,4-8.1,6-12.3c0.3-0.2,0.2-0.2,0.2-0.2c2-3.5,4.1-7,6.4-10.5l0.7-0.5c0,0.1,0,0.1,0,0.3
		c1.6,2,3.2,3.6,5.1,5.4l0.1,0.2c-0.1,0-0.3-0.1-0.4-0.1c-3.1,3.6-4,6.9,2,8.1c0.3,3.2,2,4.2,5.3,4c2.7-0.2,5.6,1,8.3,1.6
		c6.1,1.3,11.4,0.4,15.1-5.6l0.8,0c0,0,0,0-0.1,0.1c3.1,0.1,5.9,0.1,8.4-0.2v0c3-1.1,5.7-2.6,8.6-3.5c4.3-1.4,8.5-2.5,9.6-7.9
		c0.2-1,2-2,3.2-2.5c2.2-0.9,4.6-1.3,7.2-2.2c1.1-2.2,1.8-4.1,2.7-6.3c0.6,1.3,2,2.4,2,3.3C1061.6,915.7,1056,924.5,1048.9,932.4z
		 M1101.5,798.9c-1.2,4.6-2.1,9-2.7,13.8c0,0,0.1,0.1,0.1,0.1l-0.2,0.3c-2.3,3.3-2.6,8-7.9,8.9l-0.8-0.2c0,0,0-0.1,0.1-0.1
		c-0.3,0-0.5-0.1-0.8-0.1l-10.5-2.9c1.7-5.6,7.1-4.5,10.4-6.7l0.2-1.2c0.1,0.4,0.1,0.8,0.2,1.2c6.4-1.7,10.9-4.7,10.6-11.9
		c0-0.3,0.6-0.7,0.9-1.5c0-2.3,0-4.2,0-6.6c-3.2,1-6.1,2-8.9,3l0,0l-0.1,0c-1.4,0.5-2.7,1-4,1.6l-0.4,0.2c0-0.1,0-0.1,0-0.2
		c-7,0.2-13.5,0.7-20,1.5c-1.9,0.2-3.8,1.2-5.7,1.8c0,0,0.1,0,0.1,0c0,0.4,0,0.9,0,1.7c0,0.1-0.1,0.2-0.1,0.3c-0.3,0-0.7,0-1.3,0.3
		c-0.4,1.5-0.5,2.6-0.3,3.5c-0.2,0.1-0.2,0.1-0.2,0.1l0,0l-6.5-3.7c-1-0.7-2-1.2-3-1.7l-0.6-0.3c0,0,0,0,0,0
		c-0.5-0.4-0.8-0.6-1.2-0.7l-0.7-0.4c4.1-4.4,8.1-8.2,12.1-12c0,0-0.1-0.1-0.6-0.2c-2.1,0.6-3.9,1.3-5.7,2.1c1.1-2.9,2-5.4,3.2-7.9
		c0.8-1.8,1.9-3.5,2.9-5.2l5.6-4.4c1.5-0.5,2.7-1.3,3.9-2.1c0.3,0.2,0.6,0.3,0.9,0.5c-1.4,3.8-2.9,7.6-4.3,11.4
		c0.6,0.2,1.1,0.5,1.7,0.7c1.1-2.4,2.5-4.8,3.2-7.3c2.7-9.5,3-9.6,10-10.4c3.7-0.5,7.3-2.3,10.9-3.7c-0.3-0.8-0.6-1.2-1.3-1.5
		c-5.8,0.9-11.2,3.9-16.5-0.1c4-1.8,6.5-4.6,5.5-9.6l0.3-0.8c1.6-1.9,3.2-2.5,5.6-0.5c0.2,0,0.4,0,0.6,0l0,0.1l0.2,0.3
		c-0.1,0-0.2,0-0.3,0c0.2,0.4,0.5,0.7,0.7,0.8l1,1.7l0,0c1.1,2.6,2.1,5.1,3.2,7.8c0.4,0.8,0.7,1.3,1,2c1,2.1,2,3.9,3.2,5.9
		c1.7,3.7,3.4,7.2,4.7,10.8c0.8,2.3,1,4.8,2.1,7.3l0.3,0.6C1101.8,789.8,1101.7,794.2,1101.5,798.9z M1116.8,757.9
		c1.8,2.3,1.6,6.2,2.3,9.8c0.1,2.3,0.3,4.2,0,5.9c-0.4,1.7-1.4,3.2-1.8,5.1l-0.6,0.7c-0.6,0.4-1,0.8-1.3,1.3c0,0.1,0.1,0.2,0.1,0.3
		l0,0c-2.8-6.1-5.7-12.3-8.5-18.7c0-0.4,0-0.3,0-0.3c-0.3-0.6-0.6-1.2-1-2.2c-3.3-4.2-6.5-8-10.4-11.9c-0.1,0-0.2,0-0.3,0l0-0.1
		c0-0.4-0.2-0.8-0.6-1.3l-0.5-1.1c1.5-0.6,2.7-1.1,3.7-1.8C1105.9,746.5,1111.9,751.7,1116.8,757.9z"/>
</g>
</svg>
