<?xml version="1.0" encoding="utf-8"?>
<!-- Generator: Adobe Illustrator 27.0.1, SVG Export Plug-In . SVG Version: 6.00 Build 0)  -->
<svg version="1.1" id="Layer_1" xmlns="http://www.w3.org/2000/svg" xmlns:xlink="http://www.w3.org/1999/xlink" x="0px" y="0px"
	 viewBox="0 0 1200 1498" style="enable-background:new 0 0 1200 1498;" xml:space="preserve">
<g>
	<path d="M883.7,1029.4c2.6-10.8,1-22.2,5.1-32.8c0.7-1.7,0.9-3.6,1.8-5.9c0.4-7.9,0.4-15.3,0-22.9c-0.8-1-1.5-1.8-1.6-2.7
		c-0.5-6.1-0.7-12.2-1.5-18.2c-0.6-4.1-1.9-8.3-3.4-12.2c-1.5-3.9-4.3-4.5-7.4-1.9c-8.8,7.5-17.5,15-26.3,22.4
		c-7.4,6.2-15.3,11.4-25.3,12c-1.2,1.3-2.7,2.5-3.4,4c0.7-1.5,2.2-2.7,3.4-4.4c1.4-3.9,2.8-7.3,4.1-10.8c0,0-0.1-0.1-0.5,0
		c-2.5,1.2-4.6,2.3-6.7,3.5c1.6-5.5,4.3-9.8,5.7-14.4c1.5-4.8,2-10,2.3-15c0.2-4.7-0.4-9.4-0.7-15.3c-6.2,7.5-10.7,14.4-19.7,18.5
		c3.3-9.2,6.3-17.3,9.3-25.4c-0.5-0.2-1-0.4-1.5-0.6c-0.6,0.5-1.3,1-1.8,1.5c-1.1-1.6-2.3-3-3.2-4.6c-3.6-6.4-8.8-10.6-16.3-11.6
		c-5-0.7-9.9-1.8-14.9-2.6l-0.1-0.3c-9-8.4-20.1-9.1-29.1,0.1l-0.3,0.2c-2.1,1.9-4,3.5-5.5,5.4c-1.4,1.7-2.4,3.6-3.2,5.5
		c-0.1,0-0.2,0.1-0.3,0.1c-0.9,0-1.3,0.1-1.6,0.2l0-0.4c-0.1-1.9-0.2-3.3-0.3-4.8l0.1-0.4c0.5-3.5,0.9-6.5,0.9-9.4l0-0.4
		c0,0,0,0,0,0c0.8-2.7,1.2-4.9,1.3-6.9l0-0.4c0,0,0,0,0,0c2.7-9.2,5.2-18,7.7-26.8l2-6.3c0.8-2.9,1.4-5.7,1.9-8.4l0-0.2
		c0.1,0,0.1-0.1,0.2-0.1c1.2-2.4,2.1-4.5,3.1-7c0.4-7.1,0.8-13.8,1.2-20.4c-1.4-6.2-2.7-12.3-4.1-18.9c0-0.4,0-0.3-0.2-0.5l0-0.1
		c0.5-0.2,0.9-0.4,1.3-0.6c-0.2-0.7-0.4-1.3-0.6-2l0,0l0-0.1c-2-7-5.4-13.8-9.4-20l0-0.1l0,0c-12-18.9-29-32.9-29-32.9
		c-2,4.5-6,9.6-10.2,14.3c-0.4,0.7-0.7,1.3-1,2c-0.1,0.3-0.9,0.3-1.3,0.5c-2.4,2.6-4.8,4.9-6.7,6.7c0,0.1,0,0.1-0.1,0.2
		c-0.2,0.9-1.6,1.5-2.5,2.2c-0.1,0-0.1,0.1-0.2,0.1c-0.2,0.3-0.4,0.6-0.8,1l-1.7-2.5c-2.8-5.1-5.6-10-8-15c-1.8-3.7-3.5-4-5.9-0.6
		l-0.3,0.2c-5,4.9-9.7,9.7-14.1,14.6l-0.6,0.7c-8.2,10.5-16.2,20.7-23.3,31.5c-3.2,4.9-5.1,10.7-7.5,16.3l-1.3,2.2
		c-0.1,0.1-0.2,0.2-0.2,0.3c0.1,2.5,0.2,4.6,0.3,6.6l0,0.3c0,0,0,0.1-0.1,0.1c0.2,1.8,0.4,3.2,0.9,4.6l0.2,1.1
		c-0.4,0.8-0.4,1.1-0.4,1.5c0,0.2,0,0.4,0,0.6c0-0.2-0.1-0.3-0.2-0.4c-0.2,0.5-0.2,0.8,0,1c0,0.1-0.1,0.2-0.1,0.4
		c0.2,7.3,0.6,14,1.4,20.8c0.7,6,1.6,11.9,2.4,17.8l0,0.1c0,0,0,0,0,0l0,0.4c0,0,0,0,0-0.1c-0.1,1.3-0.3,2.2,0,3.3
		c0.9,0.2,1.4,0.3,2,0l0.1,0.1c0,0.1,0.1,0.2,0.1,0.3c2.6,6.3,5.1,11.8,7.6,17.4l0,0l0,0.8l0,0c-0.7,3.3,4.6,7.7-2.4,9.5
		c1.5,0.2,2.9,0.5,4.3,0.7c0.5,1.3,1.2,2.9,1.9,4.6l-0.1,0.4c0.6,2.2,1.3,4.1,2,6.1l0.6,1.8c0,0,0,0,0,0c-0.1-0.1-0.1-0.1-0.3,0
		c-0.3,1.1-0.4,1.9-0.2,2.8l-0.1,0.6l0,0c-0.1,0.4-0.1,0.7,0,1l0,0.9c-1.9,1.2-4.3,3.2-4.6,2.9c-2.4-2.1-4.3-4.8-6.3-7.2
		c2.5-1.4,5.1-2.8,7.1-3.9c-1.5-0.5-3.9-1.4-6.4-2.3c1-1.5,1.9-2.7,3-4.5c-2.6,1.4-5,2.7-7.4,4l0,0l0,0c-2.7,1.5-5.3,2.9-7.9,4.4
		c-0.8,0.5-1.3,1.5-1.9,2.2l-0.1,0.1c-0.1,0-0.1,0-0.2,0.1c-0.8,0.8-1.4,1.5-1.9,2.3l-0.8,0.9c-1.7,0.5-3.1,1-3.8,2
		c-5.9,8.6-5.4,17.1,4.4,23.6c1.6,1,2.8,2.6,4.2,3.9l-0.2,0.1c-0.5,0-0.9,0-1.2,0.1l-0.8,0.1c-6.2,0.1-11-1.8-15-5.9
		c-1.6-1.7-3.1-3.5-4.6-5.3l0,0l0,0c-0.1-0.2-0.3-0.3-0.4-0.5c0,0.1,0,0.1,0,0.2l0,0c0,0,0-0.1,0-0.1c0,0-0.1,0-0.1,0
		c-0.1,0-0.2-0.1-0.3-0.1l0,0c0.1,0,0.2,0,0.3,0c-0.1-0.2-0.3-0.3-0.5-0.2c-0.1-0.1-0.1-0.2-0.2-0.3c-2-6.6-4-12.8-6-19
		c-0.5,4.5-0.3,9.2-0.1,13.9c0.2,2.8,0.4,5.5,0.7,8.5c-0.1,0-0.1-0.1-0.2-0.1c-4.7-6.4-9.1-12.4-13.5-18.3l-1.2-2
		c-0.5-1.3-1.1-2.3-1.6-3.3c-0.6,0.5-1.2,1.1-1.4,1.7l-1.1,1.5l0,0c-0.9,1.2-1.6,2.4-2.2,3.8c-0.2,6.3-0.5,12.2-0.9,18l-0.1,0.9
		c0.2,0.5,0.4,0.8,0.7,0.8c0,0.1,0.1,0.2,0.1,0.3c0.2,1.2,0.4,1.8,0.5,2.5l0.2,0.8c-0.1-0.1-0.2-0.3-0.3-0.4
		c0.5,1.8,1.1,3.6,1.6,5.3l0,0.1l0.2,0.5c0.9,2.9,1.9,5.8,2.8,8.6l-0.1,0.1c0,0-0.1,0-0.2,0.1c-1.7-0.6-3.2-1.2-4.6-1.8l-1.7-1
		l-0.2,0.2c-0.2-0.1-0.5-0.3-0.8-0.5c0.3,0.2,0.6,0.4,0.9,0.4c-0.5-0.6-1-0.9-1.5-0.9c-0.1-0.1-0.2-0.2-0.3-0.3
		c-0.8-1.6-1.4-2.7-1.9-3.8c-0.5,0.1-1,0.3-1.5,0.4c0.9,5.2,1.6,10.4,2.8,15.5c1.1,5,2.7,9.9,4.1,14.9c0,0,0,0,0,0c0,0,0,0,0,0
		l-6.4-4.1c-0.2-0.1-0.4-0.3-0.7-0.4l-3.9-2.6l-0.1,0c0-0.1,0-0.2-0.1-0.3c-3.5-1.7-6.9-3.1-11.4-4.9c5.6,7.8,10.2,14.1,14.8,20.4
		c0.7,1.2,1.4,2.3,2.4,3.6c0-0.1-0.1-0.2-0.1-0.2l0.4,0.7c0.9,1.8,1.7,3.3,2.5,4.8c1.7,3.3,3.4,6.5,5.1,9.8
		c-0.4,0.4-0.7,0.8-1.1,1.2c-1.3-0.2-2.6-0.5-4.6-1c-0.1-0.1-0.2-0.2-0.4-0.3c-0.9-2-2.2-4-3.9-6.5c-2.9-2.6-5.4-4.8-8.2-7
		c-1.2-0.6-2.4-1.2-3.5-1.7l0,0l-5.1-2.7c-0.3-0.3-0.6-0.4-0.8-0.4l-0.4-0.2c-2.7-1.3-4.9-2.3-7.1-3.1c-3.6-1.5-7.1-1.8-10.3,0.8
		l-1.1,0.1c-6-1-12-1.2-17.4-2.8c-12.4-3.6-22.5-10.7-29.5-22.4c0.5,2.4,1.1,4.8,2,7.3v0.4c2,6.3,3.2,13,6.8,18.1
		c6.6,9.3,14.5,17.6,22.1,26.2c1.3,1.4,3.6,1.9,5.4,2.8c0,0,0,0,0,0c0,0,0,0,0,0l0,0.5c-1.1,1.1-1.9,2.1-2.7,3.4l-0.4,0
		c-1.6-0.5-2.8-0.6-4.2-0.3l-0.3-0.1c0,0,0,0,0,0c-4.2-4.3-8.1-8.3-12.4-12.2l-0.2-0.4l-0.5,0.1l0,0c0.2,0,0.3-0.1,0.5-0.1
		c-0.6-0.1-1.1-0.2-1.7-0.3l0,0l0,0c-1.2-0.1-2.5-0.1-3.9,0c-4.2,1.9-6.2,5.6-4.6,8.9c3.3,6.7,4.3,15.8,14.3,16.9
		c0.6,0.1,1.2,1.1,2.1,1.7c0.7,0.3,1.1,0.6,1.5,0.9l0.2,0.1c0,0,0,0.1,0,0.1c2.2,1.5,4.1,2.8,6.1,4.1c-2.1,1.2-3.7,2.1-5.4,3.1
		c0.1,0.3,0.2,0.6,0.2,1c1.9,0,3.9,0,5.8,0c0.2-0.2,0.5-0.3,0.7-0.5l0,0.1c-0.3,0.2-0.5,0.5-0.8,0.7c-7.7,6.7-15.3,13.1-22.9,19.5
		l-0.5,0.2c-0.4,0.3-0.6,0.5-0.6,0.7l-0.2,0.3c0,0-0.1,0-0.1,0.1c-0.1,0.2-0.2,0.3-0.3,0.4l-0.1,0.1l0,0.1c-0.6,0.9-1,1.7-1.3,2.4
		l-0.1,0.3c0,0-0.1,0-0.1,0c-1,6.1-5.1,9.9-8.7,14.1c-1.5,1.8-1.2,5.7-0.8,8.5c0.5,3.5,3.4,4.1,6.5,3.7c7.9-1.1,16.4-8.2,19.1-16.9
		l0.3-0.1c0,0,0,0,0,0c0.1,0,0.2-0.1,0.3-0.2l0.1-0.1l0,0c3.2-1.7,4.6-6.2,10.2-5.3c-1.8,5.3-3.4,10.2-5,15l-0.2,0.1
		c0,0,0,0-0.1-0.1c-0.2,0.2-0.3,0.3-0.4,0.4l0,0l0,0c0,0.1,0,0.1,0,0.2l0.1,0.9l0,0.1c-0.2,1.2-0.2,2.1-0.1,3c0,0,0,0,0,0l0,0.4
		c0,0-0.1,0-0.1,0c0,0.1,0.1,0.2,0.1,0.3l1.4,5.1c1.6,7.3,1.7,14.4,0.1,21.7c-0.4,1.7,0.7,3.8,1.1,5.7c1.8,0,3.6-0.2,5.4,0.1
		c4.6,0.7,7.7-1.1,9.6-5.7c-0.1,0-0.2,0-0.2,0l0.7-0.6c1.1-6.3,2-12.3-2.2-17.8c0.9-2,1.4-4,1.9-6.4l0.2-0.6
		c0.2-0.3,0.3-0.5,0.2-0.7l0.4-1.3l0.4,0c0,0,0,0.1,0,0.1c0.7,1.5,1,3,1.5,4.5c0.3,1,0.8,2.7,1.4,2.8c5.7,0.9,8,5.8,11.4,9.3
		l0.3,0.6c0,0.1,0,0.2,0,0.3l0,0.6c-2.7,3-4.9,5.8-7.1,8.7l-0.3,0.2c-0.7,1.4-0.9,2.8-1.6,3.8c-4.7,7.4-6.6,15.4-4.6,24.1
		c-2.2,0.8-4,1.9-5.8,2c-0.8,0-1.6-2.3-2.2-3.2c-0.1,1.2-0.3,2.9-0.5,4.4c-3.8,2.6-10.9-1.8-11.8,6.4c0,0.1,0.1,0.3,0.1,0.4l-0.1,0
		c-3.1-0.7-6.1-1.4-9.6-1.7l-1.6-0.8c-6-4.4-12-8.6-17.9-13.1c0-0.4,0-0.3-0.3-0.1c-1.8,2-3.2,3.9-4.6,5.7l0.1,1
		c0.3,2.9,0.5,5.5,1,7.9c0,0,0,0,0,0l0,0.3c1.2,2.2,2.5,3.9,3.9,5.6c-1.1,0.2-2.2,0.4-3.5,0.7c2.2,5,6.9,4.3,10.3,4.5
		c6.9,0.3,13.9-0.6,20.8-1.1c1.1-0.1,2-1,3.1-1.9l2.2,1.4c0.3,0.8,0.5,1.5,0.8,2.2l1,2.9c3.1,7.3,6.3,14.3,9.4,21.2
		c0.6,0.7,1.3,1.3,2.5,2.2c2.6,1.5,4.7,2.6,6.6,4.1c2.4,1.9,4.6,4,7.3,6.1l-0.1,0.3c0,0-0.1,0-0.1,0c-8.9,7.3-16.1,2.9-23.1-2.5
		c-0.3,0.3-0.6,0.6-0.9,0.9c1.1,1.7,2.2,3.4,3.4,5.2c-2.5,2-5.1,4.2-7.7,6.2c3.2,5.8,6.1,11.2,9.2,16.8c2.2-0.9,3.5-1.8,4.9-1.9
		c7-0.8,12.3-3.9,15.9-10.2c1.6-2.8,4.1-5,6.2-7.5l0.4,0c0,0,0,0.1,0,0.1c3.5,0.5,6.6,0.9,9.7,1.3c3.7,0.5,5.7-0.9,5.7-4.8
		c-0.1-0.1-0.2-0.2-0.2-0.2l0.1-0.1c0.1,0.2,0.2,0.2,0.5,0.2c3.5-3.3,6.7-6.5,9.8-9.8l0.5,0c1.4,1.1,2.5,1.9,3.6,2.8l-0.7,1.3
		c-1.1,1.8-2.1,3.5-3,5.3l0,0.3c-0.1,0-0.2,0-0.3-0.1c-1.3,2-2.2,4.2-3.5,7.5c2.6-1.3,3.8-1.9,4.2-2.1c2.5,3.8,4.7,7.2,6.9,10.6
		l0,0.3c0,0,0,0.1,0,0.1c0,0.7,0.1,1.1,0.3,1.5l0.1,0.7c-0.4,2.4-0.4,4.4-0.1,6.4c1.4,1.4,2.5,2.7,3.5,4l-2.5,4.5
		c-2.2,3-4.1,5.8-5.7,8.5l0.1,0.4c-0.1,0-0.1,0-0.2,0c-0.7,11.5,8.7,20,19.2,17.2c5.4-1.4,10.4-4.9,15.4-7.8c2.1-1.2,3.6-3.4,6-5.7
		c9.4-1,16.3-10.4,10.1-19.2l0.1-0.4c6.4-5.4,4.8-13.8,7.2-18.9c1.6,0.1,2.8,0.2,3.9,0.3l2.7,0.5c2.7,0.9,5.3,1.6,7.9,2.1l3.3,0.9
		c1.9,1.4,3.6,2.1,5.4,2.8v0.4c-0.1,0-0.1,0-0.2,0c-0.6,7.3-3.1,14.4,0.5,21.1c4.5,8.3,7.3,10.8,12.1,11.9c-0.1-0.9-0.3-1.7-0.4-2.5
		c-0.1-0.2-0.2-0.4-0.4-0.5l0.2,0l0,0c0.2,0.2,0.4,0.4,0.6,0.5c2.4,0.7,4.6,1.2,6.4,2.3c3.4,2.1,5.3,1.8,5.5-2.8
		c3.2-0.3,6.3-0.7,9.4-1c2.3-1.2,2.1-2.7,2.1-2.7l-0.7-0.8l-0.6,0c-2.6-2.2-4.8-4.1-7-6c0,0,0,0,0,0l-0.1-0.3
		c-2.1-1.1-4-1.9-5.8-2.3c0,0,0,0,0,0l-0.2-0.1c-0.2-0.4-0.4-0.5-0.7-0.4l-0.3-0.2c-0.2-1.7-0.4-2.6-0.6-3.4
		c4.3,0.3,8.3,0.6,12.2,0.8c0-0.3,0-0.5,0-0.8c-4.7-1.4-9.3-2.7-14-4.1l-0.1-0.3c0.4-1.1,0.5-2,0.3-2.8c0,0,0,0,0,0l0-0.5
		c0.5-2.3,0.5-4.1,0.5-5.9c0-2.9-0.5-6,2.9-8.1l0.3,0c1,0.8,1.9,1.2,2.8,1.4l0.8,0.4c9.5,9.1,20.2,14.9,33,15.7l2.4,9.8
		c0.1,0.8,0.3,1.6,0.4,2.5c3.2,1.5,4.5,5.5,6.4,8.9c1.5,2.6,4.2,4.6,6.4,6.6c1,0.9,2.2,1.4,3.4,2.1v0.5c-1.1,6.7-0.7,12.7,4.2,17.6
		c1.7,1.7,3.8,3.3,4.7,5.4c2.4,5.4,4.1,11.1,6.5,16.5c0.9,2,2.5,4.1,4.4,5.2c10,5.9,20.6,6.5,31.5,2.8c4.8-1.6,9.1-7.4,8.6-10.9
		c-0.4-2.8-0.3-5.6-1-8.3c-0.8-3-2.4-5.8-3.6-8.8c0,0,0,0,0,0l-0.1-0.3c-0.2-0.7-0.3-1.1-0.5-1.5c0,0,0,0,0,0v-0.3
		c-0.8-0.8-1.5-1.4-2.3-1.7c-0.1-0.1-0.1-0.2-0.2-0.2c0-0.5-0.1-0.8-0.1-0.8v-0.4c-0.6-1.5-1.3-2.7-1.9-3.4l-0.1-0.1
		c0-0.1,0-0.2,0-0.2c-1-3.2-2-5.8-3.2-8.3l-0.3-0.9c-0.6-2.7-1.5-5-2.7-7.3l0.1-0.5c0.3-0.1,0.6-0.2,0.9-0.3l-0.8-1.8v-2.2v-13.9
		v-1.9v-5.7h-2.8c0-2.3,0-5,0-7.6l0.9-13.8c-0.1-0.5-0.1-0.7-0.4-0.7c-0.2,0.3-0.4,0.6-0.6,0.9l0,0c0.2-0.3,0.4-0.6,0.6-0.9
		c1.4-8,2.4-15.8,3.9-24.3c1.1-3,1.9-5.7,2.7-8.2l0.1,0c0,0,0,0,0,0c0.8,0,1.8,0.1,2.7,0.2c0,0,0,0,0,0c1.1,0.2,2.3,0.4,3.4,0.6l0,0
		l2,0.4c-0.3,0-0.5-0.1-0.8-0.1c11.8,2.7,27.4,9.3,31.7,10.5c2,0.6,7.8,0.8,15,0.9c-0.1-0.6-0.2-1.2-0.3-1.8l0.1-0.3
		c0.1,0.1,0.3,0.1,0.4,0.2c4.9-0.6,9.9,1.2,13.3-3.4c0,0,0,0,0,0l0.3-0.1c0,0,0.1,0,0.1,0c1.1-0.2,2-0.5,2.8-0.8l0.1,0l2.1-1
		c14.2-6.7,22.9-17.3,24.6-32.8c0,0,0,0,0,0l0.2-0.3c4.1-10.2,4.6-20.2,0.7-30c-2.9-7.4-8.4-11.5-16.8-10.7
		c-2.1,0.2-4.2-0.2-6.4-0.3l-0.2-0.4c0.1,0,0.1,0,0.2,0c-0.7-1.2-1.4-2.4-2.1-3.5l-1.7-3.2c-1.7-4-3.5-7.7-5.6-11.2l-0.1-0.1
		l-0.2-0.7c0.2-0.3,0.1-0.6-0.2-0.7l-0.1-0.4l0,0.4l0-0.4c0,0,0,0,0,0c4-3.2,7.7-6,12-9.3l1.8-2.7c0.1-0.3,0.1-0.6,0.3-0.9
		c2.9-5.7,3.9-11-0.2-16c2.4-1.9,4.5-3.6,6.6-5.7C882.8,1043.8,882.1,1036,883.7,1029.4z M561.5,1098.2c-0.1,0.1-0.1,0.2-0.1,0.3
		l-0.2-0.2c-0.5-0.1-0.9-0.2-1.8,0.2l-8.4-11.4c0.8-0.5,1.3-1.1,1.9-2l0.3-0.1c3.8,2.4,7.8,4.6,11.5,7.2c1.4,1,2.2,3,3.3,5.3
		c0,0,0.1,0.1,0.1,0.1l0,0.3C566,1097.7,563.9,1097.9,561.5,1098.2z M632.5,913c0.1-0.4,0.2-0.9,0.2-1.8c0-0.5-0.1-0.9-0.1-1.3l0,0
		c0,0.3,0.1,0.6,0.1,1c1.4-0.6,2.6-1.4,4.1-2.3c2.1,3.4,4.1,6.6,6,10.1c0.1,0.1,0.1,0.1,0.2,0.2l-0.6,0.3c-1.4,0.5-2.5,0.9-3.5,1.6
		c-2.1-2.6-4.2-4.8-6.3-7.4c-0.2,0.2-0.4,0.4-0.7,0.6l-0.1-0.1C632.2,913.5,632.4,913.2,632.5,913z M558.6,1083c0.4,0,0.6,0,1-0.4
		l0.3-0.1c0,0,0,0,0,0.1c7.8,0.7,15.5,1.1,23.6,1.4l1.7,0c0,0,0.1,0,0.1,0l2.5,0c0.3,0.1,0.6,0.1,1,0.2c-0.3-0.1-0.6-0.1-0.8,0
		c0.7,0.3,1.2,0.4,1.6,0.3c0.1,0.1,0.3,0.1,0.4,0.2c0.6,1.4,0.8,2.3,0.9,3.2l0.2,0.5c-0.1,0-0.1-0.1-0.2-0.2c-1.2,1.2-2.4,2-3.6,2.8
		c1.8,0.8,3.3,1.4,5.2,2v0.2c-0.1,0-0.1,0-0.2,0c-1.8,1.8-3.1,3.3-4.1,5l-0.3,0.2c0,0-0.1-0.1-0.1-0.1c-4.3-0.5-8-0.8-11.7-1.1
		l-0.3-0.8c-0.4-9.6-3.2-12.2-12.5-12.4C561.8,1084,560.3,1083.4,558.6,1083L558.6,1083z M547.2,1000.5l-0.3,0c0,0-0.1,0-0.1,0
		c-2-0.3-3.4-0.4-5.1-0.4c0,0,0,0,0,0l0-0.3c0.1-0.3,0.2-0.4,0.2-0.6l0.1-0.4c1.1,0.1,2.1,0,3.4,0c0,0,0,0,0,0l0.6,0.1
		c0.4-0.2,0.6-0.5,0.6-0.6l0,0c-1.4-2.7-3.1-5.2-4.9-8c-0.1-0.1-0.2-0.2-0.3-0.3l0.1,0c6.9,2.5,12.4,6.5,15.6,13.5l0,0.4
		c-0.1,0-0.3,0-0.5-0.1c-2.9-0.7-5.4-1.3-7.9-2l-0.1-0.3c0,0,0.1,0,0.1,0c-0.1-0.4-0.3-0.6-0.4-0.8l0,0l-0.1-0.2
		C547.7,1000.4,547.4,1000.3,547.2,1000.5z M762.8,893.4c-1.5-0.2-2.6-0.2-3.6,0c-1.6-0.2-3-0.3-5.1-0.5c-0.1-0.1-0.2-0.2-0.3-0.3
		c3-5.4,12.8-8.7,18.1-5.5c1.8,1.1,3.5,2.4,5.9,3.7l0.3,0.2c-4.6,2.8-8.9,5.5-14.6,2.9L762.8,893.4z M796.1,929
		c-5,1.6-10,3-15.1,4.1c-1.4,0.3-3.3-0.4-4.6-1.3c-3.2-2.2-6.2-4.8-9.3-7.3c-0.3-0.2-0.6-0.4-0.9-0.5l0.9-0.2l1.8-0.8
		c7.9-3.2,16-3.4,24-3.7l0.5,0l0,0c1.4,0.8,2.8,1,3.7,1.8c1.5,1.3,2.6,3.2,3.8,4.8C799.3,927.1,797.8,928.4,796.1,929z
		 M801.7,1172.5l0.2,0l0,0C801.9,1172.6,801.8,1172.5,801.7,1172.5z M801.1,908.3c-0.1-1.5-0.3-2.3-0.4-3c-0.3,0-0.6-0.1-0.9-0.1
		c-0.4,1.8-0.7,3.5-1.4,6.7c-3.5-6.9-8-11.4-15.1-12.5c5.7-4,16.1-2.8,21.6,2.2c1.7,1.6,3.3,3.2,4.9,4.9c5.3,5.6,5.2,6.7-2,12.5
		C806.6,914.8,799.2,914.9,801.1,908.3z"/>
	<path d="M781.3,697.8l0.7,0.6c1.5,1.3,2.9,2.4,4.3,3.3l1.7,1.3l0,0.3c4.8,7.1,10.3,11.5,19.7,10.9c8.3-0.5,17,2,22.4,9.3
		c3.6,5,6.6,10.6,8.8,16.4c2.3,6,3.3,12.4,5.2,20c4.2-8.3,6-15.8,4.5-24v-0.4c0,0,0,0,0,0c0-2,0-3.7-0.6-5.2
		c-2.3-5.8-3.9-12.1-7.4-17c-8-11.2-18.3-19.7-31.9-23.8c-11.7-3.6-23.2-7.8-35.6-6.5c-6.2,0.7-12.2,2.4-18.4,3.6
		c5.8,3.2,11.5,5.2,17.2,7.3C775,695.3,778.1,696.5,781.3,697.8z"/>
	<path d="M612.1,755.6c-4.5,7.7-7.7,15-12.6,21.1c-6.1,7.6-13.5,14.1-20.2,21.2c-0.5,0.5-1.1,1.2-1.3,1.9c-1,4.6-1.8,9.3-2.8,13.9
		c-2.1,10.6-6.4,20.1-14.6,27.5c-1.7,1.6-3.2,3.5-4.8,5.2c0.3,0.6,0.6,1.1,0.9,1.7c4.7-1.5,9.7-2.4,14.1-4.6
		c5.1-2.5,9.6-6.1,14.3-9.2l0.3-0.2c0.8-0.6,1.2-1.2,1.7-1.6c10.2-6.9,16.2-16.7,18.9-28.6c1.6-6.8,3.7-13.5,4.8-20.4
		c0.9-5.7,0.8-11.7,0.8-17.2l0,0c0-0.1,0.1-0.3,0.1-0.4C612.1,762.3,612.1,759.4,612.1,755.6z"/>
	<path d="M533.8,802.5c0.2-0.4,0.5-0.8,0.7-1.3l0.9-1.3c4.8-10,8.7-20.2,14-29.5c3.6-6.4,9.1-11.6,13.4-17.4c0,0,0,0-0.1,0l0,0
		l0.3,0.1l0.3-0.1l1.1-0.8l0.9-0.7c1.2-0.7,2.2-1.4,3.1-2.1c0.2-0.1,0.5-0.3,0.8-0.4c3.6-2.9,10.4-3,7.4-9.8l0.5-0.1l0.5-0.1
		c0,0-0.1,0.1-0.1,0.1c4.9-0.8,9.3-1.6,13.7-2.4l0.3-0.1c0,0,0.1,0.1,0.1,0.1c3-0.8,5.6-1.7,7.9-2.6l1.1-0.1c3-1.1,5.7-1.9,8.2-3.3
		c1.6-0.9,2.5-2.7,4.1-3.6c10.9-7,22.1-13.6,35.2-15.8c0.8-0.1,1.4-1.5,1.7-2.3c0.1,0,0.3,0,0.4-0.1c3.1,0.1,5.3,0.2,7.6,0.3
		c0.1-0.5,0.2-0.9,0.3-1.4c-5.5-1-10.9-2.6-16.5-3c-9.3-0.7-18,2-27,4.5c-14.8,4.2-28.1,10.2-38.9,21.4c-0.8,0.9-1.8,2.1-2.9,2.2
		c-8.5,1.1-15.8,4.9-21.6,10.7c-7.4,7.4-14.5,15.4-15.4,26.8c-0.1,1.3-0.9,2.5-1.4,3.7c-3.5,8.6-1.9,17.6-1.9,26.5
		C532.3,801.4,533.3,802,533.8,802.5z M598.1,734.2L598.1,734.2C598.2,734.2,598.1,734.2,598.1,734.2L598.1,734.2z"/>
	<path d="M829.3,956.1c0.2-0.3,0.1-0.5,0.1-0.7c-0.2,0.2-0.3,0.4-0.4,0.7C829,956,829.1,956.1,829.3,956.1z"/>
	<path d="M523.5,957.6l0.2,0.1c0,0.1,0,0.1,0.1,0.1c1.4,0.7,2.6,1.3,3.8,1.8c0.2-0.3,0.3-0.5,0.5-0.8c-0.5-0.4-1-0.9-1.4-1.3
		l-0.7-0.9c-0.4-0.6-0.7-1-1.1-1.4l-0.8-1c0.1-0.1,0-0.2-0.1-0.1l-0.4-0.6l0,0c0.1,0.1,0.3,0.2,0.4,0.2c-0.5-2.8-1.3-5.2-2.1-7.6
		l0,0l-0.1-0.9c0.1-0.5,0.2-0.8-0.1-1c-0.2,0-0.4,0-0.5,0l-0.3-0.5l0-0.2c0-0.3,0-0.7,0-1.1c0-0.7-0.1-1-0.3-1.6
		c-0.3-0.7-0.6-1.2-0.8-1.9l-1.2-5.1c-0.1-0.8-0.3-1.6-0.4-2.6c-0.1-0.6-0.2-1-0.5-1.2l-0.7-20.1c0,0,0,0,0,0l0.1-0.5
		c0.1-0.2,0.2-0.3,0.2-0.5c2.7-9.1,4.9-18,7.7-26.7c0.8-2.5,0.7-4.2-1.2-6.3c-0.3-1.5-0.3-2.7-0.7-4.1c-1.7-4.4-3.1-8.6-5-12.8
		l-0.1-0.6c0.3-1.8,0.3-3.3,0.1-4.6c-0.7-4.6-1.4-9.2-2.2-14.3c0.4-7.2,0.8-14,1.2-20.9c-0.3,0.2-0.8,0.5-1.3,0.9l-1,0.4
		c-0.5,0.3-0.9,0.6-1.1,0.9l-0.8,0.6c-0.7-0.9-1.2-1.2-1.7-1.5l-0.2-1.4c-1.8-21.1,2.6-40.5,12.9-58.8c-9.6,5.3-15.2,13.6-19.4,22.7
		l0,0l-0.1,0.3c-0.4,0.8-0.7,1.6-1,2.4l-0.2,0.2c0,0-0.1-0.1-0.1-0.1c-3.5,6.1-6.9,11.9-8.8,18.2c-2.3,8-3.4,16.4-5,24.6
		c0,0,0,0,0,0l-0.1,0.4c0,0,0,0,0,0c0,0.1,0,0.2,0,0.3l0,0l-0.4,4.4l0,0c-0.8,2.9-1.2,5.8-1.4,9.2c1.1,5.8,2.1,11.2,3.1,16.6l0,0.4
		c-0.1,0-0.1,0-0.2,0.1c0,1.7,0.1,3.1,0.5,4.4l0.1,0.8c-0.5,1.4-0.6,2.4-0.8,3.4l-0.4,0.2c-1.4,7.8-3.2,15.4-3.3,23
		c-0.1,11.9,1.3,23.8,6.7,34.7C499.8,939.5,508.1,952.1,523.5,957.6z"/>
	<path d="M579,977.1C579,977.1,579,977.1,579,977.1C579.1,977.1,579,977.1,579,977.1z"/>
	<path d="M517,1121C517,1121,517,1121,517,1121C517,1121,517,1121,517,1121C517,1121,517,1121,517,1121z"/>
</g>
</svg>
