<svg width="52" height="52" viewBox="0 0 52 52" fill="none" xmlns="http://www.w3.org/2000/svg">
<circle opacity="0.6" cx="26" cy="26" r="25" fill="#898989" stroke="#E142B9" stroke-width="2"/>
<path d="M30.2026 15.5469L29.8653 16.0121C31.9465 16.5386 33.8923 17.4895 35.5771 18.8031C32.0408 16.8623 27.9672 16.0861 23.9512 16.588H23.5465C21.7374 16.8584 19.9838 17.4118 18.3519 18.2272C17.4974 18.6038 16.9802 18.8696 16.9802 18.8696C18.7638 17.4486 20.8451 16.4348 23.0742 15.9013L22.8269 15.6133C20.4636 15.7392 18.196 16.574 16.3281 18.0057C14.2189 22.1333 13.0813 26.6762 13 31.2966C13.7979 32.3999 14.8597 33.2925 16.0913 33.8953C17.3229 34.498 18.6863 34.7923 20.061 34.7522L21.6126 32.8693C19.9861 32.4454 18.5619 31.4735 17.5874 30.1226C17.7974 30.26 18.0152 30.3857 18.2395 30.4991V30.4991H18.4419C18.9819 30.802 19.5459 31.0613 20.1284 31.2744C21.2256 31.7067 22.3628 32.0331 23.524 32.2491C25.5081 32.6147 27.5439 32.6147 29.528 32.2491C30.6928 32.1398 31.8402 31.8944 32.9461 31.5181C33.8776 31.1728 34.7675 30.7271 35.5995 30.189C34.5675 31.5423 33.0881 32.4981 31.417 32.8915C32.1141 33.7554 32.9461 34.7301 32.9461 34.7301C34.3344 34.7665 35.7105 34.4664 36.9535 33.8561C38.1965 33.2458 39.2682 32.3441 40.0745 31.2301C39.9931 26.6098 38.8556 22.0669 36.7464 17.9392C34.8661 16.4991 32.5815 15.6638 30.2026 15.5469V15.5469ZM22.1972 28.8378C21.8663 28.8695 21.5322 28.8328 21.2166 28.7298C20.9009 28.6268 20.6106 28.4599 20.3643 28.2398C20.1181 28.0197 19.9213 27.7513 19.7866 27.4518C19.6519 27.1523 19.5824 26.8283 19.5824 26.5008C19.5824 26.1732 19.6519 25.8493 19.7866 25.5498C19.9213 25.2503 20.1181 24.9819 20.3643 24.7618C20.6106 24.5417 20.9009 24.3748 21.2166 24.2718C21.5322 24.1688 21.8663 24.132 22.1972 24.1638V24.1638C22.7866 24.2204 23.3335 24.491 23.7313 24.9231C24.1292 25.3551 24.3496 25.9175 24.3496 26.5008C24.3496 27.0841 24.1292 27.6465 23.7313 28.0785C23.3335 28.5105 22.7866 28.7812 22.1972 28.8378V28.8378ZM32.991 26.9106C32.9492 27.4129 32.757 27.8918 32.4388 28.2865C32.1206 28.6812 31.6907 28.9741 31.2035 29.128C30.7163 29.2819 30.1937 29.2901 29.7018 29.1513C29.2099 29.0125 28.7708 28.7332 28.4402 28.3485C28.1095 27.9638 27.9021 27.4912 27.8443 26.9904C27.7864 26.4896 27.8806 25.9832 28.1151 25.5351C28.3495 25.0871 28.7136 24.7177 29.1613 24.4736C29.6089 24.2295 30.12 24.1217 30.6299 24.1638V24.1638C31.2821 24.1926 31.8963 24.4742 32.3386 24.9472C32.7809 25.4203 33.0154 26.0464 32.991 26.6891V26.9106Z" fill="#EFEFEF"/>
</svg>
