<svg width="36" height="36" viewBox="0 0 36 36" fill="none" xmlns="http://www.w3.org/2000/svg">
<circle opacity="0.3" cx="18" cy="18" r="18" fill="#898989"/>
<path d="M24.9936 12.215C24.7582 14.6744 23.7387 20.6438 23.2198 23.3986C23.0001 24.564 22.5684 24.9554 22.1499 24.993C21.2409 25.0764 20.5503 24.3959 19.6697 23.8226C18.2916 22.925 17.5133 22.3668 16.1757 21.4906C14.6298 20.4782 15.6322 19.9225 16.5128 19.013C16.7432 18.7753 20.7491 15.1549 20.8267 14.8262C20.8362 14.7854 20.8457 14.6318 20.7542 14.5515C20.6626 14.4712 20.5275 14.4982 20.4297 14.5201C20.2914 14.5515 18.0903 15.9966 13.8262 18.8568C13.2012 19.2833 12.6356 19.4909 12.1287 19.4796C11.5701 19.4677 10.4944 19.1654 9.69528 18.9076C8.71495 18.5915 7.93598 18.424 8.00416 17.8865C8.03951 17.6061 8.42773 17.3201 9.16882 17.0272C13.7328 15.0514 16.776 13.7486 18.2986 13.1195C22.646 11.3225 23.5493 11.0107 24.1377 11.0001C24.2671 10.9982 24.5568 11.0296 24.7443 11.1807C24.8693 11.2886 24.9488 11.4385 24.9671 11.6022C24.9987 11.8048 25.0075 12.0106 24.9936 12.215Z" fill="#EFEFEF"/>
</svg>
