<svg width="36" height="36" viewBox="0 0 36 36" fill="none" xmlns="http://www.w3.org/2000/svg">
<path d="M34.8125 18C34.8125 27.2853 27.2853 34.8125 18 34.8125C8.71471 34.8125 1.1875 27.2853 1.1875 18C1.1875 8.71471 8.71471 1.1875 18 1.1875C27.2853 1.1875 34.8125 8.71471 34.8125 18Z" fill="#1F1F1F" stroke="url(#paint0_linear_3965_31902)" stroke-width="2.375"/>
<path d="M7.64062 12.2398H9.36862C10.1206 12.2398 10.8726 12.4318 11.4486 12.9758C12.0246 13.5198 12.4086 14.4158 12.4086 15.7598C12.4086 17.1038 12.0246 17.9838 11.4486 18.5278C10.8726 19.0718 10.1206 19.2958 9.36862 19.2958V23.9998H7.64062V12.2398ZM9.36862 17.5358C9.89663 17.5358 10.2326 17.4398 10.4246 17.1678C10.6166 16.9118 10.6646 16.4798 10.6646 15.8238C10.6646 15.1678 10.6166 14.7038 10.4246 14.4158C10.2326 14.1278 9.89663 13.9998 9.36862 13.9998V17.5358Z" fill="url(#paint1_linear_3965_31902)"/>
<path d="M12.7856 23.9998L14.5616 12.2398H16.6736L18.4496 23.9998H16.7696L16.4496 21.5998H14.7856L14.4656 23.9998H12.7856ZM15.7136 16.0638L15.6656 15.7598H15.5696L15.5216 16.0638L15.0256 19.7758H16.2096L15.7136 16.0638Z" fill="url(#paint2_linear_3965_31902)"/>
<path d="M21.9578 15.3918C21.9578 15.0078 21.9417 14.5758 21.8298 14.2398C21.7178 13.9198 21.5417 13.6958 21.2698 13.6958C20.8218 13.7118 20.6778 14.1758 20.6778 14.8638C20.6778 15.2638 20.8538 15.6798 21.1097 16.1278C21.3657 16.5758 21.7017 17.0398 22.0378 17.5358C22.4377 18.1278 22.8378 18.7358 23.1418 19.3278C23.4458 19.9198 23.6537 20.5278 23.6537 21.1678C23.6537 21.9518 23.5258 22.6878 23.1578 23.2318C22.7898 23.7758 22.1978 24.1278 21.2537 24.1278C20.1497 24.1278 19.5258 23.7118 19.1737 23.0718C18.8217 22.4318 18.7417 21.5838 18.7417 20.7038L20.4377 20.5438C20.4377 21.0398 20.4537 21.5358 20.5817 21.9038C20.6938 22.2878 20.8857 22.5438 21.2537 22.5438C21.7657 22.5438 21.9578 21.9998 21.9578 21.2478C21.9578 20.8638 21.7658 20.4158 21.5098 19.9518C21.3658 19.7278 21.2218 19.4878 21.0618 19.2478C20.7257 18.7678 20.3577 18.2238 19.9738 17.6318C19.5898 17.0398 19.3017 16.4318 19.1257 15.8078C19.0297 15.5038 18.9817 15.1838 18.9817 14.8638C18.9817 14.2238 19.1257 13.5358 19.4937 13.0078C19.8617 12.4958 20.4218 12.1278 21.2378 12.1118C22.2778 12.0958 22.8857 12.5278 23.2218 13.1518C23.5578 13.7918 23.6537 14.5758 23.6537 15.2318L21.9578 15.3918Z" fill="url(#paint3_linear_3965_31902)"/>
<path d="M27.4421 15.3918C27.4421 15.0078 27.4261 14.5758 27.3141 14.2398C27.2021 13.9198 27.0261 13.6958 26.7541 13.6958C26.3061 13.7118 26.1621 14.1758 26.1621 14.8638C26.1621 15.2638 26.3381 15.6798 26.5941 16.1278C26.8501 16.5758 27.1861 17.0398 27.5221 17.5358C27.9221 18.1278 28.3221 18.7358 28.6261 19.3278C28.9301 19.9198 29.1381 20.5278 29.1381 21.1678C29.1381 21.9518 29.0101 22.6878 28.6421 23.2318C28.2741 23.7758 27.6821 24.1278 26.7381 24.1278C25.6341 24.1278 25.0101 23.7118 24.6581 23.0718C24.3061 22.4318 24.2261 21.5838 24.2261 20.7038L25.9221 20.5438C25.9221 21.0398 25.9381 21.5358 26.0661 21.9038C26.1781 22.2878 26.3701 22.5438 26.7381 22.5438C27.2501 22.5438 27.4421 21.9998 27.4421 21.2478C27.4421 20.8638 27.2501 20.4158 26.9941 19.9518C26.8501 19.7278 26.7061 19.4878 26.5461 19.2478C26.2101 18.7678 25.8421 18.2238 25.4581 17.6318C25.0741 17.0398 24.7861 16.4318 24.6101 15.8078C24.5141 15.5038 24.4661 15.1838 24.4661 14.8638C24.4661 14.2238 24.6101 13.5358 24.9781 13.0078C25.3461 12.4958 25.9061 12.1278 26.7221 12.1118C27.7621 12.0958 28.3701 12.5278 28.7061 13.1518C29.0421 13.7918 29.1381 14.5758 29.1381 15.2318L27.4421 15.3918Z" fill="url(#paint4_linear_3965_31902)"/>
<defs>
<linearGradient id="paint0_linear_3965_31902" x1="1.52861e-06" y1="7.5" x2="32.5" y2="25.5" gradientUnits="userSpaceOnUse">
<stop stop-color="#AAF3F5"/>
<stop offset="1" stop-color="#749FF5"/>
</linearGradient>
<linearGradient id="paint1_linear_3965_31902" x1="8.50061" y1="11.9998" x2="32.0006" y2="25.9998" gradientUnits="userSpaceOnUse">
<stop stop-color="#AAF3F5"/>
<stop offset="1" stop-color="#749FF5"/>
</linearGradient>
<linearGradient id="paint2_linear_3965_31902" x1="8.50061" y1="11.9998" x2="32.0006" y2="25.9998" gradientUnits="userSpaceOnUse">
<stop stop-color="#AAF3F5"/>
<stop offset="1" stop-color="#749FF5"/>
</linearGradient>
<linearGradient id="paint3_linear_3965_31902" x1="8.50061" y1="11.9998" x2="32.0006" y2="25.9998" gradientUnits="userSpaceOnUse">
<stop stop-color="#AAF3F5"/>
<stop offset="1" stop-color="#749FF5"/>
</linearGradient>
<linearGradient id="paint4_linear_3965_31902" x1="8.50061" y1="11.9998" x2="32.0006" y2="25.9998" gradientUnits="userSpaceOnUse">
<stop stop-color="#AAF3F5"/>
<stop offset="1" stop-color="#749FF5"/>
</linearGradient>
</defs>
</svg>
