<svg width="120" height="120" viewBox="0 0 120 120" fill="none" xmlns="http://www.w3.org/2000/svg">
<path fill-rule="evenodd" clip-rule="evenodd" d="M56.0057 20.2399C56.0169 20.1583 56.0322 20.0765 56.0517 19.9947C56.6294 17.5752 55.4576 15.4454 53.7452 14.0088C52.6828 13.1176 52.5441 11.534 53.4353 10.4717C54.3264 9.40933 55.9101 9.27058 56.9724 10.1618C59.5611 12.3334 62.1074 16.2538 60.9359 21.1608C60.9164 21.2425 60.8931 21.3224 60.8662 21.4002C66.1766 23.859 69.2004 29.7923 67.7891 35.7038L67.777 35.7538L61.3756 62.5667L41.8389 57.9024C39.1414 57.2584 37.4768 54.5496 38.1208 51.8521L43.3681 29.8734L43.3682 29.8734C44.7796 23.962 50.1575 20.0346 56.0057 20.2399ZM86.7988 26.6897C85.5858 27.6344 84.9114 28.8554 84.7734 29.4335C84.7539 29.5151 84.7306 29.5948 84.7038 29.6725C90.0147 32.1311 93.0389 38.0647 91.6274 43.9765L91.6154 44.0264L86.963 63.5131C86.319 66.2105 83.6103 67.8752 80.9128 67.2312L61.3761 62.5669L67.2065 38.146L67.2066 38.146C68.6179 32.2349 73.9953 28.3076 79.8432 28.5125C79.8544 28.4309 79.8697 28.3492 79.8892 28.2675C80.3342 26.4036 81.7554 24.2529 83.7133 22.728C85.7516 21.1406 88.6398 20.0315 91.9897 20.8313C93.3384 21.1533 94.1708 22.5077 93.8488 23.8564C93.5268 25.2051 92.1724 26.0375 90.8236 25.7154C89.2894 25.3492 87.9314 25.8076 86.7988 26.6897Z" fill="#7B61FF"/>
<circle cx="55.5791" cy="32.7892" r="7.53216" transform="rotate(13.4278 55.5791 32.7892)" fill="white"/>
<circle cx="79.416" cy="41.0617" r="7.53216" transform="rotate(13.4278 79.416 41.0617)" fill="white"/>
<circle cx="55.5784" cy="32.7895" r="5.02144" transform="rotate(13.4278 55.5784 32.7895)" fill="#7B61FF"/>
<circle cx="79.4168" cy="41.062" r="5.02144" transform="rotate(13.4278 79.4168 41.062)" fill="#7B61FF"/>
<g clip-path="url(#clip0_2202_14605)">
<path fill-rule="evenodd" clip-rule="evenodd" d="M93.2573 53.0817H27.6323C27.2235 53.0802 26.8318 52.9171 26.5427 52.628C26.2536 52.3389 26.0905 51.9472 26.089 51.5384C26.0905 51.1295 26.2536 50.7378 26.5427 50.4487C26.8318 50.1596 27.2235 49.9965 27.6323 49.9951H33.8503C34.7718 48.7459 35.3768 47.1381 35.8362 45.0879H24.5457C22.8113 45.0931 21.1494 45.7843 19.9229 47.0108C18.6965 48.2372 18.0052 49.8992 18 51.6336V103.254C18.0074 105.951 19.0822 108.536 20.9894 110.443C22.8967 112.35 25.4813 113.425 28.1785 113.433H93.2573C95.9548 113.425 98.5397 112.35 100.447 110.443C102.355 108.536 103.43 105.952 103.439 103.254V96.2518H84.1712C82.413 96.2467 80.7282 95.5459 79.485 94.3027C78.2418 93.0594 77.541 91.3747 77.5359 89.6165V76.8921C77.541 75.1339 78.2418 73.4492 79.485 72.2059C80.7282 70.9627 82.413 70.2619 84.1712 70.2568H103.439V63.2545C103.429 60.558 102.353 57.9748 100.445 56.0689C98.5379 54.163 95.9538 53.089 93.2573 53.0817Z" fill="#7E97F0"/>
<path fill-rule="evenodd" clip-rule="evenodd" d="M84.1713 73.8086H104.985C105.8 73.8137 106.581 74.14 107.158 74.7167C107.734 75.2934 108.061 76.074 108.066 76.8896V89.614C108.061 90.4296 107.734 91.2103 107.158 91.787C106.581 92.3637 105.8 92.6899 104.985 92.695H84.1713C83.3558 92.6899 82.5751 92.3637 81.9984 91.787C81.4217 91.2103 81.0955 90.4296 81.0903 89.614V76.8896C81.0955 76.074 81.4217 75.2934 81.9984 74.7167C82.5751 74.14 83.3558 73.8137 84.1713 73.8086ZM88.5464 79.2703C87.7552 79.2703 86.9818 79.505 86.324 79.9446C85.6662 80.3842 85.1535 81.0091 84.8509 81.7401C84.5482 82.4711 84.4692 83.2754 84.6237 84.0514C84.7783 84.8273 85.1595 85.54 85.7191 86.0992C86.2788 86.6585 86.9917 87.0392 87.7678 87.1932C88.5438 87.3472 89.3481 87.2676 90.0789 86.9645C90.8097 86.6613 91.4341 86.1482 91.8733 85.4901C92.3125 84.832 92.5466 84.0584 92.546 83.2672C92.546 82.7421 92.4426 82.2222 92.2415 81.7371C92.0405 81.252 91.7458 80.8112 91.3744 80.44C91.003 80.0688 90.562 79.7744 90.0767 79.5737C89.5915 79.3731 89.0715 79.27 88.5464 79.2703Z" fill="#7B61FF"/>
</g>
<defs>
<clipPath id="clip0_2202_14605">
<rect width="90.0768" height="68.3475" fill="white" transform="translate(18 45.0996)"/>
</clipPath>
</defs>
</svg>
