<svg width="36" height="36" viewBox="0 0 36 36" fill="none" xmlns="http://www.w3.org/2000/svg">
<circle opacity="0.3" cx="18" cy="18" r="18" fill="#898989"/>
<path d="M20.9095 10.7632L20.676 11.0852C22.1168 11.4498 23.4639 12.108 24.6303 13.0175C22.1821 11.6739 19.3619 11.1365 16.5816 11.484H16.3014C15.049 11.6712 13.8349 12.0543 12.7052 12.6188C12.1136 12.8795 11.7555 13.0635 11.7555 13.0635C12.9903 12.0797 14.4312 11.3779 15.9745 11.0086L15.8032 10.8092C14.1671 10.8964 12.5972 11.4743 11.3041 12.4654C9.84385 15.323 9.05632 18.4681 9 21.6668C9.5524 22.4307 10.2875 23.0486 11.1401 23.4659C11.9928 23.8832 12.9367 24.087 13.8884 24.0592L14.9625 22.7557C13.8365 22.4622 12.8505 21.7893 12.1759 20.854C12.3213 20.9492 12.472 21.0362 12.6273 21.1147V21.1147H12.7675C13.1413 21.3244 13.5318 21.5039 13.9351 21.6515C14.6947 21.9507 15.4819 22.1767 16.2858 22.3263C17.6595 22.5794 19.0688 22.5794 20.4425 22.3263C21.2488 22.2506 22.0432 22.0807 22.8088 21.8202C23.4537 21.5812 24.0698 21.2726 24.6458 20.9C23.9313 21.8369 22.9072 22.4986 21.7502 22.771C22.2328 23.3691 22.8088 24.0439 22.8088 24.0439C23.77 24.0691 24.7227 23.8613 25.5832 23.4388C26.4437 23.0163 27.1857 22.392 27.7439 21.6208C27.6876 18.4221 26.9 15.277 25.4398 12.4194C24.1381 11.4224 22.5564 10.8442 20.9095 10.7632V10.7632ZM15.3673 19.9646C15.1382 19.9866 14.9069 19.9611 14.6884 19.8898C14.4699 19.8185 14.2689 19.703 14.0984 19.5506C13.9279 19.3982 13.7917 19.2124 13.6984 19.005C13.6052 18.7977 13.557 18.5734 13.557 18.3467C13.557 18.1199 13.6052 17.8956 13.6984 17.6883C13.7917 17.4809 13.9279 17.2951 14.0984 17.1427C14.2689 16.9904 14.4699 16.8748 14.6884 16.8035C14.9069 16.7322 15.1382 16.7068 15.3673 16.7288V16.7288C15.7753 16.7679 16.1539 16.9553 16.4294 17.2544C16.7048 17.5535 16.8574 17.9428 16.8574 18.3467C16.8574 18.7505 16.7048 19.1399 16.4294 19.4389C16.1539 19.738 15.7753 19.9254 15.3673 19.9646V19.9646ZM22.84 18.6304C22.811 18.9781 22.6779 19.3096 22.4577 19.5829C22.2374 19.8562 21.9397 20.0589 21.6024 20.1655C21.2651 20.2721 20.9033 20.2777 20.5628 20.1816C20.2222 20.0856 19.9183 19.8921 19.6893 19.6258C19.4604 19.3595 19.3169 19.0323 19.2768 18.6856C19.2367 18.3389 19.302 17.9883 19.4643 17.6781C19.6266 17.368 19.8786 17.1122 20.1886 16.9432C20.4985 16.7742 20.8523 16.6996 21.2053 16.7288V16.7288C21.6568 16.7487 22.0821 16.9436 22.3883 17.2711C22.6945 17.5986 22.8568 18.0321 22.84 18.477V18.6304Z" fill="#EFEFEF"/>
</svg>
