<svg width="36" height="36" viewBox="0 0 36 36" fill="none" xmlns="http://www.w3.org/2000/svg">
<circle cx="18" cy="18" r="16.8125" fill="#EFEFEF" stroke="url(#paint0_linear_447_5560)" stroke-width="2.375"/>
<path fill-rule="evenodd" clip-rule="evenodd" d="M12.6606 12.7446C12.6577 12.7156 12.6562 12.6862 12.6562 12.6564C12.6562 11.774 12.0765 11.1357 11.3673 10.7811C10.9274 10.5611 10.7491 10.0262 10.969 9.58621C11.189 9.14626 11.724 8.96794 12.1639 9.18791C13.236 9.72394 14.4375 10.8669 14.4375 12.6564C14.4375 12.6862 14.436 12.7156 14.4332 12.7446C16.468 13.1555 18 14.9536 18 17.1095L18 17.129V18C18.0001 15.8442 19.5321 14.0462 21.5668 13.6353C21.564 13.6062 21.5625 13.5768 21.5625 13.547C21.5625 12.8672 21.8757 12.0081 22.4256 11.3207C22.9981 10.6051 23.9033 9.98451 25.125 9.98451C25.6169 9.98451 26.0156 10.3833 26.0156 10.8751C26.0156 11.367 25.6169 11.7658 25.125 11.7658C24.5655 11.7658 24.1347 12.0358 23.8166 12.4335C23.4759 12.8593 23.3437 13.3361 23.3437 13.547C23.3437 13.5768 23.3423 13.6062 23.3394 13.6353C25.3741 14.0462 26.9061 15.8442 26.9062 18V18.0002V25.125C26.9062 26.1087 26.1088 26.9062 25.125 26.9062H18H10.875C9.89124 26.9062 9.09375 26.1087 9.09375 25.125V17.1093H9.09379C9.09387 14.9535 10.6259 13.1555 12.6606 12.7446Z" fill="#7B61FF"/>
<circle cx="13.5469" cy="17.1093" r="2.67187" fill="white"/>
<circle cx="22.4531" cy="17.9999" r="2.67187" fill="white"/>
<circle cx="13.5469" cy="17.1093" r="1.78125" fill="#7B61FF"/>
<circle cx="22.4531" cy="17.9999" r="1.78125" fill="#7B61FF"/>
<defs>
<linearGradient id="paint0_linear_447_5560" x1="0" y1="18" x2="36" y2="18" gradientUnits="userSpaceOnUse">
<stop stop-color="#E63EB6"/>
<stop offset="1" stop-color="#749FF5"/>
</linearGradient>
</defs>
</svg>
