<svg width="46" height="46" viewBox="0 0 46 46" fill="none" xmlns="http://www.w3.org/2000/svg">
<circle cx="23" cy="23" r="21.9853" stroke="url(#paint0_linear_1993_19403)" stroke-width="2.02941"/>
<path fill-rule="evenodd" clip-rule="evenodd" d="M16 25C17.1046 25 18 24.1046 18 23C18 21.8954 17.1046 21 16 21C14.8954 21 14 21.8954 14 23C14 24.1046 14.8954 25 16 25ZM25 23C25 24.1046 24.1046 25 23 25C21.8954 25 21 24.1046 21 23C21 21.8954 21.8954 21 23 21C24.1046 21 25 21.8954 25 23ZM32 23C32 24.1046 31.1046 25 30 25C28.8954 25 28 24.1046 28 23C28 21.8954 28.8954 21 30 21C31.1046 21 32 21.8954 32 23Z" fill="url(#paint1_linear_1993_19403)"/>
<defs>
<linearGradient id="paint0_linear_1993_19403" x1="0" y1="23" x2="46" y2="23" gradientUnits="userSpaceOnUse">
<stop stop-color="#E63EB6"/>
<stop offset="1" stop-color="#749FF5"/>
</linearGradient>
<linearGradient id="paint1_linear_1993_19403" x1="14" y1="23" x2="32" y2="23" gradientUnits="userSpaceOnUse">
<stop stop-color="#E63EB6"/>
<stop offset="1" stop-color="#749FF5"/>
</linearGradient>
</defs>
</svg>
