<svg width="27" height="27" viewBox="0 0 27 27" fill="none" xmlns="http://www.w3.org/2000/svg">
<circle cx="13.5" cy="13.5" r="13.5" fill="url(#paint0_linear_962_7302)"/>
<path d="M15.5227 14.9043C15.5227 14.7676 15.5015 14.6455 15.4592 14.5381C15.4201 14.4274 15.3469 14.3281 15.2395 14.2402C15.1353 14.1491 14.9872 14.0612 14.7951 13.9766C14.6063 13.8887 14.3622 13.7975 14.0627 13.7031C13.7307 13.599 13.4214 13.4818 13.135 13.3516C12.8485 13.2214 12.5962 13.07 12.3781 12.8975C12.1633 12.7249 11.9956 12.5264 11.8752 12.3018C11.7548 12.0739 11.6945 11.8102 11.6945 11.5107C11.6945 11.2178 11.7564 10.9508 11.8801 10.71C12.007 10.4691 12.1861 10.2624 12.4172 10.0898C12.6483 9.91406 12.9201 9.77897 13.2326 9.68457C13.5484 9.59017 13.8967 9.54297 14.2775 9.54297C14.8049 9.54297 15.2606 9.639 15.6447 9.83105C16.0321 10.0231 16.3316 10.2835 16.5432 10.6123C16.7548 10.9411 16.8605 11.3105 16.8605 11.7207H15.5227C15.5227 11.4993 15.4755 11.304 15.3811 11.1348C15.2899 10.9655 15.1499 10.832 14.9611 10.7344C14.7756 10.6367 14.5412 10.5879 14.258 10.5879C13.9846 10.5879 13.7567 10.6286 13.5744 10.71C13.3954 10.7913 13.2603 10.902 13.1691 11.042C13.0813 11.182 13.0373 11.3382 13.0373 11.5107C13.0373 11.641 13.0682 11.7581 13.1301 11.8623C13.1919 11.9632 13.2847 12.0592 13.4084 12.1504C13.5321 12.2383 13.6851 12.3213 13.8674 12.3994C14.0529 12.4743 14.2678 12.5492 14.5119 12.624C14.9025 12.7412 15.2443 12.8714 15.5373 13.0146C15.8335 13.1579 16.0793 13.3206 16.2746 13.5029C16.4732 13.6852 16.6213 13.8903 16.7189 14.1182C16.8199 14.346 16.8703 14.6048 16.8703 14.8945C16.8703 15.2005 16.8101 15.474 16.6896 15.7148C16.5692 15.9557 16.3967 16.1608 16.1721 16.3301C15.9475 16.4993 15.6773 16.6279 15.3615 16.7158C15.049 16.8037 14.6991 16.8477 14.3117 16.8477C13.9667 16.8477 13.6249 16.8021 13.2863 16.7109C12.951 16.6165 12.6467 16.4766 12.3732 16.291C12.0998 16.1022 11.8817 15.8646 11.7189 15.5781C11.5562 15.2884 11.4748 14.9499 11.4748 14.5625H12.8225C12.8225 14.7871 12.8583 14.9792 12.9299 15.1387C13.0048 15.2949 13.1089 15.4235 13.2424 15.5244C13.3791 15.6221 13.5386 15.6937 13.7209 15.7393C13.9032 15.7848 14.1001 15.8076 14.3117 15.8076C14.5852 15.8076 14.8098 15.7702 14.9855 15.6953C15.1646 15.6172 15.298 15.5098 15.3859 15.373C15.4771 15.2363 15.5227 15.0801 15.5227 14.9043Z" fill="#EFEFEF"/>
<defs>
<linearGradient id="paint0_linear_962_7302" x1="0" y1="13.5" x2="27" y2="13.5" gradientUnits="userSpaceOnUse">
<stop stop-color="#F5B510"/>
<stop offset="1" stop-color="#23EC37"/>
</linearGradient>
</defs>
</svg>
