<svg width="24" height="24" viewBox="0 0 24 24" fill="none" xmlns="http://www.w3.org/2000/svg">
<g clip-path="url(#clip0_676_6973)">
<path d="M2.00244 11.9837C2.00244 6.46662 6.49159 1.99833 12.0308 2C17.525 2 22.0074 6.50921 22.0024 12.0205C21.9966 17.5776 17.5058 22.0409 11.8881 21.995C6.41313 21.9591 2.00244 17.5108 2.00244 11.9837ZM8.1986 9.34082C7.93482 11.1027 7.93482 12.894 8.1986 14.6558H15.8038C16.068 12.894 16.068 11.1026 15.8038 9.34082H8.1986ZM8.44902 7.99307H15.5133C15.5105 7.94352 15.5033 7.89433 15.4916 7.8461C15.2846 7.24488 15.1068 6.63196 14.8605 6.0466C14.5267 5.25581 14.0784 4.53184 13.4273 3.95232C12.6076 3.22083 11.7178 3.13816 10.868 3.72101C10.7428 3.80807 10.6239 3.90407 10.5125 4.00827C9.75536 4.70803 9.29209 5.59484 8.92648 6.5401C8.74618 7.01023 8.61179 7.49706 8.44985 7.99474L8.44902 7.99307ZM8.48408 16.0094C8.48749 16.059 8.49503 16.1081 8.50662 16.1564C8.7128 16.7576 8.89142 17.3705 9.13683 17.9559C9.47072 18.7408 9.90979 19.459 10.5559 20.0343C10.9816 20.4126 11.4599 20.6848 12.05 20.6664C12.6043 20.6489 13.0567 20.385 13.4557 20.0226C14.2353 19.3137 14.7078 18.4068 15.0767 17.4415C15.2537 16.9789 15.3889 16.5004 15.5492 16.0094H8.48408ZM20.232 14.6608C20.2445 14.6316 20.257 14.6074 20.2654 14.5815C20.7918 12.9175 20.7991 11.1326 20.2863 9.46441C20.2495 9.33999 20.1777 9.3308 20.0734 9.33164C19.2612 9.33164 18.4499 9.33164 17.6377 9.33164H17.1368C17.391 11.0987 17.391 12.893 17.1368 14.66L20.232 14.6608ZM6.80878 9.34082C6.78362 9.33704 6.75826 9.33481 6.73283 9.33414C5.78959 9.33414 4.84635 9.33414 3.90228 9.32996C3.77456 9.32996 3.73532 9.38591 3.70861 9.48779C3.36039 10.6037 3.25173 11.7806 3.38975 12.9415C3.46154 13.521 3.60511 14.0922 3.71363 14.6542H6.80712C6.75954 13.7623 6.6769 12.8839 6.6769 12.0054C6.6769 11.127 6.76037 10.2393 6.80878 9.34082ZM15.2879 3.98739L15.2495 4.02747L15.3263 4.14855C16.0544 5.27345 16.5741 6.52029 16.8605 7.8294C16.8923 7.96969 16.944 8.00559 17.0767 8.00476C17.8956 7.99975 18.7145 8.00476 19.5333 8.00476C19.5709 8.00476 19.6084 8.00058 19.6736 7.99557C18.6619 6.12926 17.2061 4.80322 15.2879 3.9899V3.98739ZM15.2487 20.0318C17.2094 19.1968 18.6711 17.8716 19.6794 16.0028C18.7704 16.0028 17.9031 16.0028 17.0358 16.0028C16.9156 16.0028 16.8914 16.057 16.8689 16.1597C16.6977 16.9736 16.4286 17.7637 16.0676 18.5129C15.8213 19.0147 15.5383 19.4999 15.2487 20.0343V20.0318ZM8.71363 20.0143L8.75035 19.9734L8.67273 19.8531C7.94326 18.7292 7.4224 17.4828 7.13516 16.1739C7.10428 16.032 7.05169 15.9994 6.91814 16.0002C6.10678 16.0053 5.29459 16.0002 4.4824 16.0002C4.43816 16.0002 4.39893 16.0069 4.32464 16.0119C5.34134 17.8791 6.79543 19.2035 8.71363 20.0168V20.0143ZM4.31713 8.00476C5.23533 8.00476 6.11596 8.00476 6.99576 7.99724C7.04083 7.99724 7.11096 7.89955 7.12515 7.83692C7.41853 6.53678 7.93782 5.29826 8.65937 4.17778C8.69192 4.12768 8.71947 4.07507 8.74868 4.02413C6.79626 4.80072 5.34134 6.12676 4.31713 8.00476Z" fill="#EFEFEF"/>
</g>
<defs>
<clipPath id="clip0_676_6973">
<rect width="20" height="20" fill="white" transform="translate(2 2)"/>
</clipPath>
</defs>
</svg>
