<svg width="57" height="57" viewBox="0 0 57 57" fill="none" xmlns="http://www.w3.org/2000/svg">
<g clip-path="url(#clip0_3729_23445)">
<path d="M56.7757 0.223635L0.222656 0.223633L0.222654 56.7767L56.7757 56.7767L56.7757 0.223635Z" fill="#FFD700"/>
<path d="M56.7757 41.1064L0.222656 41.1064L0.222656 56.7766L56.7757 56.7766L56.7757 41.1064Z" fill="white"/>
<path d="M56.7757 0.223635L0.222656 0.223633L0.222654 56.7767L56.7757 56.7767L56.7757 0.223635Z" stroke="#231815"/>
<path d="M54.5199 6.25739L51.3734 6.25739L51.3734 3.11084L46.4122 3.11084L46.4122 6.25739L43.2656 6.25739L43.2656 11.2186L46.4122 11.2186L46.4122 14.3651L51.3734 14.3651L51.3734 11.2186L54.5199 11.2186L54.5199 6.25739Z" fill="white"/>
<path d="M11.3569 4.21022C11.2675 5.78796 10.3691 9.4485 3.93743 9.4485L2.57422 9.4485L2.57422 14.9416L10.235 14.9416L10.235 37.5529L17.5203 37.5529L17.5204 3.75879L11.3926 3.75879L11.3569 4.21022Z" fill="white"/>
<path d="M28.8637 30.8576C29.7576 29.767 31.5097 28.5021 34.3166 26.4998L35.4697 25.6774C38.8129 23.3532 42.3841 20.3855 42.3841 14.5974C42.3841 8.11659 37.7492 3.75879 30.8527 3.75879C27.5497 3.75879 19.8621 4.93875 19.8621 15.8265L19.8621 16.3316L26.9642 16.3316L26.9642 15.8578C27.0223 12.9884 27.3888 10.1815 31.1208 10.1815C33.8472 10.1815 35.0898 12.3537 35.0898 14.3695C35.0898 17.7797 32.998 19.3307 27.3932 23.4829L27.1698 23.6482C19.9738 28.9849 19.719 33.2711 19.5 37.0568L19.4687 37.5664L42.4243 37.5664L42.4243 30.8621L28.8637 30.8576Z" fill="white"/>
<path d="M12.3009 51.1405C12.3009 51.1763 12.3009 51.1942 12.2518 51.1942C12.2073 51.229 12.1517 51.2465 12.0954 51.2433L10.464 51.2433L10.464 51.9629L12.2071 51.9629L12.2071 53.192L10.464 53.192L10.464 54.9396L9.22144 54.9396L9.22144 53.192L7.16992 53.192L7.16992 51.9629L9.22144 51.9629L9.22144 51.2433L7.47832 51.2433C7.42644 51.2437 7.37598 51.2263 7.33529 51.1941C7.30401 51.1941 7.28613 51.1942 7.28613 51.1405L7.28613 45.8039C7.28613 45.7368 7.28613 45.7011 7.33529 45.7011C7.38446 45.7011 7.42021 45.6698 7.49173 45.7011L9.23485 45.7011L9.23485 45.0843L7.27272 45.0843L7.27272 43.8552L9.22144 43.8552L9.22144 42.8272L10.464 42.8272L10.464 43.8552L12.2071 43.8552L12.2071 45.0843L10.464 45.0843L10.464 45.7011L12.1043 45.7011C12.1273 45.6853 12.1546 45.6769 12.1825 45.6769C12.2104 45.6769 12.2377 45.6853 12.2607 45.7011C12.292 45.7011 12.3099 45.7368 12.3099 45.8039L12.3009 51.1405ZM9.22144 47.8554L9.22144 46.7246L8.50184 46.7246L8.60464 46.8274L8.60464 47.8509L9.22144 47.8554ZM9.22144 50.2153L9.22144 49.089L8.60464 49.089L8.60464 50.1125L8.50184 50.1125L8.60464 50.2153L9.22144 50.2153ZM11.0674 47.8554L11.0674 46.7246L10.464 46.7246L10.464 47.8509L11.0674 47.8554ZM11.0674 49.089L10.464 49.089L10.464 50.2153L11.0763 50.2153L11.0763 49.089L11.0674 49.089ZM19.4835 44.9815L18.46 45.4955L18.2544 45.0843L16.404 45.0843L16.404 45.5983L18.46 45.5983C18.5867 45.5966 18.7111 45.6324 18.8175 45.7011C18.8945 45.8269 18.9462 45.9666 18.9695 46.1123L18.9695 54.0144C18.9669 54.188 18.9295 54.3593 18.8597 54.5181C18.7898 54.677 18.6889 54.8204 18.5628 54.9396C18.2633 55.1526 17.902 55.261 17.5348 55.248L17.1236 55.1452C16.9944 55.0849 16.8548 55.05 16.7124 55.0424L16.5068 53.5004C16.6392 53.6004 16.7917 53.6706 16.9537 53.706C17.093 53.7737 17.2458 53.8088 17.4007 53.8088L17.5035 53.6032C17.5235 53.5285 17.5585 53.4585 17.6063 53.3976L17.6063 51.7573L16.404 51.7573L16.404 54.8368L15.1749 54.8368L15.1749 51.7573L13.9413 51.7573L13.9413 54.8368L12.6004 54.8368L12.6004 46.1123C12.5942 45.9682 12.6299 45.8254 12.7032 45.7011C12.8273 45.6273 12.9702 45.5916 13.1144 45.5983L15.1659 45.5983L15.1659 45.0843L12.6987 45.0843L12.6987 43.8552L15.1615 43.8552L15.1615 42.93L16.3906 42.93L16.3906 43.8552L17.5214 43.8552L17.3158 43.5468L17.1102 43.2384L18.1382 42.6216C18.3862 42.9826 18.6087 43.3604 18.8041 43.7524C19.0583 44.1461 19.2853 44.5568 19.4835 44.9815ZM15.1749 48.0655L15.1749 46.9391L13.9413 46.9391L13.9413 48.0655L15.1749 48.0655ZM15.1749 50.5282L15.1749 49.2991L13.9413 49.2991L13.9413 50.5282L15.1749 50.5282ZM17.6376 48.0655L17.6376 46.9391L16.404 46.9391L16.404 48.0655L17.6376 48.0655ZM17.6376 50.5282L17.6376 49.2991L16.404 49.2991L16.404 50.5282L17.6376 50.5282Z" fill="#231815"/>
<path d="M25.334 54.0948L23.3674 54.0948L23.3674 46.6799C22.6386 47.3569 21.7706 47.8664 20.8242 48.1727L20.8242 46.3849C21.4328 46.1628 21.9995 45.8394 22.5003 45.4284C23.0619 45.0118 23.4917 44.4424 23.7384 43.7881L25.334 43.7881L25.334 54.0948Z" fill="#231815"/>
<path d="M34.9199 52.2666L34.9199 54.0947L28.0234 54.0947C28.1012 53.3996 28.33 52.7299 28.6939 52.1325C29.3309 51.2198 30.0819 50.3922 30.9286 49.6698C31.5181 49.1559 32.0638 48.5938 32.56 47.9893C32.8121 47.6362 32.9537 47.2162 32.9667 46.7825C32.9785 46.5987 32.9528 46.4144 32.8914 46.2408C32.8299 46.0672 32.7339 45.9079 32.6092 45.7724C32.3364 45.5391 31.9893 45.411 31.6304 45.411C31.2714 45.411 30.9243 45.5391 30.6515 45.7724C30.3724 46.1223 30.2239 46.5585 30.2314 47.006L28.2737 46.8093C28.3899 45.7232 28.7564 44.95 29.3732 44.4762C30.042 43.9873 30.8562 43.7385 31.684 43.77C32.5559 43.7205 33.4125 44.014 34.0707 44.5879C34.3521 44.8463 34.575 45.1618 34.7245 45.5133C34.874 45.8648 34.9468 46.2442 34.9378 46.6261C34.9405 47.0772 34.8571 47.5247 34.692 47.9446C34.494 48.418 34.2291 48.8605 33.9053 49.2586C33.5068 49.7256 33.0751 50.1632 32.6136 50.5682C31.9924 51.1403 31.5991 51.5157 31.4337 51.7035C31.2828 51.8722 31.1481 52.0548 31.0314 52.2487L34.9199 52.2666Z" fill="#231815"/>
<path d="M43.0285 49.4065L41.7994 49.7149L41.6966 49.0981L40.7714 49.2009L40.7714 54.9487L39.5423 54.9487L39.5423 49.4065L37.7992 49.7149C37.7341 49.4946 37.6818 49.2708 37.6428 49.0445C37.5785 48.8258 37.5278 48.6034 37.4908 48.3785L38.4115 48.2757C38.5518 48.097 38.701 47.9255 38.8585 47.7617C38.9807 47.5701 39.1314 47.3983 39.3054 47.2522C38.9896 46.9247 38.6456 46.6256 38.2774 46.3583C37.9581 46.1333 37.6148 45.9445 37.2539 45.7951L37.8662 44.566C37.9841 44.6087 38.0899 44.6792 38.1746 44.7716C38.2876 44.8216 38.3917 44.8895 38.483 44.9727C38.6886 44.5675 38.8942 44.1742 39.0998 43.7928C39.3054 43.4114 39.511 43.018 39.7166 42.6128L40.8564 43.2385L40.1412 44.4721C39.8999 44.8789 39.6585 45.2901 39.4216 45.7013C39.5387 45.7456 39.6441 45.8159 39.73 45.9068L40.0384 46.1124C40.1725 45.8398 40.3111 45.5493 40.4452 45.2185C40.5792 44.8878 40.7223 44.6554 40.8564 44.347L42.0899 44.7582C41.8994 45.343 41.6222 45.8959 41.2675 46.3985C40.8206 47.0153 40.4452 47.5293 40.1412 47.936L41.1648 47.8332C41.1017 47.744 41.066 47.6384 41.062 47.5293C41.0307 47.422 40.9949 47.3237 40.9591 47.2209L42.0899 46.8097C42.2598 47.2209 42.4117 47.6455 42.5369 48.0924C42.662 48.5394 42.8587 48.9595 43.0285 49.4065ZM39.2339 50.3004C39.1311 50.953 39.0104 51.6413 38.8763 52.3027C38.7423 52.9642 38.6529 53.6436 38.5143 54.3051L37.388 53.9967C37.4908 53.4514 37.607 52.7989 37.7456 52.048C37.8702 51.4027 37.9553 50.7504 38.0003 50.0948L39.2339 50.3004ZM49.9072 54.0995L48.8792 55.0247C48.5037 54.7476 48.1283 54.4571 47.7528 54.1308C47.3848 53.8339 47.0411 53.5081 46.7249 53.1564C46.3211 53.5279 45.8925 53.8713 45.4421 54.1844C44.9951 54.4571 44.5035 54.7297 43.9537 55.0068L43.0285 54.0816C42.9655 54.1778 42.9144 54.2814 42.8766 54.39C42.8118 54.4852 42.7606 54.589 42.7246 54.6984L41.3838 54.39C41.5193 54.1227 41.6402 53.8482 41.7458 53.5676C41.8799 53.2592 42.0005 52.9866 42.1033 52.7452L41.3838 52.848L40.8698 50.1663L42.1033 49.8624L42.4117 51.9139C42.7476 50.9089 43.0046 49.8793 43.1805 48.8344C43.3496 47.8166 43.4348 46.7866 43.4353 45.7549L43.4353 44.5258L42.0944 44.5258L42.0944 43.1849L48.2534 43.1849C48.3715 43.1947 48.4808 43.251 48.5574 43.3413C48.66 43.4374 48.7315 43.5619 48.763 43.6989C48.7317 43.9045 48.6289 44.347 48.4546 45.0397C48.2803 45.7325 48.2177 46.1706 48.1506 46.479L48.9015 46.479L49.7239 47.0958C49.6381 48.047 49.4138 48.9805 49.058 49.8669C48.6719 50.7282 48.2081 51.5525 47.6724 52.3296C48.0148 52.6471 48.3744 52.9455 48.7496 53.2235C49.12 53.5409 49.5064 53.8393 49.9072 54.1174L49.9072 54.0995ZM45.8846 52.1508C45.5155 51.6479 45.2218 51.0938 45.013 50.506C44.7707 49.944 44.5822 49.3604 44.4499 48.7629C44.3999 49.654 44.2269 50.5338 43.9359 51.3775C43.6275 52.4726 43.3548 53.3486 43.1179 53.9967C43.6122 53.7334 44.0912 53.4424 44.5527 53.1252C45.0218 52.8343 45.4726 52.5149 45.9025 52.1687L45.8846 52.1508ZM47.2254 44.6598C47.1897 44.5883 47.1584 44.5571 47.1226 44.5571C47.1169 44.5488 47.1092 44.542 47.1002 44.5373C47.0913 44.5326 47.0813 44.5302 47.0712 44.5302C47.0611 44.5302 47.0512 44.5326 47.0422 44.5373C47.0333 44.542 47.0256 44.5488 47.0198 44.5571L44.7851 44.5571L44.6823 46.5058L46.8366 46.5058L47.2254 44.6598ZM48.2534 47.8377L45.5717 47.8377C45.6789 48.4126 45.8282 48.9788 46.0187 49.5317C46.2251 50.1176 46.4823 50.6844 46.7874 51.2256C47.1464 50.718 47.4393 50.1668 47.659 49.5853C47.8976 49.022 48.1007 48.4443 48.2668 47.8556L48.2534 47.8377Z" fill="#231815"/>
</g>
<defs>
<clipPath id="clip0_3729_23445">
<rect width="57" height="57" fill="white"/>
</clipPath>
</defs>
</svg>
