<svg width="25" height="24" viewBox="0 0 25 24" fill="none" xmlns="http://www.w3.org/2000/svg">
<path fill-rule="evenodd" clip-rule="evenodd" d="M6.25484 6.09926C6.25164 6.06669 6.25 6.03367 6.25 6.00026C6.25 5.0095 5.59906 4.29278 4.80279 3.89465C4.30881 3.64766 4.10858 3.04698 4.35557 2.55301C4.60256 2.05903 5.20324 1.8588 5.69721 2.10579C6.90094 2.70765 8.25 3.99094 8.25 6.00026C8.25 6.03367 8.24836 6.06669 8.24516 6.09926C10.5297 6.56064 12.2499 8.57942 12.25 11V11.0002V12C12.2501 9.57941 13.9703 7.56064 16.2548 7.09926C16.2516 7.06668 16.25 7.03364 16.25 7.00022C16.25 6.23698 16.6017 5.27237 17.2191 4.50052C17.8619 3.69701 18.8783 3.00022 20.25 3.00022C20.8023 3.00022 21.25 3.44793 21.25 4.00022C21.25 4.5525 20.8023 5.00022 20.25 5.00022C19.6217 5.00022 19.1381 5.30343 18.7809 5.74991C18.3983 6.22807 18.25 6.76346 18.25 7.00022C18.25 7.03364 18.2484 7.06668 18.2452 7.09926C20.5297 7.56064 22.2499 9.57941 22.25 12V12.0002V20C22.25 21.1045 21.3546 22 20.25 22H12.25H4.25C3.14543 22 2.25 21.1045 2.25 20V11.0002V11C2.25012 8.57942 3.97026 6.56064 6.25484 6.09926Z" fill="#7B61FF"/>
<circle cx="7.25" cy="11" r="3" fill="white"/>
<circle cx="17.25" cy="12" r="3" fill="white"/>
<circle cx="7.25" cy="11" r="2" fill="#7B61FF"/>
<circle cx="17.25" cy="12" r="2" fill="#7B61FF"/>
</svg>
