<svg width="36" height="36" viewBox="0 0 36 36" fill="none" xmlns="http://www.w3.org/2000/svg">
<path d="M34.8125 18C34.8125 27.2853 27.2853 34.8125 18 34.8125C8.71471 34.8125 1.1875 27.2853 1.1875 18C1.1875 8.71471 8.71471 1.1875 18 1.1875C27.2853 1.1875 34.8125 8.71471 34.8125 18Z" stroke="#D8B42C" stroke-width="2.375"/>
<path d="M7.54565 23.9998V12.2398H9.27365C9.92965 12.2398 10.4763 12.3838 10.9137 12.6718C11.3563 12.9598 11.687 13.3678 11.9057 13.8958C12.1243 14.4238 12.2337 15.0451 12.2337 15.7598C12.2337 16.4745 12.119 17.0905 11.8897 17.6078C11.6603 18.1252 11.3243 18.5305 10.8817 18.8238C10.4443 19.1118 9.90832 19.2691 9.27365 19.2958V23.9998H7.54565ZM9.27365 17.5358C9.57765 17.5358 9.81765 17.4771 9.99365 17.3598C10.1697 17.2371 10.295 17.0451 10.3697 16.7838C10.4497 16.5225 10.4897 16.1865 10.4897 15.7758C10.4897 15.3598 10.4497 15.0211 10.3697 14.7598C10.295 14.4985 10.167 14.3065 9.98565 14.1838C9.80965 14.0611 9.57232 13.9998 9.27365 13.9998V17.5358Z" fill="#D8B42C"/>
<path d="M12.8107 23.9998L14.5867 12.2398H16.6987L18.4747 23.9998H16.7947L16.4747 21.5998H14.8107L14.4907 23.9998H12.8107ZM15.0507 19.7758H16.2347L15.7387 15.8238L15.6907 15.1998H15.5947L15.5467 15.8238L15.0507 19.7758Z" fill="#D8B42C"/>
<path d="M21.3132 24.1278C20.8385 24.1278 20.4438 24.0505 20.1292 23.8958C19.8145 23.7358 19.5665 23.5065 19.3852 23.2078C19.2038 22.9092 19.0732 22.5492 18.9932 22.1278C18.9185 21.7065 18.8812 21.2318 18.8812 20.7038L20.5772 20.5438C20.5772 20.7998 20.5852 21.0478 20.6012 21.2878C20.6225 21.5225 20.6572 21.7358 20.7052 21.9278C20.7585 22.1145 20.8332 22.2638 20.9292 22.3758C21.0305 22.4878 21.1585 22.5438 21.3132 22.5438C21.5692 22.5438 21.7505 22.4265 21.8572 22.1918C21.9638 21.9518 22.0172 21.6638 22.0172 21.3278C22.0172 20.9918 21.9292 20.6425 21.7532 20.2798C21.5772 19.9172 21.3665 19.5731 21.1212 19.2478C20.7052 18.6932 20.3398 18.1785 20.0252 17.7038C19.7158 17.2291 19.4732 16.7625 19.2972 16.3038C19.1265 15.8451 19.0412 15.3651 19.0412 14.8638C19.0412 14.4691 19.0918 14.1065 19.1932 13.7758C19.2945 13.4398 19.4412 13.1491 19.6332 12.9038C19.8305 12.6531 20.0678 12.4585 20.3452 12.3198C20.6225 12.1811 20.9398 12.1118 21.2972 12.1118C21.7398 12.1118 22.1132 12.1865 22.4172 12.3358C22.7265 12.4851 22.9745 12.6985 23.1612 12.9758C23.3532 13.2531 23.4918 13.5838 23.5772 13.9678C23.6678 14.3465 23.7132 14.7678 23.7132 15.2318L22.0172 15.3918C22.0172 15.1945 22.0065 14.9971 21.9852 14.7998C21.9692 14.5971 21.9372 14.4131 21.8892 14.2478C21.8412 14.0825 21.7718 13.9492 21.6812 13.8478C21.5905 13.7465 21.4732 13.6958 21.3292 13.6958C21.1052 13.6958 20.9505 13.7918 20.8652 13.9838C20.7798 14.1705 20.7372 14.4372 20.7372 14.7838C20.7372 15.2318 20.8572 15.6638 21.0972 16.0798C21.3372 16.4958 21.6598 16.9811 22.0652 17.5358C22.5505 18.1918 22.9452 18.7945 23.2492 19.3438C23.5585 19.8931 23.7132 20.5012 23.7132 21.1678C23.7132 21.5892 23.6678 21.9811 23.5772 22.3438C23.4865 22.7011 23.3425 23.0132 23.1452 23.2798C22.9532 23.5465 22.7052 23.7545 22.4012 23.9038C22.1025 24.0532 21.7398 24.1278 21.3132 24.1278Z" fill="#D8B42C"/>
<path d="M26.7194 24.1278C26.2447 24.1278 25.8501 24.0505 25.5354 23.8958C25.2207 23.7358 24.9727 23.5065 24.7914 23.2078C24.6101 22.9092 24.4794 22.5492 24.3994 22.1278C24.3247 21.7065 24.2874 21.2318 24.2874 20.7038L25.9834 20.5438C25.9834 20.7998 25.9914 21.0478 26.0074 21.2878C26.0287 21.5225 26.0634 21.7358 26.1114 21.9278C26.1647 22.1145 26.2394 22.2638 26.3354 22.3758C26.4367 22.4878 26.5647 22.5438 26.7194 22.5438C26.9754 22.5438 27.1567 22.4265 27.2634 22.1918C27.3701 21.9518 27.4234 21.6638 27.4234 21.3278C27.4234 20.9918 27.3354 20.6425 27.1594 20.2798C26.9834 19.9172 26.7727 19.5731 26.5274 19.2478C26.1114 18.6932 25.7461 18.1785 25.4314 17.7038C25.1221 17.2291 24.8794 16.7625 24.7034 16.3038C24.5327 15.8451 24.4474 15.3651 24.4474 14.8638C24.4474 14.4691 24.4981 14.1065 24.5994 13.7758C24.7007 13.4398 24.8474 13.1491 25.0394 12.9038C25.2367 12.6531 25.4741 12.4585 25.7514 12.3198C26.0287 12.1811 26.3461 12.1118 26.7034 12.1118C27.1461 12.1118 27.5194 12.1865 27.8234 12.3358C28.1327 12.4851 28.3807 12.6985 28.5674 12.9758C28.7594 13.2531 28.8981 13.5838 28.9834 13.9678C29.0741 14.3465 29.1194 14.7678 29.1194 15.2318L27.4234 15.3918C27.4234 15.1945 27.4127 14.9971 27.3914 14.7998C27.3754 14.5971 27.3434 14.4131 27.2954 14.2478C27.2474 14.0825 27.1781 13.9492 27.0874 13.8478C26.9967 13.7465 26.8794 13.6958 26.7354 13.6958C26.5114 13.6958 26.3567 13.7918 26.2714 13.9838C26.1861 14.1705 26.1434 14.4372 26.1434 14.7838C26.1434 15.2318 26.2634 15.6638 26.5034 16.0798C26.7434 16.4958 27.0661 16.9811 27.4714 17.5358C27.9567 18.1918 28.3514 18.7945 28.6554 19.3438C28.9647 19.8931 29.1194 20.5012 29.1194 21.1678C29.1194 21.5892 29.0741 21.9811 28.9834 22.3438C28.8927 22.7011 28.7487 23.0132 28.5514 23.2798C28.3594 23.5465 28.1114 23.7545 27.8074 23.9038C27.5087 24.0532 27.1461 24.1278 26.7194 24.1278Z" fill="#D8B42C"/>
</svg>
