<svg width="20" height="20" viewBox="0 0 20 20" fill="none" xmlns="http://www.w3.org/2000/svg">
<path fill-rule="evenodd" clip-rule="evenodd" d="M9.58697 3.36192C8.67147 3.40702 7.77584 3.6446 6.95875 4.05912C6.3473 4.38692 5.79048 4.80734 5.30812 5.3054L5.03429 5.09343C4.96078 5.06166 4.88152 5.04528 4.80141 5.04528C4.7213 5.04528 4.64204 5.06166 4.56853 5.09343C4.45481 5.18596 4.37331 5.312 4.33565 5.45353L4.2512 7.3536C4.20769 7.47874 4.29215 7.62685 4.46105 7.71113C4.51592 7.75874 4.58409 7.78843 4.65639 7.79619C4.72868 7.80395 4.80163 7.78941 4.86539 7.75454L6.55697 6.90921C6.62503 6.87613 6.68272 6.82509 6.72377 6.76162C6.76482 6.69814 6.78768 6.62465 6.78985 6.54913C6.79018 6.47218 6.7731 6.39615 6.73986 6.32672C6.70663 6.2573 6.6581 6.19626 6.59791 6.14817L6.47252 6.06389C7.09997 5.49626 7.85466 5.08704 8.67329 4.87052C9.49193 4.65401 10.3506 4.63653 11.1775 4.81954C12.0043 5.00254 12.775 5.38071 13.4252 5.92232C14.0753 6.46393 14.5859 7.15321 14.914 7.93235C15.2421 8.71149 15.3783 9.55778 15.311 10.4003C15.2438 11.2428 14.9751 12.0569 14.5276 12.7744C14.08 13.4919 13.4666 14.0918 12.7388 14.5239C12.0109 14.956 11.1899 15.2077 10.3445 15.2578C9.37388 15.3337 8.40141 15.1365 7.53743 14.6887C6.67345 14.2409 5.95255 13.5604 5.45655 12.7244C5.41127 12.6501 5.35161 12.5856 5.28105 12.5346C5.21049 12.4836 5.13045 12.4472 5.04562 12.4275C4.96079 12.4077 4.87286 12.4051 4.78699 12.4197C4.70111 12.4342 4.61902 12.4658 4.5455 12.5124C4.43925 12.5683 4.34884 12.65 4.28264 12.75C4.21643 12.85 4.17657 12.965 4.16675 13.0844L4.16675 13.1253C4.20769 13.253 4.2077 13.3577 4.29215 13.442C4.92404 14.4898 5.83291 15.3437 6.91905 15.9099C8.00519 16.4762 9.22663 16.733 10.4494 16.6522C11.3241 16.5948 12.1788 16.3655 12.9645 15.9775C13.7501 15.5894 14.4512 15.0503 15.0274 14.391C15.6036 13.7318 16.0436 12.9654 16.3221 12.1359C16.6005 11.3064 16.712 10.4302 16.6501 9.55757C16.5991 8.68517 16.3752 7.83153 15.9914 7.04604C15.6076 6.26055 15.0715 5.55882 14.4142 4.98144C13.7568 4.40407 12.9913 3.96252 12.1618 3.68233C11.3324 3.40215 10.4555 3.2889 9.58185 3.34914L9.58697 3.36192Z" fill="#BDBDBD"/>
</svg>
