<svg width="20" height="20" viewBox="0 0 20 20" fill="none" xmlns="http://www.w3.org/2000/svg">
<path fill-rule="evenodd" clip-rule="evenodd" d="M5.00402 5.58255C5.00135 5.55541 4.99999 5.52789 4.99999 5.50005C4.99999 4.67442 4.45754 4.07716 3.79398 3.74538C3.38233 3.53955 3.21548 3.03899 3.4213 2.62734C3.62712 2.21569 4.12769 2.04884 4.53933 2.25466C5.54244 2.75622 6.66666 3.82562 6.66666 5.50005C6.66666 5.52789 6.66529 5.55541 6.66262 5.58255C8.5665 5.96705 9.99999 7.64946 9.99999 9.66669H10V10.5C10 8.4828 11.4335 6.80039 13.3374 6.41589C13.3347 6.38874 13.3333 6.3612 13.3333 6.33335C13.3333 5.69732 13.6264 4.89348 14.1409 4.25027C14.6766 3.58068 15.5235 3.00002 16.6667 3.00002C17.1269 3.00002 17.5 3.37312 17.5 3.83335C17.5 4.29359 17.1269 4.66669 16.6667 4.66669C16.1431 4.66669 15.74 4.91936 15.4424 5.29143C15.1236 5.6899 15 6.13605 15 6.33335C15 6.3612 14.9986 6.38873 14.996 6.41588C16.8998 6.80038 18.3333 8.48279 18.3333 10.5V17.1667C18.3333 18.0872 17.5871 18.8334 16.6667 18.8334H10H3.33333C2.41286 18.8334 1.66667 18.0872 1.66667 17.1667V9.67597L1.66666 9.66669C1.66666 7.64946 3.10015 5.96705 5.00402 5.58255Z" fill="#7B61FF"/>
<circle cx="5.83334" cy="9.6665" r="2.5" fill="white"/>
<circle cx="14.1667" cy="10.5" r="2.5" fill="white"/>
<circle cx="5.83332" cy="9.66667" r="1.66667" fill="#7B61FF"/>
<circle cx="14.1667" cy="10.5002" r="1.66667" fill="#7B61FF"/>
</svg>
