<?xml version="1.0" encoding="utf-8"?>
<!-- Generator: Adobe Illustrator 27.2.0, SVG Export Plug-In . SVG Version: 6.00 Build 0)  -->
<svg version="1.1" id="圖層_1" xmlns="http://www.w3.org/2000/svg" xmlns:xlink="http://www.w3.org/1999/xlink" x="0px" y="0px"
	 viewBox="0 0 36 36" style="enable-background:new 0 0 36 36;" xml:space="preserve">
<style type="text/css">
	.st0{opacity:0.6;fill:#898989;stroke:#E142B9;stroke-width:2;enable-background:new    ;}
	.st1{fill:#EFEFEF;}
</style>
<circle class="st0" cx="18" cy="18" r="17"/>
<path class="st1" d="M25.6,12.4c-0.3,2.7-1.4,9.2-1.9,12.2c-0.2,1.3-0.7,1.7-1.2,1.7c-1,0.1-1.7-0.7-2.7-1.3c-1.5-1-2.3-1.6-3.8-2.5
	c-1.7-1.1-0.6-1.7,0.4-2.7c0.2-0.3,4.6-4.2,4.7-4.6c0,0,0-0.2-0.1-0.3c-0.1-0.1-0.2-0.1-0.4,0c-0.1,0-2.5,1.6-7.1,4.7
	c-0.7,0.5-1.3,0.7-1.8,0.7c-0.6,0-1.8-0.3-2.6-0.6c-1.1-0.3-1.9-0.5-1.8-1.1c0-0.3,0.5-0.6,1.3-0.9c4.9-2.2,8.2-3.6,9.9-4.3
	c4.7-2,5.7-2.3,6.3-2.3c0.1,0,0.5,0,0.7,0.2c0.1,0.1,0.2,0.3,0.2,0.5C25.6,12,25.6,12.2,25.6,12.4z"/>
</svg>
