<svg width="36" height="36" viewBox="0 0 36 36" fill="none" xmlns="http://www.w3.org/2000/svg">
<circle opacity="0.3" cx="18" cy="18" r="18" fill="#898989"/>
<path d="M26.9358 13.1433C26.8693 13.0855 26.7706 13.0783 26.6959 13.1258C26.3655 13.3362 25.9203 13.443 25.5502 13.4973C25.9927 13.1508 26.5088 12.6061 26.5054 11.9042C26.5051 11.8336 26.4635 11.7691 26.3979 11.7372C26.3323 11.7053 26.2535 11.7115 26.1941 11.7531C25.5234 12.223 24.5621 12.4698 24.2101 12.5486C23.9612 12.1548 23.1052 11 21.6256 11C21.5428 11 21.4584 11.0038 21.3746 11.0111C19.5358 11.1735 18.6449 12.2059 18.2213 13.0434C17.9535 13.5729 17.8358 14.0855 17.7843 14.4241C17.4927 14.1801 16.9841 13.8087 16.227 13.4371C15.0705 12.8692 13.084 12.1924 10.189 12.1924C9.90749 12.1924 9.61835 12.1988 9.32955 12.2114C9.26385 12.2143 9.20403 12.2486 9.17029 12.3028C9.13655 12.3571 9.13341 12.4239 9.16201 12.4808C9.7799 13.7129 11.1091 14.4366 11.9744 14.795C11.4996 14.9158 10.9924 15.1514 10.8335 15.5227C10.7529 15.7112 10.7322 16.0074 11.0914 16.3481C11.6187 16.8485 12.2387 17.1524 12.7849 17.337C12.357 17.4101 12.0152 17.5356 11.9044 17.7445C11.8623 17.824 11.8142 17.9872 11.966 18.1875C12.6935 19.148 14.4372 19.5216 15.2105 19.5825C15.1124 19.8063 14.9081 20.1696 14.5135 20.5295C13.6704 21.2983 12.3411 21.7047 10.6691 21.7047C10.669 21.7047 10.6688 21.7047 10.6686 21.7047C10.2143 21.7047 9.72669 21.6752 9.21914 21.6168C9.13532 21.6073 9.0544 21.6502 9.01853 21.7237C8.98266 21.7972 8.9999 21.8844 9.06128 21.9402C11.2654 23.9416 13.7677 24.9996 16.2976 25C16.2981 25 16.2984 25 16.2989 25C19.084 25 21.811 23.6852 23.5935 21.4828C25.1808 19.5215 25.7889 17.1739 25.2756 15.015C25.6185 14.874 26.3755 14.4573 26.9771 13.3708C27.0191 13.2948 27.0021 13.2011 26.9358 13.1433Z" fill="#EFEFEF"/>
</svg>
