<svg width="24" height="24" viewBox="0 0 24 24" fill="none" xmlns="http://www.w3.org/2000/svg">
<path fill-rule="evenodd" clip-rule="evenodd" d="M6.00484 6.09926C6.00164 6.06669 6 6.03367 6 6.00026C6 5.0095 5.34906 4.29278 4.55279 3.89465C4.05881 3.64766 3.85858 3.04698 4.10557 2.55301C4.35256 2.05903 4.95324 1.8588 5.44721 2.10579C6.65094 2.70765 8 3.99094 8 6.00026C8 6.03367 7.99836 6.06669 7.99516 6.09926C10.2797 6.56064 11.9999 8.57942 12 11V11.0002V12C12.0001 9.57941 13.7203 7.56064 16.0048 7.09926C16.0016 7.06668 16 7.03364 16 7.00022C16 6.23698 16.3517 5.27237 16.9691 4.50052C17.6119 3.69701 18.6283 3.00022 20 3.00022C20.5523 3.00022 21 3.44793 21 4.00022C21 4.5525 20.5523 5.00022 20 5.00022C19.3717 5.00022 18.8881 5.30343 18.5309 5.74991C18.1483 6.22807 18 6.76346 18 7.00022C18 7.03364 17.9984 7.06668 17.9952 7.09926C20.2797 7.56064 21.9999 9.57941 22 12V12.0002V20C22 21.1045 21.1046 22 20 22H12H4C2.89543 22 2 21.1045 2 20V11.0002V11C2.00012 8.57942 3.72026 6.56064 6.00484 6.09926Z" fill="#7B61FF"/>
<circle cx="7" cy="11" r="3" fill="white"/>
<circle cx="17" cy="12" r="3" fill="white"/>
<circle cx="7" cy="11" r="2" fill="#7B61FF"/>
<circle cx="17" cy="12" r="2" fill="#7B61FF"/>
</svg>
