<svg width="56" height="47" viewBox="0 0 56 47" fill="none" xmlns="http://www.w3.org/2000/svg">
<path fill-rule="evenodd" clip-rule="evenodd" d="M9.13029 9.26711C9.12553 9.2188 9.12309 9.16981 9.12309 9.12026C9.12309 7.65425 8.15992 6.59375 6.98169 6.00463C6.25076 5.63917 5.95449 4.75037 6.31996 4.01944C6.68542 3.28851 7.57422 2.99225 8.30515 3.35771C10.0863 4.24827 12.0824 6.14711 12.0824 9.12026C12.0824 9.16985 12.08 9.21888 12.0752 9.26723C15.4557 9.95004 18.0009 12.9373 18.0009 16.519V17.9987C18.0009 14.417 20.5459 11.4298 23.9263 10.7469C23.9215 10.6988 23.9191 10.65 23.9191 10.6006C23.9191 9.47125 24.4395 8.04394 25.3531 6.90186C26.3043 5.71291 27.8081 4.68189 29.8378 4.68189C30.655 4.68189 31.3175 5.34437 31.3175 6.16157C31.3175 6.97877 30.655 7.64124 29.8378 7.64124C28.9082 7.64124 28.1925 8.0899 27.664 8.75055C27.098 9.45806 26.8785 10.2503 26.8785 10.6006C26.8785 10.6499 26.8761 10.6987 26.8713 10.7468C30.2521 11.4293 32.7976 14.4167 32.7976 17.9987V29.8361C32.7976 31.4705 31.4727 32.7954 29.8383 32.7954H18.0009H6.16345C4.52905 32.7954 3.2041 31.4705 3.2041 29.8361V16.519C3.2041 12.9371 5.74959 9.94971 9.13029 9.26711Z" fill="#7B61FF"/>
<circle cx="10.6021" cy="16.5191" r="4.43902" fill="white"/>
<circle cx="25.399" cy="17.9996" r="4.43902" fill="white"/>
<circle cx="10.6019" cy="16.5199" r="2.95935" fill="#7B61FF"/>
<circle cx="25.3988" cy="17.9984" r="2.95935" fill="#7B61FF"/>
<circle cx="39" cy="34" r="10.6667" fill="url(#paint0_linear_3196_21878)" stroke="#EFEFEF" stroke-width="0.666667"/>
<path d="M33.0719 38.7852V29.8018H34.3063L35.5286 34.4829L35.6386 34.8985H35.7119V29.8018H36.9219V38.7852H35.8097L34.4652 34.104L34.3552 33.6885H34.2819V38.7852H33.0719ZM37.8939 38.7852V29.8018H41.0351V31.1585H39.2139V33.5174H40.4362V34.874H39.2139V38.7852H37.8939ZM42.4502 38.7852V31.1585H41.2035V29.8018H45.0168V31.1585H43.7702V38.7852H42.4502Z" fill="#EFEFEF"/>
<defs>
<linearGradient id="paint0_linear_3196_21878" x1="28" y1="28.5" x2="46.7917" y2="35.8333" gradientUnits="userSpaceOnUse">
<stop stop-color="#E63EB6"/>
<stop offset="1" stop-color="#749FF5"/>
</linearGradient>
</defs>
</svg>
