<?xml version="1.0" encoding="utf-8"?>
<!-- Generator: Adobe Illustrator 27.2.0, SVG Export Plug-In . SVG Version: 6.00 Build 0)  -->
<svg version="1.1" id="圖層_1" xmlns="http://www.w3.org/2000/svg" xmlns:xlink="http://www.w3.org/1999/xlink" x="0px" y="0px"
	 viewBox="0 0 36 36" style="enable-background:new 0 0 36 36;" xml:space="preserve">
<style type="text/css">
	.st0{opacity:0.6;fill:#898989;stroke:#E142B9;stroke-width:2;enable-background:new    ;}
	.st1{fill:#EFEFEF;}
</style>
<circle class="st0" cx="18" cy="18" r="17"/>
<path class="st1" d="M27.5,12.4c-0.1-0.1-0.2-0.1-0.2,0c-0.3,0.2-0.8,0.3-1.2,0.4c0.5-0.4,1-0.9,1-1.7c0-0.1,0-0.1-0.1-0.2
	c-0.1,0-0.1,0-0.2,0c-0.7,0.5-1.7,0.8-2,0.8c-0.3-0.4-1.1-1.6-2.6-1.6c-0.1,0-0.2,0-0.3,0c-1.9,0.2-2.8,1.3-3.2,2.2
	c-0.3,0.6-0.4,1.1-0.4,1.5c-0.3-0.3-0.8-0.7-1.6-1.1c-1.2-0.6-3.2-1.3-6.2-1.3c-0.3,0-0.6,0-0.9,0c-0.1,0-0.1,0-0.2,0.1
	c0,0.1,0,0.1,0,0.2c0.6,1.3,2,2.1,2.9,2.5c-0.5,0.1-1,0.4-1.2,0.8c-0.1,0.2-0.1,0.5,0.3,0.9c0.5,0.5,1.2,0.9,1.7,1.1
	c-0.4,0.1-0.8,0.2-0.9,0.4c0,0.1-0.1,0.3,0.1,0.5c0.7,1,2.5,1.4,3.3,1.5c-0.1,0.2-0.3,0.6-0.7,1c-0.9,0.8-2.2,1.3-3.9,1.3
	c0,0,0,0,0,0c-0.5,0-1,0-1.5-0.1c-0.1,0-0.2,0-0.2,0.1c0,0.1,0,0.2,0,0.2c2.3,2.1,4.8,3.3,7.4,3.3c0,0,0,0,0,0
	c2.8,0,5.6-1.4,7.5-3.7c1.6-2.1,2.2-4.6,1.7-6.9c0.4-0.2,1.1-0.6,1.7-1.8C27.6,12.6,27.6,12.5,27.5,12.4z"/>
</svg>
