<svg width="20" height="20" viewBox="0 0 20 20" fill="none" xmlns="http://www.w3.org/2000/svg">
<path fill-rule="evenodd" clip-rule="evenodd" d="M6.99812 6.46475C6.71345 6.18416 6.32548 6.02471 5.91957 6.02149V6.00933C5.51826 6.00929 5.13306 6.16239 4.84725 6.43554C4.56144 6.70868 4.39798 7.07993 4.39221 7.469C4.38709 7.86279 4.54166 8.24278 4.82263 8.52717C5.1036 8.81155 5.48851 8.97757 5.89448 8.9895C6.30039 8.99273 6.691 8.83947 6.98038 8.56344C7.26976 8.28742 7.43419 7.91124 7.43752 7.51766C7.44085 7.12407 7.28279 6.74533 6.99812 6.46475ZM3.14712 10.6225L2.6014 10.0964L2.59827 10.1025C2.51823 10.0216 2.47148 9.91505 2.46686 9.80301C2.46224 9.69098 2.50006 9.58117 2.57318 9.4943L2.88681 9.14155C2.73585 8.89958 2.62275 8.63722 2.55122 8.36306L2.08392 8.28703C1.96831 8.27776 1.86072 8.22598 1.78318 8.14232C1.70564 8.05865 1.664 7.94941 1.6668 7.83696V7.0828C1.67129 6.97207 1.71537 6.86631 1.79147 6.78364C1.86758 6.70097 1.97097 6.64654 2.08392 6.62969L2.57631 6.57799C2.65116 6.30491 2.76406 6.043 2.9119 5.7995L2.59827 5.42241C2.52942 5.33207 2.49686 5.2205 2.50667 5.10857C2.51648 4.99664 2.568 4.892 2.65159 4.81421L3.19416 4.28812C3.27473 4.20765 3.38257 4.1581 3.49782 4.1486C3.61308 4.1391 3.72799 4.17029 3.82141 4.23643L4.2354 4.56485C4.49326 4.41437 4.77362 4.30358 5.06651 4.23643L5.11041 3.73467C5.12486 3.62419 5.18023 3.52257 5.26619 3.44872C5.35216 3.37488 5.46287 3.33384 5.57772 3.33325L6.35551 3.35758C6.46998 3.35943 6.58 3.40091 6.66569 3.47452C6.75139 3.54813 6.80712 3.64903 6.82282 3.75899L6.873 4.28812C7.14643 4.35137 7.40859 4.45387 7.65079 4.59222L8.06791 4.28812C8.15692 4.21595 8.27044 4.17846 8.38638 4.18296C8.50232 4.18746 8.61239 4.23361 8.69516 4.31245L9.24087 4.84159C9.32615 4.92348 9.37617 5.03372 9.38083 5.15001C9.38548 5.2663 9.34443 5.37997 9.26596 5.46803L8.92725 5.87248C9.07946 6.0838 9.18613 6.32272 9.24087 6.57495L9.78345 6.65098C9.89795 6.6643 10.0035 6.71769 10.0803 6.80111C10.1571 6.88453 10.1999 6.99226 10.2006 7.10408L10.1723 7.85825C10.1704 7.96924 10.1277 8.07592 10.0517 8.15901C9.97582 8.2421 9.87176 8.29613 9.75836 8.31136L9.26596 8.36001C9.19196 8.63386 9.0779 8.89602 8.92725 9.13851L9.24087 9.51559C9.31294 9.60309 9.3498 9.71297 9.34461 9.82483C9.33942 9.93669 9.29253 10.0429 9.21265 10.1238L8.64185 10.6772C8.56045 10.7469 8.45683 10.7874 8.34835 10.7918C8.23986 10.7962 8.13311 10.7644 8.04596 10.7016L7.65706 10.3975C7.39453 10.5616 7.10494 10.6809 6.80086 10.7502L6.75068 11.2033C6.73011 11.3156 6.66954 11.4173 6.57955 11.4906C6.48956 11.564 6.37586 11.6044 6.25829 11.6048H5.4805C5.36859 11.6029 5.26139 11.5608 5.17969 11.4866C5.09799 11.4124 5.04759 11.3115 5.03828 11.2033L4.9881 10.7502C4.68658 10.6735 4.39817 10.5547 4.1319 10.3975L3.79318 10.6742C3.69614 10.7399 3.57849 10.7707 3.46054 10.7613C3.34259 10.7518 3.23174 10.7027 3.14712 10.6225ZM12.6656 14.0722C12.882 14.1825 13.1186 14.2503 13.362 14.2719C13.8536 14.3154 14.3429 14.1678 14.7223 13.8616C15.1017 13.5553 15.34 13.1155 15.3849 12.6389C15.4299 12.1622 15.2776 11.6878 14.9618 11.3199C14.646 10.9521 14.1923 10.721 13.7008 10.6774C13.2092 10.6339 12.7199 10.7814 12.3405 11.0877C11.9611 11.3939 11.7228 11.8338 11.6779 12.3104C11.633 12.7871 11.7852 13.2615 12.101 13.6294C12.2574 13.8115 12.4492 13.962 12.6656 14.0722ZM17.4078 10.7717C17.5379 11.0645 17.6336 11.3705 17.6932 11.684L18.4114 11.833C18.5263 11.8597 18.628 11.9245 18.699 12.0161C18.7699 12.1076 18.8058 12.2203 18.8003 12.3348L18.6968 13.4174C18.6825 13.5273 18.6275 13.6285 18.5422 13.7023C18.4569 13.7761 18.347 13.8174 18.2327 13.8188L17.5301 13.8461C17.402 14.173 17.2369 14.4851 17.0377 14.7767L17.4266 15.3271C17.4938 15.4198 17.523 15.5334 17.5085 15.6459C17.494 15.7583 17.4369 15.8615 17.3482 15.9353L16.4669 16.6378C16.381 16.7132 16.2692 16.755 16.1533 16.755C16.0374 16.755 15.9256 16.7132 15.8397 16.6378L15.3473 16.1847C15.0007 16.3447 14.6352 16.4631 14.259 16.5374L14.1273 17.1456C14.103 17.2567 14.036 17.3547 13.9399 17.4197C13.8438 17.4847 13.7257 17.5117 13.6098 17.4953L12.4933 17.395C12.3807 17.3902 12.2745 17.3431 12.1972 17.2636C12.1199 17.1841 12.0776 17.0785 12.0793 16.9692L12.0542 16.3397C11.7017 16.2096 11.3701 16.0315 11.0694 15.8106L10.5488 16.1634C10.4482 16.2297 10.3253 16.2563 10.2052 16.2376C10.0851 16.219 9.9769 16.1565 9.90275 16.063L9.20023 15.2328C9.12435 15.1486 9.08253 15.0406 9.08253 14.9287C9.08253 14.8169 9.12435 14.7089 9.20023 14.6246L9.66753 14.1472C9.51025 13.8378 9.4044 13.5063 9.3539 13.165L8.6796 13.0403C8.57027 13.0074 8.47526 12.9404 8.40943 12.8496C8.3436 12.7588 8.31067 12.6494 8.3158 12.5385L8.41929 11.4559C8.43037 11.3441 8.48474 11.2405 8.57146 11.166C8.65817 11.0915 8.77079 11.0517 8.8866 11.0545L9.56089 11.0302C9.68769 10.7027 9.85291 10.3905 10.0533 10.0996L9.68948 9.54617C9.61709 9.4553 9.5847 9.34034 9.59939 9.2264C9.61408 9.11246 9.67465 9.00877 9.76789 8.93797L10.6492 8.2355C10.7357 8.16132 10.8473 8.12037 10.9628 8.12037C11.0783 8.12037 11.1899 8.16132 11.2764 8.2355L11.7971 8.72814C12.1285 8.5799 12.477 8.47066 12.8352 8.40276L12.9888 7.72158C13.0116 7.61388 13.075 7.51831 13.1667 7.45362C13.2584 7.38892 13.3717 7.35976 13.4844 7.37186L14.6228 7.44788C14.735 7.46517 14.8377 7.51932 14.9136 7.60125C14.9896 7.68319 15.0342 7.78793 15.0399 7.89795L15.065 8.62779C15.3795 8.74804 15.6759 8.90861 15.9463 9.10522L16.5736 8.70382C16.6723 8.64212 16.7912 8.61822 16.9071 8.63677C17.0231 8.65532 17.1277 8.71498 17.2008 8.80417L17.9284 9.63436C18.0043 9.71858 18.0461 9.82662 18.0461 9.93846C18.0461 10.0503 18.0043 10.1583 17.9284 10.2426L17.4078 10.7717Z" fill="#EFEFEF"/>
</svg>
