<svg width="116" height="109" viewBox="0 0 116 109" fill="none" xmlns="http://www.w3.org/2000/svg">
<path fill-rule="evenodd" clip-rule="evenodd" d="M44.0137 46.2806C44.0047 46.1887 44.0001 46.0954 44.0001 46.0011C44.0001 43.1939 42.1558 41.1632 39.8996 40.0352C38.5 39.3354 37.9327 37.6334 38.6325 36.2338C39.3323 34.8342 41.0342 34.2669 42.4339 34.9667C45.8444 36.672 49.6667 40.308 49.6667 46.0011C49.6667 46.0954 49.6621 46.1887 49.6531 46.2806C56.1263 47.588 61.0001 53.3081 61.0001 60.1667V60.167V91.3337H38.3334C35.2038 91.3337 32.6667 88.7966 32.6667 85.667V60.167V60.1667C32.6667 53.3081 37.5406 47.588 44.0137 46.2806ZM79.5042 45.2904C78.4204 46.6451 78.0001 48.1621 78.0001 48.8329C78.0001 48.9276 77.9954 49.0212 77.9863 49.1136C84.4596 50.4208 89.3336 56.1411 89.3336 62.9997V63V85.6667C89.3336 88.7963 86.7965 91.3333 83.6669 91.3333H61.0002V63V62.9997C61.0002 56.1412 65.874 50.421 72.3471 49.1136C72.3381 49.0213 72.3334 48.9276 72.3334 48.8329C72.3334 46.6704 73.3298 43.9373 75.0793 41.7504C76.9006 39.4738 79.7801 37.4996 83.6667 37.4996C85.2316 37.4996 86.5001 38.7681 86.5001 40.3329C86.5001 41.8977 85.2316 43.1662 83.6667 43.1662C81.8867 43.1662 80.5162 44.0253 79.5042 45.2904Z" fill="#7B61FF"/>
<circle cx="46.8335" cy="60.167" r="8.5" fill="white"/>
<circle cx="75.1667" cy="63" r="8.5" fill="white"/>
<path d="M44.859 55.3463L43.2393 56.5196L45.586 59.7589L42.3466 62.1056L43.5199 63.7252L46.7593 61.3786L49.1059 64.6179L50.7256 63.4446L48.379 60.2053L51.6183 57.8587L50.445 56.239L47.2056 58.5856L44.859 55.3463Z" fill="#7B61FF"/>
<path d="M72.859 58.3463L71.2393 59.5196L73.586 62.7589L70.3466 65.1056L71.5199 66.7252L74.7593 64.3786L77.1059 67.6179L78.7256 66.4446L76.379 63.2053L79.6183 60.8587L78.445 59.239L75.2056 61.5856L72.859 58.3463Z" fill="#7B61FF"/>
<path d="M27.5571 25.8413L26.1008 21.8125C27.3983 21.2839 28.3604 20.6781 28.9868 19.9951C29.6133 19.3121 29.7457 18.4703 29.3839 17.4697L29.2507 17.101C28.9841 16.3637 28.5743 15.9164 28.0212 15.7591C27.4857 15.5954 26.9019 15.6278 26.27 15.8562C25.5502 16.1164 25.0383 16.5396 24.7341 17.126C24.4237 17.6947 24.3012 18.3444 24.3668 19.0749L20.6688 18.8932C20.6364 18.3095 20.6806 17.7179 20.8014 17.1185C20.9333 16.4952 21.1753 15.9016 21.5272 15.3377C21.8728 14.7562 22.3435 14.2189 22.9393 13.7256C23.5351 13.2323 24.2894 12.8207 25.2023 12.4907C26.1327 12.1544 27.0229 11.9815 27.8729 11.9719C28.7405 11.956 29.5321 12.0867 30.2477 12.364C30.9632 12.6412 31.5908 13.0595 32.1303 13.6187C32.6699 14.1779 33.0825 14.8525 33.368 15.6425C33.6346 16.3798 33.7472 17.1032 33.706 17.8128C33.676 18.4985 33.524 19.1489 33.2502 19.764C32.9875 20.3552 32.6173 20.8959 32.1395 21.3862C31.6793 21.8701 31.1522 22.279 30.5583 22.6128L31.2437 24.5087L27.5571 25.8413ZM31.7852 31.6074C30.8547 31.9437 30.1147 31.983 29.565 31.7252C29.0328 31.461 28.6652 31.0481 28.4621 30.4863L28.1575 29.6437C27.9544 29.0819 27.9762 28.5382 28.2228 28.0123C28.4806 27.4626 29.0747 27.0196 30.0051 26.6833C30.9356 26.3469 31.6756 26.3077 32.2253 26.5655C32.7751 26.8233 33.1483 27.2243 33.345 27.7685L33.6496 28.6111C33.8527 29.1729 33.8253 29.7286 33.5675 30.2783C33.3272 30.8217 32.7331 31.2647 31.7852 31.6074Z" fill="#7B61FF"/>
<path d="M19.529 43.9746L16.5846 41.7805C17.2632 40.7896 17.6652 39.9019 17.7908 39.1176C17.9164 38.3332 17.6136 37.6685 16.8823 37.1235L16.6129 36.9228C16.074 36.5212 15.5696 36.3948 15.0997 36.5434C14.6393 36.6793 14.237 36.9781 13.8928 37.44C13.5009 37.966 13.3345 38.5105 13.3939 39.0735C13.4404 39.627 13.6596 40.1495 14.0515 40.6411L11.3205 42.2575C11.0216 41.8552 10.7739 41.4112 10.5772 40.9254C10.3772 40.4172 10.2699 39.8783 10.2554 39.3088C10.228 38.7297 10.3109 38.123 10.5042 37.4888C10.6974 36.8546 11.0426 36.2039 11.5398 35.5368C12.0465 34.8568 12.6016 34.3127 13.2051 33.9045C13.8182 33.4834 14.4462 33.203 15.0889 33.0635C15.7317 32.9239 16.3781 32.9267 17.0282 33.0719C17.6782 33.2171 18.2919 33.5048 18.8693 33.935C19.4081 34.3365 19.8303 34.8008 20.136 35.3279C20.4383 35.8326 20.6368 36.3696 20.7313 36.9389C20.8226 37.4858 20.8131 38.0474 20.7029 38.6238C20.6023 39.1873 20.4183 39.7287 20.1511 40.2479L21.5367 41.2804L19.529 43.9746ZM25.2764 46.1025C24.7697 46.7825 24.2589 47.16 23.7439 47.2352C23.2385 47.2976 22.7805 47.1758 22.37 46.8699L21.7541 46.411C21.3436 46.105 21.1024 45.7058 21.0304 45.2132C20.9552 44.6982 21.171 44.1008 21.6777 43.4208C22.1844 42.7408 22.6953 42.3632 23.2102 42.2881C23.7252 42.2129 24.1815 42.3235 24.5793 42.6198L25.1951 43.0787C25.6056 43.3847 25.8485 43.7951 25.9237 44.3101C26.0084 44.8122 25.7927 45.4097 25.2764 46.1025Z" fill="#7B61FF"/>
</svg>
